<?xml version="1.0" encoding="UTF-8"?>
<svg id="Layer_1" data-name="Layer 1" xmlns="http://www.w3.org/2000/svg" viewBox="0 0 476.31 490.83">
  <defs>
    <style>
      .cls-1 {
        fill: #9b99c1;
      }

      .cls-2 {
        fill: #b1aed2;
      }

      .cls-3 {
        fill: #aeaedd;
      }

      .cls-4 {
        fill: #dddcfb;
      }

      .cls-5 {
        fill: #afaed6;
      }

      .cls-6 {
        fill: #e1dfef;
      }

      .cls-7 {
        fill: #b4b2d6;
      }

      .cls-8 {
        fill: #979ad6;
      }

      .cls-9 {
        fill: #b0afdc;
      }

      .cls-10 {
        fill: #827fab;
      }
    </style>
  </defs>
  <path class="cls-4" d="M112.88,45.3s20.02-19.23,49.24-21.79c17.81-1.57,35.44,4.22,49.54,15.21,.34,.26,.69,.53,1.05,.8,21.18,16.06,48.31,22.04,74.39,16.91,16-3.15,46.88-8.42,68.21-7.06,29.95,1.91,79.1,27.56,79.1,27.56,0,0,65.89,31.43,32.42,89.22-33.47,57.79-67.03,94.45-97.07,112.99-30.04,18.53-50.92,27.78-50.92,27.78,0,0-15.67,7.16-44.85,43.27-9.61,11.9-23.21,20.15-38.34,22.42-22.3,3.36-40.54-5.94-46.03-9.16-1.07-.63-2.14-1.23-3.22-1.84-6.82-3.84-34.15-22.74-35.1-79.51-1.94-32.57-45.63-62.27-45.63-62.27,0,0-48.98-39.16-31.72-113.9,8.1-34.75,38.94-60.65,38.94-60.65Z"/>
  <path class="cls-1" d="M400.4,92.6s-11.36,19.21-21.14,32.86c0,0,15.86-4.05,21.14-2.34,0,0-17.57,3.7-23.39,5.29,0,0-19.82,26.11-20.61,28.98,0,0,12.55-3.08,15.72-1.89,0,0-11.36,5.02-17.97,4.89,0,0-16.38,22.99-18.9,28.81,0,0,18.63-6.47,25.9-6.34,0,0-18.37,7.53-27.75,9.65,0,0-17.18,24.58-18.23,29.86,0,0,17.57-5.74,21.27-4.65,0,0-18.5,6.11-22.73,8.88,0,0-8.99,13.74-12.68,26.96,0,0,8.51-4.76,11.59-4.76,0,0-12.38,6.34-12.84,6.48s-8.17,4.21-8.17,4.21c0,0-4.84-25.35-6.56-28.52,0,0,6.08,7.27,8.59,21.93,0,0,14.53-19.89,16.38-28.11,.32-3.41-4.81-24.29-4.81-24.29,0,0,4.86,9.72,6.62,20.69,0,0,12.52-20.35,16.98-28.81,0,0-2.93-16.78-.69-25.63,0,0,3.64,16.63,3.04,23.26,0,0,12.33-19.43,19.38-30.36,0,0-1.6-19.46,1.58-27.17,0,0,1.11,19.31,.65,24.92,0,0,15.04-23.23,20.15-28.02,0,0-2.11-23.46-1.06-27.69,0,0,3.98,19.02,2.82,25.19,.13-.99,21.14-32.24,25.72-34.27Z"/>
  <path class="cls-1" d="M298.41,228.7c4.47-11.2-6.04-17.11-8.86-18.46-.38-.18-.65-.52-.77-.92-.44-1.42-2.23-2.81-2.73-3.19-.1-.07-.18-.15-.26-.25l-4-4.85c-.35-.42-.9-.62-1.43-.53l-12.11,2.13c-.15,.03-.3,.08-.44,.15l-7.99,4.17c-.26,.14-.48,.35-.62,.61l-3.05,5.46c-.33,.6-.24,1.36,.26,1.82,.79,.72,2.04,2.31,3.68,5.8,2.36,5.02,7.92,10,9.98,11.72,.47,.4,.64,1.03,.46,1.62-3.24,10.82,4.88,12.03,7.33,12.15,.41,.02,.79,.21,1.06,.52,1.09,1.22,4.55,4.04,11.74,1.17,.06-.02,.13-.05,.18-.08,12.21-6.25,8.79-15.39,7.62-17.78-.19-.39-.2-.84-.03-1.25Zm-9.92,16.13c-3.98,1.5-5.67-1.14-6.35-3.05-.28-.8-1.17-1.18-1.96-.88-1.07,.41-2.57,.65-4.12-.18-3-1.69-1.74-5.83-.76-8.1,.35-.81-.06-1.73-.89-2.04-4.14-1.55-6.52-4.92-7.12-5.87-.11-.17-.25-.32-.42-.43l-6.47-4.42c-.58-.4-.81-1.14-.56-1.8l3.06-7.98c.13-.35,.39-.64,.72-.81,2.31-1.17,11.83-5.73,16.8-4.25,4.28,1.28,4.89,6.49,4.93,8.98,.01,.76,.56,1.39,1.31,1.49,2.74,.37,8.78,1.5,9.49,4.35,.66,2.65-.99,6.05-1.97,7.76-.35,.6-.18,1.33,.34,1.8,1.95,1.78,2.75,5.09,3,6.4,.07,.36,0,.72-.18,1.04-.89,1.51-3.91,6.11-8.84,7.98Z"/>
  <path class="cls-1" d="M369.16,209.17c-5.2-8.22-12.43-6.59-15.9-5.15-1.23,.51-2.65,.32-3.72-.47-5.91-4.33-10.89,.15-12.87,2.44-.62,.72-1.5,1.17-2.44,1.28-3.92,.44-13.85,2.72-10.99,14.56,2.89,9.65,10.09,8.82,13.1,8,.88-.24,1.82-.15,2.65,.25,1.76,.86,5.4,2.33,11.39,3.38,6.76,1.2,10.07-2.69,11.29-4.7,.36-.59,.51-1.27,.51-1.96,0-1.4,.47-4.33,3.95-7.25s3.74-6.78,3.61-8.61c-.05-.62-.23-1.24-.57-1.77Zm-3.04,5.8c-3.36,1.32-6.75,8.59-6.75,8.59,0,0-1.51,5.81-9.56,5.81-4.84,0-8.25-2.09-10.2-3.76-1.21-1.03-2.9-1.27-4.3-.52-3.09,1.66-8.29,3.08-9.5-5.08-.18-1.13-.18-2.3,.09-3.4,1.24-5.12,5.88-5.69,9.12-5.42,1.68,.14,3.3-.8,3.92-2.37,.49-1.23,1.36-2.54,2.93-3.24,3.04-1.41,5.5,.18,7.07,1.84,1.17,1.24,3.04,1.34,4.52,.5,6.1-3.47,12.06,3.22,12.06,3.22,0,0,3.96,2.5,.59,3.82Z"/>
  <path class="cls-1" d="M415.46,136.88c.42-.4,.99-.6,1.57-.59,12.49,.24,19.15-8.72,17.86-16.34-1.1-6.49-7.84-6.56-10.06-6.41-.49,.03-.97-.12-1.38-.38-10.76-7-17.9,.39-19.94,3-.42,.53-1.07,.82-1.74,.82-11.19-.02-11.97,4.14-16.96,7.47-5.15,3.43-5.02,9.24-1.61,12.41,2.73,2.54,7.78,2.29,9.7,2.08,.52-.05,1.03,.1,1.46,.39,1.56,1.05,3.12,1.77,4.51,2.27,1.53,.55,1.91,2.51,.75,3.64-.02,.02-.03,.03-.05,.05-.66,.65-1.68,.79-2.5,.36-7.41-3.79-14.72-1.07-17.38,.18-.63,.3-1.35,.25-1.96-.07-2.56-1.33-5.98-.43-6.67-.22-.09,.03-.16,.05-.25,.09-1.05,.47-8.64,4.14-9.13,12.5-.29,4.95,1.09,8.05,2.38,9.84,.76,1.05,.52,2.52-.59,3.19-.96,.59-1.69,1.24-2.17,1.73s-1.14,.75-1.82,.67c-3.95-.46-17.17-.88-17.23,14.27,0,.1,0,.21,.01,.31,.93,10.24,8.82,10.52,11.66,10.28,.6-.05,1.18,.16,1.63,.57,1.18,1.07,4.3,3,11.58,3,10.49,.22,14.56-6.36,15.7-8.77,.25-.54,.72-.93,1.28-1.12,1.82-.61,5.78-2.59,6.9-8.34,.66-3.82-1.41-6.37-3.87-8.02-1.38-.93-1.25-3.08,.26-3.78,2.13-.99,3.32-2.45,3.97-3.6,.54-.95,1.67-1.37,2.69-.98,18.58,7.12,26.86-4.36,28.14-11.78,1-5.82-5.41-11.04-8.54-13.2-1.06-.74-1.27-2.22-.44-3.21,.73-.87,1.63-1.76,2.23-2.34Zm-27.83,45.39c-.26,4.43-4.74,5.53-6.97,5.81-.74,.09-1.37,.54-1.7,1.21-1.05,2.2-4.08,6.99-10.8,8.14-5.6,.95-8.25-1.64-9.43-3.67-.6-1.02-1.9-1.36-2.93-.78-3.38,1.91-9.71,3.91-9.14-8.41,.98-8.79,8.8-7.58,12.11-6.65,.87,.24,1.78-.06,2.33-.77,1.33-1.71,4.19-4.58,8.38-4.65,4.12-.06,6.95,3.13,8.31,5.13,.57,.84,1.62,1.21,2.58,.85,2.66-1,7.58-2.07,7.26,3.8Zm24.66-36.96c3.84,2.65,6.33,7.27,5.69,10.31-.66,3.04-9.25,17.84-25.24,7.93l-.17-.1c-1.11-.67-2.55-.24-3.11,.94-1.23,2.57-3.76,6.31-7.82,5.51-4.48-.88-6.52-1.97-7.28-4.13-.41-1.16-1.75-1.72-2.87-1.23-1.67,.73-3.76,1.04-4.91-1.11-1.26-3.02,.26-4.97,2.1-6.17,1.08-.71,1.36-2.24,.56-3.26s-.65-2.68,2.62-5.24c2.1-1.5,4.79-.3,6.36,.68,.79,.49,1.79,.45,2.52-.13,1.63-1.28,4.76-3.25,8.44-3.07,3.46,.16,5.96,1.81,7.3,2.97,.73,.64,1.79,.71,2.61,.19,3.08-1.98,10.25-6.13,13.22-4.09Zm-7.04-6.47c-6.28-.19-10.33-3.39-12.12-5.18-.65-.65-1.64-.84-2.47-.44-2.5,1.2-7.46,2.9-7.46-2.44,.11-3.43,7.29-8.98,11.39-10.83,2.79-1.26,6.27-.86,8.19-.48,.86,.17,1.73-.17,2.22-.89,1.41-2.06,4.7-5.93,9.28-5.66,4,.23,5.91,2.38,6.77,3.87,.47,.82,1.44,1.18,2.35,.97,2.63-.6,4.46-.42,5.34-.25,.46,.09,.87,.32,1.18,.67,.87,1,2.13,3.58-.58,8.91s-10.48,5.02-14.02,4.47c-1-.16-2,.38-2.37,1.32-.89,2.25-3.06,5.97-7.69,5.97Z"/>
  <path class="cls-10" d="M358.78,116.39c.04,.46,.15,.86,.28,1.22-.04-.42-.14-.82-.28-1.22Z"/>
  <path class="cls-1" d="M382.26,91.63c0-5.65-3.24-8.81-4.64-9.92-.41-.32-.67-.78-.76-1.29-.44-2.41-2.33-9.23-9.58-9.23-9.28,.28-10.71,4.58-10.9,6.41-.06,.55-.34,1.04-.77,1.38-2.07,1.64-7.63,6.79-7.52,14.55,0,.71,.05,1.38,.11,2.01,.12,1.1-.66,2.08-1.75,2.26-6.54,1.1-26.04,5.87-20.74,23.36,.02,.07,.05,.15,.07,.22,2.19,5.79,4.36,7.64,5.75,8.19,1.28,.51,1.93,2.03,1.12,3.14-.01,.02-.03,.03-.04,.05-.76,.99-3.15,.03-3.93-.33-.15-.07-.29-.15-.42-.25-1.06-.85-7.11-5.25-12.09,.6-.21,.25-.47,.46-.77,.58-2.08,.88-10.94,5.29-10.94,16.84,0,9.27,4.57,13.17,7.24,14.65,.96,.53,1.38,1.68,.97,2.7-.24,.59-.49,1.31-.7,2.12-.42,1.59-2.37,2.17-3.54,1.02-2.53-2.5-6.14-5.46-8.86-5.15-4.62,.53-8.4,4.36-9.62,8.46-1.05,3.53-4.47,6.59-5.38,7.35-.17,.14-.3,.3-.42,.49-.58,.97-2.26,4.19-1.63,8.55,.68,4.66,5.7,10.03,9.21,11.61,.72,.33,1.18,1.05,1.2,1.84,.06,2.89,.94,9.16,7.34,9.28,.29,0,.59,.05,.85,.18,1.13,.53,4.73,1.9,7.93-.18,.75-.64,.9-1.6,.87-2.4-.03-.86,.41-1.66,1.2-2.02,2.86-1.3,8.94-4.89,8.94-11.97,0-6.17-.65-8.34-1.08-9.11-.23-.4-.36-.84-.32-1.3,.15-1.85,.66-5.98,2.18-5.98s4.43-.9,5.58-1.29c.32-.11,.65-.14,.99-.08,2,.34,9.58,1.21,10.91-4.85,1.08-4.86,.66-8.19,.3-9.78-.15-.67,.01-1.37,.47-1.89,1.24-1.41,3.59-4.43,4-7.42,.15-1.12,1.11-1.96,2.24-1.88,1.68,.12,3.78,.48,4.46,1.54,.9,1.41,2.03-3.74,2.52-6.3,.15-.79,.73-1.43,1.51-1.64,2.29-.61,7-2.38,7.99-6.73,1.16-5.08,.8-10.65,.69-11.96-.02-.18-.05-.35-.12-.52-.28-.75-1.11-3.16-1.02-5.23,.05-1.19,1.08-2.05,2.27-1.99,.23,.01,.44,.02,.65,.01,.85,0,1.63,.47,1.96,1.26,.63,1.45,1.91,3.51,4.15,3.51,2.46,0,3.05-3.85,3.18-6.02,.05-.77,.5-1.42,1.19-1.76,.86-.41,2.18-1.35,3.95-3.48,4.2-4.32,2.61-10.25,1.78-12.5-.21-.57-.17-1.2,.11-1.74,.63-1.23,1.63-3.86,1.63-7.99Zm-68.4,111.18c-2.17,1.43-3.62,1.86-4.58,1.82-1.07-.05-1.95,.83-2.09,1.89-.34,2.54-1.22,5.32-3.48,4.48-3.56-1.29-7.2-2.48-5.4-8.74,.35-1.23-.4-2.51-1.67-2.71-3.32-.54-8.78-2.35-9.6-8.36-.99-8.13,2.7-10.68,4.61-11.45,.68-.27,1.15-.89,1.29-1.61,.54-2.84,2.22-9.37,6.26-9.27,3.93,.09,6.4,4.96,7.35,7.26,.3,.72,.96,1.21,1.73,1.3,2.31,.26,6.92,1.18,6.92,4.26,0,2.8-.8,5.29-1.31,6.59-.23,.6-.18,1.27,.15,1.82,1.45,2.45,4.9,9.4-.16,12.74Zm25.41-48.8c-.91,4.54-2.68,7.74-3.55,9.11-.31,.49-.41,1.07-.27,1.64,.55,2.23,1.67,7.99-.82,9.68-1.93,1.3-3.7,.47-4.77-.35-.69-.53-1.65-.55-2.38-.07-2.28,1.49-6.94,3.94-9.53,1.09-3.2-3.18-1.46-7.18,.03-9.45,.65-.99,.37-2.3-.64-2.93-3.12-1.96-8.71-6.44-8.28-13.18,.52-8.63,6.1-11.05,7.95-11.61,.4-.12,.75-.36,1.02-.69,1.2-1.43,4.71-5.19,8.13-4.76,4.47,.53,5,6.75,5.02,9.4,0,.73,.4,1.4,1.03,1.78,2.41,1.46,8.03,5.45,7.05,10.33Zm13.96-12.37c-.67,.26-1.16,.84-1.3,1.55-.4,2.09-1.49,6.33-3.86,7.12-2.17,.72-3.1-3.46-3.47-6.15-.15-1.1-1.14-1.9-2.25-1.81-1.78,.15-4.32,.02-5.9-1.57-2.05-2.04-.77-8.43-.09-11.2,.19-.79-.08-1.6-.7-2.12-2.42-2.03-8.08-7.73-6.61-15.47,1.46-7.74,7.01-7.7,9.26-7.34,.63,.1,1.25-.1,1.73-.51,2.91-2.53,6.07-3.33,7.89-3.57,.86-.12,1.7,.31,2.12,1.07,1.03,1.84,2.25,2.95,3.06,3.56h.01s.51,.86,.51,.86c-.85,.66-2.69,2.5-1.86,5.17,1.07,3.44,7.01,5.16,7.01,5.16,.15,.39,.24,.8,.28,1.22,.24,2.16-.75,4.57-1.52,6.07-.42,.81-.27,1.78,.36,2.44,1.1,1.16,2.58,3.43,2.69,7.28,.14,4.78-5.04,7.34-7.36,8.24Zm25.25-49.17c-.85,4.59-1.59,7.1-2.02,8.31-.21,.6-.14,1.25,.19,1.8,.87,1.45,2.32,4.45,1.17,6.84-.96,1.97-2.39,2.83-3.38,3.21-.69,.26-1.19,.86-1.33,1.59-.46,2.54-1.68,7.83-3.66,6.92-1.43-.66-1.51-2.2-1.29-3.45,.14-.82-.53-1.55-1.35-1.42-2.3,.35-5.94,.41-6.55-2.53-.64-2.98-.78-5.62-.8-6.99-.01-.62-.3-1.2-.78-1.59-2.01-1.63-7.12-6.43-6.48-12.81,.39-6.49,4.53-8.44,6.72-9.01,.78-.21,1.36-.84,1.51-1.64,.41-2.11,1.81-5.94,6.55-6.8,5.1-.92,5.95,4.42,6.07,6.94,.04,.73,.44,1.4,1.08,1.74,1.85,.98,5.33,3.58,4.35,8.89Z"/>
  <path class="cls-1" d="M420.61,58.67c-5.34-.5-9.24,3.26-11.09,5.55-.77,.96-1.96,1.43-3.18,1.36-2.36-.13-6.55,.39-10.96,4.55-4.74,4.47-4.9,10.04-4.58,12.94,.14,1.24-.33,2.45-1.25,3.28-.69,.62-1.32,1.28-1.88,1.93-3.43,3.92-5.2,9.12-4.19,14.22,0,.03,.01,.05,.02,.08,.88,4.3,4.08,7.75,8.21,9.24,10.18,3.67,13.66-2.95,14.79-6.78,.41-1.4,1.65-2.42,3.1-2.59,13.93-1.65,14.16-17.37,13.91-22.13-.05-.86,.2-1.71,.71-2.41,2.21-3.03,7.74-11.87,1.43-17.17-1.41-1.19-3.19-1.92-5.02-2.09Zm-4.75,37.36c-4.18,3.01-7.92,3.95-10.41,4.18-1.68,.16-3.12,1.33-3.44,2.99-.49,2.54-1.91,5.78-5.96,6.17-3.04,.3-5.24-1.04-6.74-2.61-2.3-2.38-3.26-5.74-2.82-9.01,.41-3.01,1.9-6.8,6.42-9.35,1.32-.74,2.07-2.21,1.88-3.71-.46-3.61-.56-10,3.77-12.85,2.69-1.77,6-1.88,8.3-1.67,1.59,.15,3.06-.74,3.75-2.18,.87-1.83,2.42-4.06,4.99-4.87,.15-.05,.3-.09,.43-.14,3.3-.95,6.85,.89,7.77,4.19,.7,2.55,.58,5.97-2.93,9.3-.91,.86-1.3,2.16-1.04,3.39,.8,3.86,1.7,12.08-3.95,16.15Z"/>
  <path class="cls-2" d="M296.81,103.96c9.51-.88,28.01-11.09,28.01-11.09,0,0,20.08-15.94,11.28-19.91-14.75-7.55-40.01,15.28-41.36,16.51,15.68-17.87,15.41-36.63,15.41-36.63,0,0,.39-6.08-11.24-2.12-11.62,3.96-18.63,33.82-18.63,33.82-1.18-4.85-4.71-10.72-7.4-14.71-2.65-3.92-6.23-7.17-10.5-9.23-3.76-1.82-7.83-2.61-9.13,1.47-3.77,20.09,13.87,34.27,13.87,34.27-23.34-7.09-27.34-4.71-27.34-4.71,0,0-10.37,7.98-3.63,16.83,6.74,8.85,27.47,6.08,27.47,6.08l-13.8,11.1s-12.35,20.75,2.32,22.19c14.67,1.46,24.22-25.37,24.22-25.37-2.47,14.45-1.77,27.1-1.77,27.1,0,0,6.52,20.13,15.86,9.44,9.35-10.68,0-43.26,0-43.26,11.81,13.72,36.82,16.94,36.82,16.94,0,0,12.16-2.99,6.35-11.79-5.81-8.82-36.82-16.92-36.82-16.92Zm15.72-23.65c9.59-5.42,15.67-6.36,19.03-6.24,2.24,.08,3.73,2.46,2.77,4.5-.74,1.61-2.23,3.76-5.02,6.5-8.63,9.13-35.81,16.95-37.91,17.55-.23-.66-.53-1.34-.93-2,5.23-1.51,11.81-8.09,11.81-8.09-2.4,.32-9.24,4.98-12.4,7.21-.43-.57-.95-1.11-1.57-1.59,1-.96,11.55-10.91,24.23-17.83Zm-29.84,14.43h0c3.36-2.12,4.96-9.79,4.96-9.79l-4.07,3.42c1.12-6.6,3.38-16.22,7.67-24.43,4.84-9.25,9.85-11.87,12.74-12.59,1.85-.46,3.63,.85,3.76,2.74,.12,1.97-.38,5.19-2.62,10.37-4.28,9.91-15.67,27.47-18.94,32.43-1-.43-2.16-.76-3.53-.92-.04,0-.07-.01-.11,0,.03-.27,.07-.69,.14-1.23Zm-18.13-5.84s-12.21-15.24-8.97-24.93c.57-1.66,2.5-2.39,4.05-1.59,13.34,6.83,20.48,31.07,21.23,33.73-1,.23-1.92,.78-2.62,1.59h-.01c-3.03-5.39-7.7-7.66-8.04-7.81,.22,.34,3.77,5.77,7.17,8.83-.41,.53-.85,1.09-1.3,1.73-5.4-4.08-11.52-11.55-11.52-11.55Zm-27.35,12.82c1.99-10.09,17.84-5.38,17.84-5.38,0,0,11.47,3.39,19.19,7-.34,.63-.68,1.31-.99,2-3.35-.09-9.45,.41-9.45,.41,3.65,1.61,8.83,.69,8.83,.69l-5.43,4.67s-26.69,7.13-30-9.39Zm18.82,42.76c-2.19,1.01-4.89,.51-6.33-1.42-5.15-6.85,10.37-21.53,10.37-21.53,0,0,4.39-5.77,11.98-10.95,.23,.43,.66,.86,1.24,1.27-1.45,1.7-3.31,4.39-3.09,6.65,0,0,3.39-1.92,5.75-5.28,.76,.31,1.58,.58,2.43,.81-2.3,5.55-11.05,25.22-22.35,30.46Zm31.27,12.6c-.95,.96-2.38,1.31-3.65,.85-2.61-.96-6.46-4.75-7.06-18.69,.03-7.82,2.74-19.99,3.88-24.72,1.07,.19,2.13,.32,3.12,.36l.77,7.13s1.43-2.85,1.45-7.19c.42-.04,.8-.12,1.13-.22,.23-.07,.46-.15,.68-.24,2.13,7.1,9.13,33.12-.31,42.71Zm26.16-30.26s-14.68-5.43-23.5-14.14c.55-.62,.96-1.32,1.27-1.99,2.59,1.38,6.08,2.65,9.18,1.93,0,0-4.73-2.15-8.62-3.47,.26-.92,.31-1.58,.31-1.58,0,0,.05-.65-.03-1.63,5.39,1.28,35.78,8.96,37.23,18.1,1.59,10.05-15.84,2.78-15.84,2.78Z"/>
  <path class="cls-8" d="M209.27,254.52s-1.23,4.05-6.11,.69c-4.88-3.36-11.09-7.05-16.64-9.86-4.11-2.08-12.3-.85-16.29-.07-1.36,.27-2.43,1.28-2.78,2.62-1.62,6.16-4.92,11.87-6.75,14.76,1.12,1.27,1.81,2.96,1.81,4.79,0,4-3.26,7.25-7.25,7.25s-7.25-3.26-7.25-7.25,3.24-7.25,7.25-7.25c.89,0,1.76,.16,2.54,.47,4.24-4.39,7.05-13.75,7.05-13.75l-15.87-.76c-1.13,2.89-3.97,4.94-7.28,4.94-4.34,0-7.85-3.51-7.85-7.85s3.51-7.85,7.85-7.85,7.85,3.51,7.85,7.85c0,.12,0,.24-.01,.36,12.09,1,32.5-1.28,32.5-1.28,0,0-14.98-8.46-24.1-18.03-9.12-9.58-16.24-12.53-16.24-12.53,0,0-5.56-2.3-11.99-2.65-6.27-.34-5.98,7.31-5.97,7.71h0c1.46,1.43,2.36,3.42,2.36,5.62,0,4.34-3.51,7.85-7.85,7.85s-7.86-3.51-7.86-7.85,3.53-7.85,7.86-7.85c.42,0,.84,.04,1.24,.11,2.28-2.74,5.19-6.82,5.19-6.82-11.26-2.2-20.71-5.66-20.71-5.66,0,0-10.04-9.5,.36-4.12,.36,.19,.74,.38,1.15,.57,11.02,5.15,35.05,9.66,35.05,9.66-22.99-21.06-30.15-32.43-30.15-32.43,0,0-.01-.12-.04-.35-.76,.23-1.57,.35-2.4,.35-4.67,0-8.47-3.8-8.47-8.47s3.8-8.46,8.47-8.46,8.46,3.78,8.46,8.46c0,2.31-.92,4.4-2.4,5.92,10.59,18.9,48.71,48.45,48.71,48.45,0,0,.19-14.8-6.88-24.18-6.9-9.16-19.27-16.38-19.83-16.69-.69,.16-1.4,.24-2.15,.24-5.25,0-9.52-4.27-9.52-9.52s4.27-9.51,9.52-9.51,9.51,4.25,9.51,9.51c0,2.76-1.16,5.23-3.03,6.94,5.85,7.94,14.93,13.48,14.93,13.48-.92-6.2-1.18-18.03-1.26-23.68-4.66-.61-8.27-4.59-8.27-9.41,0-5.25,4.27-9.51,9.52-9.51s9.51,4.25,9.51,9.51c0,4.84-3.61,8.83-8.29,9.41,1.09,22.08,8.2,44.98,8.2,44.98,3.24-1.67,8-5.84,9.94-7.59-.28-.78-.43-1.63-.43-2.53,0-4.34,3.51-7.86,7.85-7.86s7.85,3.53,7.85,7.86-3.51,7.85-7.85,7.85c-2.26,0-4.3-.96-5.73-2.5-3.53,2.17-11.01,7.4-10.51,12.01,1.3,8.9,22.62,20.67,27.45,23.22,.39,.2,.82-.11,.76-.54-.66-4.11-.2-11.16-.04-13.3-3.28-.93-5.69-3.96-5.69-7.54,0-4.34,3.51-7.85,7.85-7.85s7.86,3.51,7.86,7.85c0,3.43-2.2,6.33-5.27,7.4,.51,.43,.57,1.15-.34,2.32-2.24,2.93-1.85,9.6-1.53,12.68,.11,1,.66,1.89,1.5,2.44l10.93,7.2Z"/>
  <path class="cls-5" d="M205.28,98.22s3.61,21.78,6.34,30.23c0,0-2.82,.18-6.96-2.64v4.76s9.51,3.79,10.31,9.69,5.11,22.46,6.69,28.89c0,0-6.25,.44-9.6-2.47s2.38,3.7,2.38,3.7c0,0,6.08,1.57,7.22,2.81s10.84,22.38,12.77,33.13c0,0-5.64-.09-7.75-2.64s3.52,5.29,3.52,5.29c0,0,6.17-.57,8.1,4.43,1.94,5,7.18,14.07,7.77,18.91l-6.8-.44,.26,3,7.14,.56s9.69,13.36,11.28,18.12l-6.69-15.72s-4.39-6.02,.62-10.91,2.54-4.81,2.54-4.81l-7.31,.44s-9.16-11.54-10.84-20c-.88-5.73,6.08-10.04,6.08-10.04l-1.06-2.82s-5.2,5.9-5.99,7.22-11.49-28.38-12.22-36.38c0-4.8,4.3-7.05,4.3-7.05l-4.22,1.24c-.98,.29-2.05-.08-2.6-.94-.65-1.03-1.38-2.88-1.82-6.2,0,0-.7-6.61-3.35-15.42-2.64-8.81,.27-15.79,5.6-17.8s3.39-3.43,3.39-3.43l-6.34-3.88-1.73,.72s-.52,9.72-3.91,10.02c-2.2,0-5.02-26.15-5.02-26.15h-1.5l-.62,6.59Z"/>
  <path class="cls-10" d="M335.04,283.74c0-.16,.01-.53,.04-1.04-.07,.39-.08,.74-.04,1.04Zm0,0c0-.16,.01-.53,.04-1.04-.07,.39-.08,.74-.04,1.04Z"/>
  <path class="cls-10" d="M347.2,290.67c14.05-2.38,27.3-11.1,27.3-11.1,0,0,20.75-13.34,13.9-20.15-.65-.65-1.5-1.07-2.38-1.36-15.49-5.11-38.17,17.06-38.81,17.68,.26-.42,4.39-7.28,11.56-20.34,4.2-7.66,4.61-12.32,4.17-14.91-.31-1.9-1.74-3.38-3.62-3.82-1.67-.41-4.2-.54-7.69,.5-14.14,5.02-18.64,35.55-18.64,35.55-6.33-14.53-13.32-22.33-13.32-22.33,0,0-10.2-10.82-14.95-4.38-.78,1.07-1.15,2.36-1.28,3.67-1.82,18.19,15.02,33.2,15.02,33.2-31.44-11.02-36.33,2.65-36.33,2.65,0,0-3.17,6.08,7.66,11.89,10.85,5.82,25.38,3.17,25.38,3.17,0,0-13.87,8.32-16.65,20.44-2.77,12.1,5.17,13.39,5.17,13.39,15.07-1.19,24.3-21.4,24.3-21.4,0,0-4.5,24.18,1.58,31,6.08,6.82,12.16,2.69,12.16,2.69,0,0,3.57-3.04,5.47-12.43,1.89-9.37-5.47-31.58-5.47-31.58,0,0,15.59,13.34,32.11,15.86,16.52,2.51,13.51-7.93,13.51-7.93-3.54-12.16-40.14-19.95-40.14-19.95Zm25.62-28.85c10.31-5.28,14.36,0,14.36,0,0,0,2.3,3.53-10.56,13.05-11.79,8.71-31.03,13.51-34.17,14.25-.19-.53-.43-1.04-.73-1.5,5.96-1.39,11.72-9.05,11.72-9.05-6.39,2.71-10.7,7.28-11.95,8.71-.49-.69-1.09-1.27-1.73-1.72,1.19-.96,23.04-18.6,33.07-23.75Zm-37.75,20.88v-.05c.53-3.44,4.11-9.81,4.11-9.81-1.43,0-3.47,2.47-3.47,2.47h-.01c1.43-11.55,5.85-31.47,19.6-37.37,1.19-.51,2.59-.04,3.15,1.11,1.23,2.53,2.13,7.89-3.58,17.32-7.6,12.52-16.11,25.2-17.91,27.85-.5-.19-1.15-.38-1.92-.47-.04-.3-.03-.65,.04-1.04Zm-27.51-23.87c-3.07-8.51,.78-10.67,.78-10.67,0,0,4.23-2.55,13.3,9,9.08,11.53,11.36,24.96,11.36,24.96l-1.53,1.99c-1.7-2.92-8.86-8.19-8.86-8.19,.05,2.54,4.2,6.81,6.79,9.25-.54,.41-1.05,.89-1.51,1.43-3.69-2.74-15.98-12.82-20.34-27.77Zm-19.13,34.79c-9.51-4.4-1.23-10.05-1.23-10.05,10.27-4.78,35.32,3.61,39.35,5.01-.55,1.01-.96,2.11-1.16,3.15-5.29-.49-9.75,.65-9.75,.65,4.82,1.04,8.01,.49,9.64-.01-.12,.91-.08,1.76,.16,2.49h-.01c-19.11,5.2-27.47,3.17-37-1.23Zm23.18,34.88c-3.62,4.94-8.55,1.5-8.55,1.5,0,0-5.02-5.2,2.65-16.56,6.9-10.24,17.73-17.11,19.81-18.37,.3,.74,.81,1.32,1.58,1.67,0,0-5.54,5.24-5.01,7.89,0,0,4.44-2.9,6.39-7.23,.95,.49,1.92,.99,2.92,1.38l.3,.22s-6.88,17.69-20.08,29.5Zm32.59-3.96c.69,12.08-2.82,16.8-5.29,18.63-1.32,.97-3.05,1.12-4.5,.34-4.19-2.26-6.25-8.93-5.19-24.07,.77-11.2,3.55-16.8,5.48-19.41,.18,2.69,.65,6.5,1.92,7.6,0,0,1.31-2.16,.81-8.41,1.77,2.86,5.93,10.99,6.77,25.33Zm40.35-11.81c-.49,1.35-2.86,1.9-5.35,2.12-3.48,.3-7-.11-10.37-1.07-6.9-1.99-20.77-6.88-29.12-16.11l.62-.93c.31-.31,.58-.62,.84-.93,3.59,2.55,7.92,2.96,7.92,2.96-.82-1.53-4.81-2.96-7.37-3.74,.28-.46,.5-.9,.68-1.36l.85-1.28s26.6,5.02,39.02,15.07c0,0,3.35,2.28,2.3,5.28Z"/>
  <path class="cls-3" d="M224.91,137.07c.8-.69,1.29-1.66,1.26-2.71-.06-2.22,.04-5.91,1.24-7,1.1-.99,3.42-1.21,5-1.23,1-.01,1.91-.55,2.41-1.42,1.57-2.75,5.21-8.44,8.61-8.96,2.23-.34,3.78-.18,4.77,.06s1.92-.06,2.68-.66c1.25-.98,3.33-1.99,5.76-.61,3.68,2.08,2.12,16.15-4.35,20.11-1,.61-1.63,1.66-1.77,2.82-.36,2.97-1.51,8.34-5.12,11.03-2.97,2.2-5.58,2.7-7.27,2.73-1.24,.02-2.42,.48-3.28,1.37-1.15,1.18-3.04,2.65-5.57,3.04-3.95,.61-7.61-2.33-8.13-6.29-.26-1.96-.13-3.99,.05-5.52,.23-1.93,.98-3.76,2.22-5.25,.42-.5,.91-1.01,1.47-1.5Z"/>
  <path class="cls-3" d="M242.13,159.26c1.04-.23,1.87-.99,2.13-2.03,.8-3.16,3.63-9.28,13.57-7.29,2.18,.52,3.03,1.82,3.37,2.87,.27,.84,.87,1.52,1.7,1.8,2.27,.78,6.18,3.29,4.84,11.32-1.31,7.87-6.35,11.03-9.16,12.19-1.12,.47-1.9,1.49-2.02,2.7-.26,2.78-1.27,7.49-5.13,8.45-.92,.23-1.78,.64-2.43,1.33-1.45,1.54-4.02,3.96-5.04,2.94-1.45-1.45-12.29-14.4-12.29-14.4,0,0,1.34-.99,2.67-1.58,.98-.43,1.52-1.47,1.31-2.52-.86-4.33-1.79-13.94,6.48-15.79Z"/>
  <path class="cls-3" d="M259.76,195.98c.6,0,1.1-.46,1.14-1.06,.22-3.27,1.64-12.25,10.66-9.43,7.68,2.4,9.85,5.85,10.46,7.69,.29,.88,.69,1.72,1.27,2.44,1.27,1.58,3.25,4.63,3.07,8.24-.26,5.29-7.01,10.11-7.01,10.11l-20.77,15.39s-9.42-2.38-9.94-5.51c-.48-2.9-2.07-12.87,1.44-14.98,.52-.32,.91-.8,.97-1.41,.26-3.05,1.64-11.59,8.7-11.48Z"/>
  <path class="cls-3" d="M206.95,230.5s3.38-2.46,5.06-4.57,4.46-6.08,7.1-6.08c2.33,0,6.5,.72,9.36,2.33,.69,.39,1.51,.49,2.26,.25,2.14-.68,6.63-1.47,8.99,2.74,3.17,5.64,1.85,17.1,1.85,17.1l-3.83,3.21-18.23,.66-8.19-1.85-4.37-13.79Z"/>
  <path class="cls-9" d="M182.19,128.45c.19,2.83,1.55,8.11,9.27,6.68,.8-.15,1.61-.17,2.42-.12,3.05,.22,10.58,.16,11.84-5.5,.35-1.58,.55-3.04,.64-4.36,.4-5.68-2.73-11.16-8.08-13.12-.04-.02-.09-.03-.13-.05-1.35-.63-2.64-4.76-2.64-4.76,0,0-2.2-7.84-8.9-6.96-1.62,.23-2.53,.63-3.04,1.01-.65,.48-1.52,.55-2.28,.28-2.64-.95-7.78-2.33-10.09,.3-3.04,3.47-3.41,21.39,9.35,24.61,.93,.23,1.58,1.04,1.65,2Z"/>
  <path class="cls-3" d="M187.39,62.52c.95-.6,1.47-1.71,1.4-2.83-.27-4.52-.05-14.82,7.33-16.77,3.46-.75,5.73,2.68,6.76,4.74,.45,.9,1.26,1.56,2.23,1.82,3.12,.81,9.82,3.22,10.82,9.16,.96,5.64-.92,12.18-2.04,15.37-.37,1.05-.07,2.24,.79,2.94,1.31,1.07,2.94,3.02,2.7,6.01-.4,4.89-8.99,13.08-8.99,13.08,0,0-2.51,3.57-8.19,1.59-5.11-1.78-9.69-6.14-9.79-11.23-.02-1.1-.33-2.17-1.04-3.01-1.7-2-4.74-6.17-5.6-11.23-.3-1.78-.23-3.63,.36-5.33,.81-2.35,2.16-3.63,3.23-4.3Z"/>
  <path class="cls-3" d="M236.24,78.07c.81,.39,1.74,.32,2.53-.1,2.14-1.15,6.57-2.43,11.17,2.74,3.27,3.87,2.14,8.79,1.4,10.96-.25,.73-.25,1.51-.01,2.24,.71,2.16,1.77,6.87-1.21,9.52-3.96,3.52-7.49,5.29-7.49,5.29,0,0-1.81,1.75-4.59,1.88-1.01,.05-1.94,.53-2.58,1.32-1.08,1.31-3.26,3.13-7.28,3.67-6.52,.88-8.28-2.38-8.28-2.38,0,0-5.37-2.73-3.7-13.13,.79-3.67,2.34-5.66,3.33-6.6,.57-.54,.94-1.26,1.04-2.04,.46-3.56,2.14-13.07,7.08-14,4.54-.77,7.21-.04,8.58,.62Z"/>
  <path class="cls-3" d="M195.94,143.58c-1.05-.05-2.07-.44-2.84-1.16-2.61-2.44-9.2-7.43-15.88-2.91s-1.14,11.99,1.91,15.53c1,1.16,1.56,2.64,1.51,4.17-.14,3.73,1.05,11.07,11.78,14.07,1.18,.33,2.25,.95,3.13,1.81,2.62,2.55,8.8,7.48,14.43,4.06,4.36-2.65,5.23-5.02,5.22-6.52-.01-1.04,.48-2,1.24-2.71,1.59-1.5,3.12-4.91-1.24-12.17-2.34-3.3-4.94-4.19-6.71-4.36-1.28-.12-2.35-.96-2.83-2.16-1.14-2.84-3.87-7.35-9.73-7.65Z"/>
  <path class="cls-8" d="M105.66,196.91c0,.61-.05,1.22-.18,1.78-.41-.19-.78-.38-1.15-.57-10.4-5.38-.36,4.12-.36,4.12-1.67,2.4-4.47,3.97-7.63,3.97-5.15,0-9.31-4.16-9.31-9.31s4.16-9.32,9.31-9.32,9.32,4.17,9.32,9.32Z"/>
  <path class="cls-3" d="M214.62,187.98c.5,.81,1.27,1.41,2.2,1.6,3.7,.75,12.84,3.5,13.79,12.43,0,0,3.04,14.16-5.22,14.15s-18.77,.39-25.28-11.51c0,0-6.37,3.17-11.65-3.96-5.29-7.14-.55-11.36-.55-11.36,0,0,5.6-5.95,12.81-4,.6,.16,1.23,.19,1.83,0,2.4-.72,9.08-2.18,12.06,2.65Z"/>
  <path class="cls-10" d="M303.69,221.12c-22.18-25.72-54.8,16.21-54.8,16.21-.18-39.82-4.13-44.4-4.13-44.4,0,0-11.55-27.47-35.16-17.79-23.6,9.68-11.75,51.71-11.75,51.71-31.32-18.63-41.1-.92-41.1-.92,0,0-11.74,15.06-10.97,27.49,4.36,31.84,37.79,28.66,37.79,28.66-9.66,7.4-14.24,15.25-16.37,21.46-2.63,7.69-1.66,16.26,2.81,23.03,4.05,6.15,11.47,11.82,24.66,8.1,24.84-7.01,31.85-34.89,31.85-34.89,0,0-.15,5.85,1.85,10.97,4.27,15.94,12.17,22.25,19.56,24.35,11.89,3.4,24.14-3.67,28.2-15.34,1.05-3,1.65-6.44,1.39-10.33-1.07-15.98-16.38-34.19-16.38-34.19,19.11,1.43,27.74-6.73,27.74-6.73,0,0,32.77-26.24,14.8-47.4Zm-129.63,54.1c-12.85-.43-18.53-7.74-21.04-14.52-2.07-5.58-2.22-11.68-.78-17.45,1.66-6.71,5.36-16.94,12.71-18.77,23.77-4.85,42.17,20.57,47.07,28.16-.46,.58-.88,1.22-1.22,1.89-10.46-1.16-18.72-2.98-21.31-3.59-.25-.06-.39,.25-.2,.42,5.86,5.25,20.23,7.49,20.79,7.58h.01c.08,.74,.24,1.57,.46,2.46-5.38,4.85-18.37,14.4-36.48,13.82Zm35.81,45.45c-13.87,14.05-25.69,7.9-31.24,3.34-3.2-2.63-5.31-6.42-5.54-10.55-.81-14.87,17.88-30.44,17.88-30.44l21.26-16.86c1.18,2.58,2.86,5.23,5.16,7.47,0,0-9.45,17.97-9.77,23.8-.01,.2,.24,.3,.36,.14,1.65-2.19,8.67-11.86,11.8-21.96,1.74,1.26,3.77,2.27,6.08,2.9,.47,.14,.93,.24,1.39,.34l.05,.07s-5.28,30.39-17.44,41.75Zm20.08-80.69c-4.32-9.43-3.43-25.19-3.43-25.19-5.02,3.53-.76,26.2-.76,26.2-6.27,1.92-8.77,7.27-8.77,7.27,0,0-.31,.19-.81,.53-10.64-18.14-16.79-35.13-16.01-53.2,.5-11.48,8.91-15.56,15.13-17.01,5.16-1.2,10.63-.49,15.13,2.31,4.62,2.89,10,8.44,12.99,19.1,5.48,19.52,.92,42.74,.11,46.52-1.88-1.46-3.42-1.95-3.42-1.95,0,0-4.07-4.07-10-4.19-.05-.14-.11-.26-.18-.39Zm38.05,57.3c6.35,17.18,0,24.97,0,24.97,0,0-8.05,12.02-19.95,4.89-11.89-7.13-17.84-23.12-15.99-47.57l.3-.24c2.36-.05,4.4-.51,6.08-1.11,0,0,6.86,10.7,14.25,22.26,.23,.36,.78,.24,.83-.18,.3-2.5-.15-9.69-9.69-25.06,0,0,3.04-3.53,4.78-8.59,1.96,2.09,13.6,14.93,19.4,30.62Zm-18.34-35.05c.12-.99,.18-2.01,.14-3.07,13.14-4.83,19.62-11.93,21.28-13.97,.17-.21,0-.52-.27-.47-5.5,1.1-21.61,10.53-21.61,10.53h-.01c-.9-3.44-2.55-5.85-4.2-7.5l-.22-.69s18.76-21.41,30.51-26.69c16.13-6.88,26.43,6.08,26.43,6.08,0,0,7.27,7.66-5.94,28.15-12.52,19.38-42.88,8.82-46.1,7.62Z"/>
  <path class="cls-1" d="M349.66,236.36c-4.37-.67-8.45-.36-10.31-.14-.65,.08-1.3-.09-1.83-.48-1.82-1.36-6.62-4.35-11.85-2.74-4.23,1.3-6.09,2.86-6.89,3.82-.45,.55-1.09,.9-1.79,.98-2.75,.29-9.09,1.95-7.93,10.99,.37,2.14,.9,3.05,1.36,3.4,.64,.48,.93,1.29,.92,2.09-.04,3.02,.57,8.33,5.22,8.52,5.53,0,8.83-1.74,10.23-2.7,.55-.38,1.2-.55,1.86-.46,3.03,.43,11.85,1.45,17.57-.16,7-1.96,8.19-12.53,8.19-12.53,0,0,1.19-9.67-4.75-10.58Zm-9.12,21.29c-6.65-.56-10.7-1.95-12.86-2.96-1.12-.52-2.44-.22-3.17,.77-1.52,2.05-4.51,4.68-8.81,2.2-2.56-1.84-1.83-4.35-.8-6.11,.7-1.19,.34-2.67-.78-3.47-1.98-1.41-3.91-3.68-.18-5.8,2.49-1.28,4.33-1.23,5.52-.89,1.01,.29,2.1,.01,2.75-.81,1.18-1.48,3.35-3.44,6.72-3.68,3.66-.27,6.24,1.33,7.55,2.44,.69,.58,1.65,.73,2.5,.42,2.75-.98,8.65-2.72,12.3-1.12,.32,.14,.61,.35,.82,.62,1.46,1.92,.1,4.62-.78,6-.36,.56-.5,1.24-.37,1.9,.59,2.91,1.19,11.02-10.42,10.49Z"/>
  <circle class="cls-7" cx="35.18" cy="116.39" r="3.7"/>
  <circle class="cls-7" cx="142.48" cy="117.6" r="3.64"/>
  <circle class="cls-7" cx="154.37" cy="95.24" r="1.64"/>
  <circle class="cls-7" cx="104.42" cy="116.99" r="1.24"/>
  <circle class="cls-7" cx="109.44" cy="123.78" r="1.68"/>
  <circle class="cls-7" cx="247.88" cy="30.23" r=".77"/>
  <circle class="cls-7" cx="248.65" cy="36.84" r="1.88"/>
  <circle class="cls-7" cx="227.4" cy="7.51" r="3.75"/>
  <circle class="cls-7" cx="124.51" cy="9.36" r="1.9"/>
  <circle class="cls-7" cx="268.01" cy="14.38" r="2.24"/>
  <circle class="cls-7" cx="332.33" cy="32.08" r="1.27"/>
  <circle class="cls-7" cx="365.38" cy="3.75" r="3.75"/>
  <circle class="cls-7" cx="349.66" cy="58.63" r="3.42"/>
  <circle class="cls-7" cx="354.77" cy="69.08" r="4.23"/>
  <circle class="cls-7" cx="400.4" cy="226.06" r="4.62"/>
  <circle class="cls-7" cx="428.94" cy="207.56" r="1.92"/>
  <circle class="cls-7" cx="443.48" cy="218.26" r="1.72"/>
  <circle class="cls-7" cx="437.53" cy="223.81" r="1.39"/>
  <circle class="cls-7" cx="428.94" cy="262.79" r="3.17"/>
  <circle class="cls-7" cx="419.03" cy="332.03" r="3.93"/>
  <circle class="cls-7" cx="409.12" cy="305.6" r="1.59"/>
  <circle class="cls-7" cx="308.17" cy="358.32" r="3.57"/>
  <circle class="cls-7" cx="288.79" cy="373.34" r="1.32"/>
  <circle class="cls-7" cx="290.82" cy="382.33" r=".84"/>
  <circle class="cls-7" cx="123.98" cy="365.66" r="1.19"/>
  <circle class="cls-7" cx="120.01" cy="311.68" r="3.88"/>
  <circle class="cls-7" cx="119.04" cy="292.48" r="4.05"/>
  <circle class="cls-7" cx="82.09" cy="262.53" r=".79"/>
  <circle class="cls-7" cx="103.63" cy="249.55" r="1.14"/>
  <circle class="cls-7" cx="65.71" cy="215.09" r="1.98"/>
  <g>
    <path class="cls-6" d="M124.99,409.39c-.22-.14-.35-.34-.36-.59-.07-1.58-.85-7.48-8.05-8.86-7.12-1.35-13.56,3.19-15.28,4.52-.27,.22-.62,.22-.89,.01-1.42-1.04-6.35-4.09-15.01-3.88-6.56,.36-10.77,8.71-11.51,10.32-.08,.18-.23,.32-.42,.39-1.89,.74-3.26,.73-4.16,.53-.61-.15-.74-.97-.23-1.32,5.88-3.96,7.08-12.26,7.29-14.33,.03-.28,.22-.53,.49-.62,1.65-.57,7.4-2.96,10.04-9.5,2.42-5.98-.91-11.33-2.47-13.37-.31-.41-.12-.99,.36-1.15,3.44-1.2,5.11-5.58,5.23-5.88v-.03c.18-.61,5.32-18.71-8.32-20.53-11.49-1.53-13.47,5.28-13.8,7.66-.05,.41-.41,.69-.81,.63-1.5-.16-5.36,.07-12.48,4.52-8.25,5.16-6.55,15.41-5.96,18.02,.08,.35-.14,.7-.47,.84-13.33,5.25-10.45,16.55-9.62,19.1,.11,.3,0,.62-.26,.81-1.16,.88-4.19,3.61-3.12,8.01,1.04,5.51,9.12,7.5,12.52,8.1-1.73,5.24-3.3,11.95-4.31,20.49h0c-7.93,2.65-14.9,5.55-20.79,8.33,.04-.36,.61-5.71,3.09-10.37,1.01,.54,2.17,.84,3.4,.84,4.09,0,7.4-3.31,7.4-7.4s-3.31-7.4-7.4-7.4-7.39,3.31-7.39,7.4c0,1.89,.7,3.63,1.88,4.93-.65,1.59-3.35,8.43-4.07,13.51h0C6.89,449.43,0,454.78,0,454.78v3.04c.97-.73,1.95-1.46,2.96-2.16,0,0,10.64-1.34,21.94,1.42-.7,1.46-1.18,3.05-1.38,4.7-.11,.84-.19,1.74-.23,2.74-.3,6.81,6.29,8.81,8.14,9.24,.31,.07,.54,.26,.68,.54,.54,1.24,2.49,4.9,7.83,9.6,5.34,4.69,10.78,2.32,12.68,1.23,.42-.24,.93-.12,1.26,.24,6.63,7.96,16.88,4.86,16.88,4.86,0,0,9.78-2.81,10.75-12.41,.81-8.02-6.63-10.39-9.1-10.95-.43-.09-.76-.49-.76-.93-.03-2.46-.61-10.02-6.62-13.32-6.21-3.4-15.43-.49-17.87,.39-.38,.14-.8,.01-1.07-.28-4.35-4.75-9.23-4.58-13.07-3.19-3,1.09-5.48,3.17-7.16,5.79-4.86-1.36-11.31-2.23-19.79-1.78,14.56-9.52,32.08-16.24,47.77-20.85,0,1.72,.26,3.3,.88,4.65,2.54,5.54,9.04,4.01,10.62,3.54,.23-.07,.47,0,.66,.15,4.66,3.61,8.43,1.22,9.82,.04,.32-.27,.8-.22,1.05,.11,1.54,1.99,6.82,7.7,15.91,6.6,9.29-1.12,11.66-7.93,12.16-9.98,.08-.35,.41-.58,.76-.55,12.22,.53,20.96-6.27,24.47-14.71,3.13-7.56-3.55-12.16-5.2-13.14Zm-98.25,48.17c4.36,1.23,8.74,3.13,12.58,5.97-.16-.27-2.99-4.71-11.59-7.62,.97-1.3,2.43-2.47,4.55-3.3,7.12-2.77,11.1,2.47,12.56,5.05,.32,.57,1.11,.66,1.55,.19,1.66-1.76,5.59-4.88,12.14-4.17,9.91,1.51,9.94,11.36,9.75,14.09-.03,.42,.22,.81,.61,.99,14.74,6.28,5.52,15.34,4.59,16.21-.04,.05-.09,.08-.16,.12-9.56,6.05-16.98-2.11-19.54-5.58-.42-.57-1.27-.51-1.63,.09-.99,1.59-3.28,3.69-8.33,2.35-9-1.55-9.93-9.14-9.89-12.58,.01-.69-.68-1.15-1.32-.92-1.11,.38-2.13,.28-3.01-.01-2.01-.69-3.38-2.57-3.63-4.69-.22-1.69-.22-4.01,.78-6.2Zm13.47-53.39c-1.04-5.05,1.24-7.52,2.3-8.37,.27-.22,.35-.58,.2-.89-.81-1.76-2.89-7.37,1.73-11.35,3.75-3.21,7.87-3.3,10.14-3,.62,.08,1.05-.61,.72-1.13-1.76-2.78-4.86-8.89-2-13.76,3.66-6.25,10.7-9.67,16.22-8.93,.41,.07,.78-.18,.85-.58,.43-2.32,2.44-9.4,10.54-7.74,9.21,1.89,7.23,19.11-1.97,21.91-.54,.18-.72,.84-.32,1.24,2.31,2.32,7.5,8.59,3.62,14.78-3.28,5.23-7.87,6.65-10.55,7.02-.65,.09-.88,.9-.36,1.31,1.99,1.55,4.55,4.46,1.8,7.66-4.01,4.66-15.4,13.63-20.19,5.71-.09-.14-.22-.26-.35-.31,1.45-4.48,3.12-8.78,4.93-12.09-.24,.18-4.23,3.21-8.08,12.49-3.39,.41-8.36,.23-9.21-3.97Zm13.86,25.93c-2.63,.7-5.17,1.45-7.63,2.22,0,0,1.59-8.79,4.27-18.41,3,1.46,6.4,1.5,8.47,1.35,.65-.05,1.04,.69,.63,1.19-2.57,3.27-5.05,8.7-5.74,13.66Zm71.9-7.7c-3.47,7.86-14.98,13.2-22.79,11.89-.35-.07-.69,.11-.82,.43-.85,2.09-4.46,9.4-12.86,9.36-7.21-.05-10.82-5.39-12.22-8.21-.28-.57-1.09-.54-1.35,.04-.86,2.05-2.67,5.09-5.66,4.47-2.69-.57-4.63-3.23-5.74-5.23-.34-.61-1.23-.46-1.38,.2-.35,1.5-1.13,3.01-2.85,2.51-2.67-.77-2.81-4.94-2.78-6.23,20.3-5.67,36.81-7.79,38.56-8.02-14.16,.61-27.04,2.71-38.45,5.56,.43-4.74,2.84-15.74,15.88-12.49,.38,.09,.76-.09,.89-.45,.93-2.38,4.69-10.91,11.26-12.72,6.56-1.81,12.25,3.24,13.75,4.74,.24,.24,.59,.28,.89,.12,2.11-1.22,10.54-5.7,16.28-4.21,5.81,1.62,4.04,5.48,2.89,7.21-.27,.42-.08,.97,.41,1.12,2.59,.78,8.96,3.43,6.09,9.9Z"/>
    <path class="cls-6" d="M38.57,351.15c.69,2.27,1.81,6.9,1.11,11.26-1.15,6.73-5.27,9.73-7.44,10.86-.73,.38-1.04,1.24-.74,2.01,1.53,3.89,4.48,14.8-7.43,20.19-.47,.2-.82,.61-.93,1.11-.49,2.22-2.03,8.4-4.34,9.7-2.78,1.57-10.08,2.01-14.2-.73C1.99,413.14,0,419.15,0,419.15v-10.31c.53-2,1.12-3.96,1.78-5.86-1.59-2.04-1.78-3.82-1.78-3.82,0,0,.82,1.12,2.3,2.39,5.02-13.86,12.75-24.57,13.3-25.34-2.15,4.13-6.7,16.86-10.33,27.38,2.03,1.08,4.54,1.77,7.37,1.24,6.13-1.13,7.05-7.7,7.19-10.02,.04-.51,.31-.97,.74-1.24,2.32-1.47,9.45-6.4,9.45-11.72,0-3.69-1.73-6.21-3.17-7.69-.77-.8-.53-2.09,.47-2.57,3.62-1.72,9.95-5.61,8.91-11.41-.99-5.44-2.82-9.39-4.75-11.9-.8-1.03-.12-2.5,1.18-2.58,4-.22,9.62-1.45,9.78-6.54,.27-7.93-3.96-8.19-3.96-8.19,0,0-3.86-.42-5.46,2.17-.38,.62-1.18,.84-1.86,.62-3.7-1.22-13.95-3.63-19.3,4.67-5.07,7.86-4.74,15.98-4.31,19.34,.11,.85-.47,1.63-1.32,1.78-2.05,.32-5.43,1.2-6.23,3.51v-1.46s-.3-3.86,3.28-4.94c.7-.22,1.22-.82,1.2-1.55-.01-4.55,.72-19.54,11.14-23.7,8.66-3.48,13.9-2.61,15.6-2.15,.41,.11,.82,.07,1.19-.12,1.92-1,8.13-3.61,11.75,2.08,3.98,6.29,.74,15.36-4.73,17.99-.73,.36-1.11,1.15-.88,1.93Z"/>
    <path class="cls-6" d="M14.84,472.53c0,4.97-4.03,9-8.98,9-2.23,0-4.28-.81-5.85-2.16v-13.66c1.57-1.34,3.62-2.16,5.85-2.16,4.96,0,8.98,4.03,8.98,8.98Z"/>
    <path class="cls-6" d="M19.42,426.55c0,3.8-3.08,6.86-6.88,6.86-2.97,0-5.52-1.9-6.46-4.57-3.35,1.36-6.08,3.61-6.08,3.61v-3.17c1.43-1,3.82-1.32,5.81-1.39-.09-.43-.14-.88-.14-1.34,0-3.8,3.08-6.86,6.86-6.86s6.88,3.07,6.88,6.86Z"/>
  </g>
</svg>