<?xml version="1.0" encoding="UTF-8"?>
<svg id="Camada_1" data-name="Camada 1" xmlns="http://www.w3.org/2000/svg" viewBox="0 0 475.77 500">
  <defs>
    <style>
      .cls-1 {
        fill: #b3b0d2;
      }
    </style>
  </defs>
  <path class="cls-1" d="M252.91,486.52c-2.2-.91-4.58,.9-4.33,3.26,.43,4.21-.07,10.22-6.45,10.22h23.01s-4.86-10.44-12.23-13.48Z"/>
  <path class="cls-1" d="M415.01,48.15c13.39-5.74,21.69-5.7,25.25-5.23,1.04,.13,1.98-.64,2.03-1.7,.25-4.93,2.1-17.51,14.05-26.7,9.6-7.39,14.83-8.33,17.37-8.03,1.09,.13,2.05-.69,2.05-1.79V2.48c0-.7-.39-1.35-1.02-1.64-.89-.4-2.52-.83-5.47-.84-.11,0-.23,.01-.34,.03-21.49,3.2-32.57,27.55-34.96,33.43-.29,.73-1.02,1.2-1.8,1.13-3.66-.29-14.44-.24-25.53,8.5-11.84,9.36-11.4,28.35-11.07,33.18,.04,.68-.3,1.31-.89,1.66-3.38,1.98-14.43,9.84-14.42,28.27,.45,18.42,6.92,26.7,11.07,30.13-7.39,11.07-15.36,24.57-23.43,41.09-2.89-2.14-6.54-5.98-10.56-10.79,2.77-1.66,11.16-8.34,12.81-28.99,1.43-24.48-9.5-29.65-13.52-30.72-.82-.23-1.36-.98-1.3-1.84,.45-6.19,1.48-29.11-7.61-38.02-8.59-9.39-14.3-10.83-16.8-10.91-.83-.03-1.53-.6-1.69-1.42-1.02-5.28-5.89-22.16-26.34-20.73-.06,.01-.14,.01-.2,.03-27.79,3.99-25.12,27.04-23.59,34.21,.23,1.09-.62,2.13-1.74,2.13h-3.32c-.62,0-1.22-.3-1.55-.82-.92-1.48-3.84-4.45-12.51-4.45-11.26,0-25.36,6.81-28.69,26.86-.14,.84-.83,1.48-1.67,1.51-4.91,.18-20.66,1.9-22.26,16.48-1.21,10.9-.89,16.38-.49,18.95,.15,1.02-.57,1.95-1.6,2.05-3.21,.3-9.11,1.9-10.38,9.49-1.65,9.91-.2,27.41,10.67,33.28-5.37,9.7-11.23,21.3-17.48,35.18-10.64-22.96-19.21-43.68-25.8-60.82,2.96,.7,6.49,.34,10.4-2.5,6.27-4.48,6.42-11.29,6.25-13.65-.04-.52,.25-.99,.72-1.21,3.46-1.59,16.92-8.63,19.41-23.17,2.44-14.18-7.18-21.4-10.14-23.25-.49-.3-.7-.88-.53-1.43,1.81-5.64,10.43-35.11-4.05-47.22-16.29-13.54-31.67-1.18-36.36,3.33-.67,.64-1.76,.36-2.05-.52-2.47-7.78-13.03-34.51-37.45-17.11-21.95,15.58-7.3,41.84-4.42,46.55,.28,.45,.21,1.01-.11,1.42-7.55,9.46-3.67,18.9-1.47,22.76,.45,.82-.11,1.8-1.06,1.85-3.25,.16-5.4,.89-6.73,1.57-.78,.4-1.74-.15-1.8-1.03-.23-3.35-1.65-9.76-8.59-14.86-10.15-7.08-26.5-2.14-30.52-.75-.54,.18-1.12-.03-1.42-.5-1.85-2.82-8.79-11.75-22.14-10.83-22.16,2.11-19.59,20.46-18.53,25.25,.14,.6-.2,1.21-.78,1.42-3.15,1.16-12.08,6.89-10.81,34.67,0,18.31,24.86,22.92,29.58,23.64,.47,.06,.84,.39,.99,.84,1.43,4.47,10.08,27.72,34.72,27.72,12.42,0,18.97-6.91,21.46-10.32,.52-.73,1.62-.7,2.08,.08,1.56,2.7,5.57,7.3,14.72,7.3,10.69,0,16-7.93,17.55-10.71,.29-.53,.89-.77,1.47-.59,2.82,.84,10.93,2.04,14.53-10.87,5.32,2.6,11.06,5.31,17.26,8.14,3.4,1.55,6.15,4.24,7.76,7.6,3.48,7.22,10.04,21,16.59,35.11-4.6,.03-10.13-2.72-10.13-2.72,.08-.64,.11-1.28,.11-1.94,0-9.55-7.75-17.29-17.3-17.29s-17.3,7.74-17.3,17.29,7.75,17.3,17.3,17.3c6.42,0,12.01-3.49,15-8.68,6.18,2.38,14.77,1.36,14.77,1.36,4.13,9,11.69,25.34,24.11,48.34,0,0-24.18-.48-35.57-5.38-.14-8.37-6.97-15.11-15.37-15.11s-15.39,6.89-15.39,15.39,6.88,15.4,15.39,15.4c5.67,0,10.63-3.07,13.3-7.65l.19,.18s38.07,3.79,40.22,2.25c9.46,17.26,21.49,37.94,36.65,61.81,0,0-8.82-1.03-21.01-2.29-.53-.39-.99-.68-1.32-.88-.3-.18-.45-.52-.39-.87,.24-1.55,.33-6.23-4.98-14.37-15.51-22.17-40.62-13.86-44.73-12.33-.34,.13-.72,.03-.96-.25-2.45-2.99-16.02-18.82-27.97-18.42-11.05,.36-15,9.84-15.99,12.91-.16,.49-.7,.72-1.17,.5-2.33-1.03-9.07-3.51-18.9-2.64-8.76,.78-10.28,6.11-10.43,9.13-.04,.67-.78,1.11-1.33,.73-1.23-.82-2.74-1.17-4.28-1.21-6-.18-11.17,4.16-12.58,10-1.09,4.54-1.76,11.31-.6,20.96,.88,7.28,4,14.22,9.22,19.37,14.02,13.86,35.2,9.86,39.93,8.74,.5-.11,.98,.23,1.04,.74,.54,4.54,4.34,23.34,30.03,24.31,19.01,1.04,23.79-9.59,24.94-13.86,.18-.67,1.02-.84,1.47-.34,2.7,3.03,10.17,9.44,21.53,4.09,12.72-5.98,12.15-20.88,11.81-24.5-.04-.44,.26-.82,.69-.91,1.52-.33,5.03-1.47,8.11-5.54,.04-.04,.06-.09,.09-.13,1.7-2.89,2.11-5.41,1.8-7.56,6.13,.2,12.66,.28,19.58,.23,10.84,16.88,23.2,35.29,37.27,55.12-2.84,.99-14.73-.11-22.81-1.03,.26-1.31,.4-2.65,.4-4.04,0-11.17-9.06-20.23-20.22-20.23-11.93,0-21.44,10.32-20.1,22.51,1.02,9.28,8.5,16.8,17.79,17.83,8.96,.99,16.92-3.89,20.51-11.29l28.6,2.1h.01c16.17,22.61,34.52,47,55.28,73.07-9.75-3.4-19.1-5.96-27.68-7.89-.43-5.16-3.01-15.2-14.61-28.84-18.61-22.05-34.64-12.97-39.56-9.22-.82,.62-1.96,.43-2.53-.42-2.3-3.48-9.21-10.95-25.64-9.93-22.97,1.79-27.48,17.4-28.36,23.28-.16,1.11-1.3,1.77-2.34,1.38-14.46-5.42-23.43-2.34-28.55,1.51-3.61,2.72-6.05,6.69-7.12,11.07-1.52,6.27-3.17,18.53,2.83,30.7,6.62,13.41,19.66,14.63,25.26,14.49,1.13-.03,1.94,1.02,1.74,2.15-.48,2.72,1.6,4.08,2.5,4.53,.24,.11,.5,.18,.77,.18h2.26c1.37,0,2.24-1.52,1.48-2.68-1.13-1.75-2.06-4.33-1.23-7.61,.25-.97-.38-1.95-1.37-2.14-6.91-1.27-29.44-7.02-29.44-28.04,0-24.85,22.43-20.02,22.43-20.02,0,0,5.51,.47,15.07,8.87,1.21,1.06,3.09,.08,2.91-1.52-1.11-8.93-.39-26.63,21.59-30.21,13.17-2.28,20.94,9.47,23.8,14.98,.59,1.14,2.18,1.27,2.96,.24,3.5-4.64,12.2-13.63,23.59-7.1,14.96,8.58,19.14,20.46,19.14,20.46,0,0,2.54,7.06,2.37,11.83-13.91-2.57-25.05-3.42-31.47-3.71-1.4-.06-1.82,1.86-.54,2.4,10.81,4.53,25.28,8.32,38.61,11.22,3.75,3.26,6.5,7.99,4,14.32-6.97,15.95-19.84,4.89-25.34-.97-.99-1.06-2.78-.5-2.99,.94-1.01,6.49-4.44,18.73-16.08,18.73h15.6c2.82,0,3.84-3.04,4.2-5.41,.19-1.22,1.51-1.89,2.58-1.28,4.82,2.65,15.95,7.26,24-1.47,6.88-7.45,3.67-17.42,.59-23.46,16.49,3.36,29.8,5.21,29.8,5.21,6.93,8.63,14.13,17.44,21.6,26.42h7.37s-8.14-7.5-2.43-22.89c1.86-4.99,6.05-14.9,10.87-25.98,2.99,4.55,9.7,10.61,22.77,5.75,11.02-4.81,11.7-17.79,11.55-22.6-.03-.94,.75-1.69,1.7-1.61,6.96,.63,31.79,1.33,35.57-19.99,1.86-10.28-1.79-15.36-4.08-17.46-.72-.67-.69-1.81,.09-2.39,4.29-3.16,14.9-12.81,13.66-30.06-2.43-22.18-22.72-20.34-28.84-19.27-.91,.16-1.75-.52-1.81-1.43-.38-5.32-2.57-20.58-15.08-20.41-14.98,.23-46.89,14.8-43.04,59.37,.08,.91-.6,1.7-1.51,1.71-5.02,.1-19.84,1.84-23.83,18.73-4.55,19.26,15.85,49.83,28.52,46.51-4.05,10.37-8.63,22.97-13.79,38.28,0,0-36.5-39.95-44.2-56.21-1.55-3.17-1.35-31.93,2.81-70.95l24.9-20.08,.19-.78c3.42,3.03,7.93,4.88,12.86,4.88,10.98,0,19.84-9.15,19.32-20.26-.44-9.86-8.56-17.98-18.42-18.42-11.11-.52-20.26,8.34-20.26,19.32,0,4.23,1.36,8.14,3.65,11.32l-21.49,17.24c3.04-26.53,7.9-57.16,15.16-87.46h.01c9.35-1.81,26.91-6.39,44.42-11.16-1.76,4.44-2.89,11.54,6.01,14.2,.69,.21,1.21,.79,1.32,1.52,.67,4.09,4.28,17.26,23.46,17.26,17.58,0,24.62-8.86,26.92-12.87,.54-.94,1.75-1.25,2.67-.65,3.18,2.05,10.95,5.84,24.77,5.79,1.06-.01,1.92-.86,1.92-1.92v-3.61c0-1.06-.86-1.91-1.91-1.91-4.97,.01-18.44-.91-25.98-10.72-.87-1.12-2.6-.96-3.22,.31-2.96,6.01-10.93,18.44-26.21,17.66-14.82-.75-15.66-11.65-15.1-17.3,.14-1.4-1.23-2.45-2.54-1.98-2.99,1.09-7.08,1.92-7.27-1.69-.14-2.73,1.16-4.76,2.55-6.13,22.7-6.28,43.32-12.27,43.32-12.27-8.3-1.2-24.41,1.82-40.99,5.96-1.07-7.31-1.36-22.62,12.71-30.8,8.96-4.93,19.7,1.77,24.28,5.21,1.07,.81,2.6,.3,2.98-.97,2.35-7.9,11.07-29.7,35.4-28.7,1.08,.04,1.98-.83,1.98-1.91v-3.98c0-.89-.62-1.67-1.48-1.86-5.67-1.23-26.36-3.54-41.74,23.82-.44,.77-1.32,1.16-2.16,.93-4.83-1.3-20.86-4.57-30.97,5.55-9.75,9.74-9.47,28.14-9.02,34.77-23.31,6.22-45.22,13.65-45.22,13.65,5.75-23.28,12.95-46.25,21.89-66.91l32.26-9.76c3.98,7.03,11.54,11.79,20.21,11.79,12.81,0,23.2-10.38,23.2-23.19s-10.39-23.2-23.2-23.2-23.2,10.38-23.2,23.2c0,1.64,.18,3.25,.49,4.79l-27.33,10.91c4.79-10.47,10.06-20.26,15.84-29.11,4.05-5.85,7.71-11.78,11.15-17.63,2.25,3.61,6.97,8.42,15.46,5.96,7-2.18,7.95-8.42,7.9-11.89-.01-1.17,1.09-2.01,2.23-1.74,5.46,1.3,18.96,3.47,28.57-3.74,9.22-6.93,9.31-18.54,8.78-23.93-.13-1.26,1.03-2.25,2.25-1.91,4.78,1.31,10.05,.78,12.58,.39,.88-.14,1.52-.89,1.52-1.79v-2.23c0-1.12-.99-1.98-2.09-1.79-3.99,.67-12.98,1.59-20.76-1.9-1.35-.6-2.79,.64-2.45,2.08,1.81,7.78,3.76,24.12-11.06,27.11-13.06,2.64-20.34,.68-23.74-.92-1.13-.53-2.45,.24-2.54,1.5-.34,4.89-1.64,14.04-6.48,13.71-3.41-.23-5.35-2.93-6.43-5.47,7.93-14.04,14.77-27.48,22.55-38.7,.15-.23-.15-.47-.33-.26-5.85,7.06-15.46,17.41-26.82,33.57-4.08-1.69-10.32-7.16-9.41-24.96,1.02-20.29,13.69-22.47,19.32-22.42,1.23,.01,2.09-1.21,1.69-2.38-2.35-6.92-7.16-25.74,7.8-32.16ZM131.67,153.39c-.73,2.31-7.91,10.33-12.64-.11-.49-1.07-2.05-.97-2.35,.16-1.81,6.96-6.42,19.68-15.05,14.47-7.11-4.29-9.45-13.39-10.19-19.83-.14-1.31-1.95-1.55-2.4-.3-4.27,11.8-15.34,33.6-36.15,21.35-13.86-8.42-14.54-19.63-14.34-23.34,.04-.69-.48-1.27-1.17-1.31-5.99-.36-30.76-3.23-30.37-26.04,.88-14.93,9.31-16.42,13.63-16.19,.97,.05,1.61-1.01,1.13-1.85-3.08-5.47-9.23-19.7,5.33-26.75,.09-.04,.19-.08,.28-.1,9.67-2.65,19.94,10.33,22.44,13.74,.35,.47,.96,.63,1.48,.4,4.3-1.81,22.61-8.87,29.58,.21,5.71,7.44,6.54,14.69,6.55,18.17,.01,.92,.96,1.51,1.79,1.11,6.49-3.18,27.9-11.85,35.63,8.33,5.65,14.73,4.33,21.75,2.48,24.97-20.07-10.76-44.45-23.68-53.34-27.8-.97-.45-1.91,.72-1.25,1.56,4.23,5.35,17.68,18.27,58.98,38.96-.01,.06-.04,.13-.05,.19Zm2.15-9.42c.01-.09,.04-.18,.08-.26,.36-.89,.35-2.23,.23-3.46-.11-1.02,.97-1.74,1.84-1.22,5.21,3.04,12.77,2.92,15.93,2.72,1.5,4.47,3.22,9.39,5.22,14.81,0,0-10.04-5.46-23.29-12.58Zm25.67-3.33c-7.6-20.26-12.09-34.46-13.75-39.89-.36-1.21-2.13-1.17-2.4,.06-.79,3.55-.45,12.12,5.94,32.8-5.15,1.38-12.9,2.1-15.03-5.2-1.6-5.9-1.45-14.9-1.36-17.64,.03-.5-.26-.96-.72-1.17-4.16-1.91-24.18-11.78-24.96-25.16-.59-10.13,4.25-13.39,7.44-14.44,.94-.31,1.2-1.51,.43-2.14-3.84-3.17-11.17-11.07-9.91-24.36,.79-8.28,5.31-15.88,12.58-19.92,16.38-9.08,20.91,13.36,20.91,13.36,0,0,3.17,16.93,6.59,13.85,0,0,10.86-10.86,21.82-13.47,6.87-1.65,13.78,2.65,15.63,9.46,6.01,22.22-4.35,36.26-8.43,40.73-.63,.69-.29,1.8,.62,2.04,5.6,1.45,19.89,6.32,15.44,17.54-5.76,14.86-15.3,16.25-18.95,16.2-.77-.01-1.36,.65-1.25,1.41,.63,4.44,1.76,17.1-5.52,18.22-1.76,.44-3.52-.64-5.1-2.28Zm61.6,195.76c-2.97,5.11-11.74,.21-15.95-2.55-.69-.47-1.56,.24-1.27,1.02,2.92,7.93,9.98,30.95-6.96,29.68-9.23-.91-12.12-9.02-13.01-13.98-.15-.87-1.33-.98-1.65-.16-3.17,8.44-12.47,27.9-28.66,20.08-16.92-8.2-19.69-19.85-20.14-23.63-.08-.58-.68-.92-1.21-.67-5.86,2.77-33.09,14.04-43.48-9.94-.01-.04-.04-.08-.06-.11-.82-1.22-15.93-24.06,3.11-29.2,3.98-.83,7.18,1.79,8.92,3.69,.52,.57,1.45,.25,1.5-.52,.31-4.98,1.85-16.19,9.37-16.36,7.32-.18,13.63,6.34,16.27,9.52,.48,.57,1.4,.33,1.51-.42,.69-4.37,3.84-14,18.28-14.17,15.71-.19,21.49,15.83,22.92,20.94,.18,.64,.99,.84,1.45,.35,3.79-4.04,17.1-16.36,29.94-5.01,9.7,8.58,12.07,15.36,12.52,19.14-21.88-2.11-49.18-4.29-58.68-3.02-.77,.1-.86,1.17-.13,1.41,6.84,2.2,28.38,8.17,66.14,9.96,.31,1.09,.16,2.39-.73,3.94Zm139.61,65.74c3.6-14.14,21.02-13.12,27.12-12.3,1.04,.14,1.9-.78,1.74-1.82-6.97-42.21,16.04-57.76,31.38-57.76,12.43,0,11.2,17.84,10.18,25.11-.16,1.23,1.11,2.16,2.23,1.61,6.54-3.16,22.89-9.64,27.11,2.14,.04,.1,.08,.23,.09,.33,3.43,19.92-13.35,29.58-22.52,33.3-1.38,.57-1.26,2.57,.19,2.94,13.01,3.46,13.89,12.97,13.95,14.67,0,.18-.01,.34-.06,.5-4.43,15.78-30.43,12.8-38.99,11.37-1.17-.2-2.11,.93-1.72,2.05,1.95,5.59,5.41,18.73-2.98,24.03-9.6,6.59-14.76-.67-16.93-5.47,7.22-16.46,14.87-33.5,17.83-40.07,.5-1.11-.86-2.09-1.76-1.28-3.48,3.13-10.2,12.4-21.26,39.57-11.8,1.62-29.5-23.51-25.58-38.91ZM286.88,78c1.17-.2,1.81-1.45,1.31-2.5-3.31-6.96-11.46-28.33,10.79-32.99,19.74-4.82,20.31,14.28,19.88,21.26-.08,1.18,1.02,2.1,2.16,1.82,4.86-1.14,15.63-2.78,19,4.18,7.36,12.27,4.05,32.33,2.77,38.55-.2,1.01,.48,1.98,1.5,2.1,5.4,.72,20.32,3.71,20.07,14.76-.26,12.57-2.33,28.95-11.15,36.33-15.15-19.31-33.6-48.44-38.39-56.07-.68-1.07-2.05-1.45-3.18-.88-1.13,.57-1.66,1.9-1.2,3.08,5.94,15.07,26.53,41.24,40.78,58.3-.23,4.55-1.96,13.02-11.49,14.93-5.11,1.07-6.18-3.26-6.3-6.48-.05-1.3-1.47-2.08-2.62-1.46-3.84,2.1-11.17,4.97-18.63,1.76-9.23-4.38-4.96-14.05-2.23-18.61,.67-1.12-.09-2.55-1.38-2.67-6.74-.55-22.57-2.81-24.6-11.54-1.92-8.32,6.08-16.47,10.27-20.07,1.01-.87,.73-2.49-.5-2.98-6.45-2.57-21.51-9.9-23.79-22.97-2.31-13.26,11.25-16.92,16.93-17.87Zm-88.16,69.6c3.46-9.71,11.69-12.78,15.41-13.7,.99-.25,1.56-1.27,1.27-2.25-1.71-5.6-5.74-22.04,4.43-26.41,8.15-3.5,14.41-3.67,17.69-3.41,1.18,.1,2.13-.99,1.85-2.15-1.21-5.18-2.53-16.96,8.01-23.45,9.85-6.09,15.81-4.82,18.41-3.6,.88,.42,1.25,1.48,.82,2.35-1.86,3.84-6.53,14.88-3.69,24.39,2.94,9.8,12.43,20.21,15.47,23.38,.54,.57,.65,1.41,.26,2.1-1.38,2.42-4.43,8.34-4.91,14.23-.44,5.26-4.3,9.75-9.56,10.2-5.06,.43-10.51-1.82-13.59-3.37-1.13-.58-2.48,.19-2.55,1.47-.44,7.47-3.37,26.62-22.27,20.18-.74-.25-1.56-.01-2.04,.62-1.96,2.68-7.3,9.13-10.37,5.35,9.64-16.93,20.37-33.78,25.83-42.21,.75-1.17-.75-2.45-1.8-1.53-5.66,5.01-15.47,15.74-28.26,37.66-4.64-2.91-13.88-10.14-10.43-19.84Zm160.72,48.26c-16.77,38.91-27.77,80.07-33.3,122.07-.16,1.25-.33,2.49-.48,3.72-6.04-9.3-11.44-17.56-16.27-24.9,.14-.14,.28-.28,.43-.39,3.35-2.65,12.59-11.02,11.15-21.39-.88-6.3-2.28-9.16-3.46-10.44-1.06-1.14-1.27-2.83-.68-4.26,2.23-5.42,6.04-16.64,4.33-26.4-.03-.16-.06-.31-.1-.47-4.57-17.51-18.23-22.02-23.93-23.15-1.52-.3-2.72-1.46-3.06-2.97-1.9-8.32-9.52-33.57-32.32-32.57-22.62,.97-26.27,22.73-26.86,30.12-.11,1.43-.99,2.67-2.31,3.26-6.44,2.91-23.87,14.2-8.06,47.23,6.79,13.58,15.4,17.21,20.68,18.08,2.29,.38,3.7,2.72,3.07,4.96-2.1,7.46-3.51,21.4,12.9,26.61,10.05,3.13,15.89,1.5,19.05-.47,1.77-1.11,4.1-.57,5.25,1.17,1.94,2.96,5.47,6.19,11.47,5.36,5.95-.83,8.91-5.1,10.37-8.67,9.62,14.76,17.5,26.34,17.5,26.34-5.88,49.29-6.76,91.38-6.76,91.38,0,0-88.22-109.2-123.7-199.35-2.52-5.42,5.52-22.87,15.75-41.37,1.61,1.76,4.35,3.31,9.01,3.16,5.62,0,7.11-3.46,7.5-5.54,.16-.87,.96-1.45,1.84-1.4,3.84,.2,13.26-.05,19.1-6.45,5.17-5.35,6.57-8.67,6.82-10.53,.14-.97,.97-1.67,1.94-1.57,3.72,.36,11.6,.21,18.32-6.13,.78-.74,2.03-.67,2.65,.2,2.54,3.5,9.27,10.77,20.13,8.52,1.14-.23,2.2,.63,2.16,1.79-.19,6.06,.53,21.56,12.91,21.79,8.93,.01,12.73-.69,14.34-1.31,.77-.29,1.62-.03,2.09,.65,1.82,2.67,6.54,7.65,15.24,4.91,7.78-2.45,10.66-10.81,11.71-16.02,5.72,6.74,9.6,11.08,9.6,11.08-2,4.24-4,8.68-6,13.32Zm-56.04,100.5c-.08,3.66-1.47,7.75-7.06,8.52-5.37,.93-6.53-5.38-6.66-10.17-.05-1.79-2.1-2.76-3.5-1.64-5.3,4.28-15.61,10.23-26.21,3.31-11.49-7.52-5.99-19.87-2.58-25.49,.78-1.3-.04-2.97-1.55-3.11-8.32-.75-28.5-5.15-31.05-29.74-2.64-23.77,12.4-23.55,17.95-22.7,.93,.15,1.71-.68,1.52-1.6-1.37-6.88-4.16-29.14,16.87-31.11,20.24-1.91,24.04,24.22,24.76,34.11,.14,2.03,1.8,3.6,3.84,3.62,7.99,.09,26.04,1.95,23.3,17.09-2.26,12.4-4.28,20.6-5.44,24.87-.5,1.85,.43,3.8,2.19,4.57,2.92,1.3,6.58,4.04,5.3,9.55-1.56,7.59-6.61,11.17-9.81,12.73-.23,.11-.44,.24-.64,.4-19.64-29.62-28.4-41.68-30.77-44.89-.13-.19-.42-.04-.34,.18,3.22,9.2,17.29,31.99,29.87,51.49Z"/>
</svg>