<?xml version="1.0" encoding="UTF-8"?>
<svg id="Layer_1" data-name="Layer 1" xmlns="http://www.w3.org/2000/svg" viewBox="0 0 482.04 313.68">
  <defs>
    <style>
      .cls-1 {
        fill: #dcdafe;
      }
    </style>
  </defs>
  <path class="cls-1" d="M481.73,163.52c-1.02-6.11-3.15-9.43-4.2-10.76-.43-.54-.71-1.16-.88-1.85-.99-4-5.17-17.44-17.44-20.16-9.91-2.22-18.63-.2-23.14,1.31-1.9,.62-3.95-.14-5-1.85-3.89-6.45-14.03-20.53-27.15-18.8-13.21,1.73-20.33,12.52-22.86,17.18-.68,1.31-1.93,2.16-3.38,2.36-4.43,.6-13.77,3.04-16.13,12.78-.34,1.45-1.28,2.67-2.58,3.38-3.63,1.9-10.28,6.73-8.75,15.85-10.73,1.31-18.94,2.81-22.41,3.46-8.89-8.07-17.83-15.73-26.67-22.92,5.57,.26,13.04-.68,19.28-1.7,1.11,7.01,7.16,12.35,14.48,12.35,8.12,0,14.68-6.59,14.68-14.71s-6.56-14.68-14.68-14.68c-7.61,0-13.86,5.74-14.63,13.15-11.53-.43-25.16,.77-25.16,.77-17.24-13.69-33.97-25.62-49.16-35.7,4.71-1.05,13.86-3.1,24.68-5.65,.51,.4,.88,.97,1.02,1.65,1.19,5.68,5.25,17.15,18.57,18.09,11.56,.8,16.7-2.61,18.89-5.11,1.05-1.16,2.81-1.31,4.12-.48,4.88,3.12,15.82,7.98,26.3-1.9,1.25-1.16,3.04-1.51,4.63-.85,4.71,1.99,15.11,5.14,24.59-.17,6.56-3.69,9.8-11.39,8.49-18.8l-.03-.26c-.34-1.9,.82-3.81,2.73-4.23,5.14-1.11,13.94-5.11,15.87-19.6,.68-4.91-1.25-9.46-4.26-13.43-12.38-16.3-35.47-21.04-52.91-10.31-2.13,1.31-4.29,2.87-6.39,4.74-1.28,1.08-3.12,1.14-4.49,.2-5.34-3.69-18.69-11.56-29.93-6.93-10.34,4.23-13.18,14.17-13.97,19.48-.26,1.87-1.82,3.29-3.75,3.32-5.2,.11-14.82,1.79-18,12.15-.28,.91-.77,1.73-1.45,2.39-2.19,2.02-6.56,7.3-2.1,13.94,.71,1.05,1.42,1.9,2.16,2.61-9.17,1.45-17.38,2.9-22.38,4.17-15.73-10.2-29.48-18.23-39.82-23.97,6.93-2.87,17.58-10.25,24.62-15.42,1.73,6.19,7.41,10.71,14.11,10.71,8.12,0,14.71-6.59,14.71-14.68s-6.59-14.71-14.71-14.71-14.68,6.59-14.68,14.71c0,.34,0,.65,.06,.99-12.89,5.11-29.93,15.19-29.93,15.19-9.23-5-14.6-7.55-14.6-7.55,0,0-28.77-12.3-66.34-23.34,5.54-2.36,12.52-5.62,19.85-9.23,.57,3.27,4.77,19.51,31.01,17.49,11.53-.82,12.1-9.17,12.1-9.17,0,0,12.1,9.88,27.09,2.24,14.99-7.64,13.4-29.45,13.4-29.45,0,0,7.27-3.07,10.25-11.81h-11.05c-2.19,7.21-8.29,9.46-8.29,9.46,0,0,4.43,15.82-6.13,23.88-10.56,8.07-28.23,0-28.23,0,0,0-2.16,10.14-13.29,11.53-11.02,1.33-18.63-10.59-21.75-16.7,19.17-9.54,38.68-20.02,38.68-20.02-9,1.76-28.31,9.94-44.53,17.24l-.03,.03c-2.95,.06-6.42-.71-6.82-4.71-.74-7.16,14.03-12.64,14.03-12.64,0,0-5.68-2.33-6.56-8.07h-10.82c.48,2.56,1.48,5.28,3.32,8.07,0,0-9.57,8.18-4.29,17.49,.91,1.59,1.85,2.78,2.75,3.64-10.48,4.86-18.18,8.6-18.18,8.6-16.24-4.54-33.79-8.72-51.2-11.47,2.61-3.86,9.26-8.32,9.26-8.32,2.07,3.21,5.68,5.31,9.77,5.31,6.45,0,11.67-5.23,11.67-11.67S78.58,0,72.13,0s-11.67,5.23-11.67,11.64c0,.51,.03,.99,.09,1.48-8.21,4.86-13.8,12.27-13.8,12.27-14.57-2.02-28.91-2.98-42.12-2.24,0,0-4.63-.37-4.63,1.85,0,2.78,1.85,2.78,1.85,2.78,0,0,20.82-.91,55.63,5.42,0,0,11.33,11.27,25.08,34.05-13.69,7.24-11.1,19.74-9.77,23.91,.34,1.05,.34,2.19,.11,3.27-2.7,12.95,1.25,20.62,4,24.14,1.08,1.39,.88,3.32-.31,4.6-2.73,2.9-6.53,8.89-5.68,19.11,1.19,17.44,17.98,23.86,24.76,25.76,1.7,.48,3.21,1.53,4.09,3.07,10.88,18.43,34.14,14.85,34.14,14.85,0,0,11.84-.2,16.47-16.67,3.29-11.81-3.81-20.84-8.12-25.05-1.25-1.22-.91-3.24,.65-4.03,4.88-2.53,12.75-8.72,10.82-22.04-2.16-14.82-16.58-18.57-22.95-19.51-1.65-.26-2.87-1.7-2.81-3.38,.37-14.63-6.22-21.95-6.22-21.95,0,0-13.46-14.77-33.37-8.49-8.49-15.65-16.93-28.85-16.93-28.85,26.04,5.65,58.19,15.14,94.28,31.01l.03,.03c.54,.54,9.4,9.74,19.51,31.55-5.59-1.96-14.03-3.24-18.4,4.49-5.03,8.83-1.31,16.64,1.16,20.31,.94,1.42,1.11,3.21,.45,4.77-2.13,5.11-5.54,17.01,2.3,29.22,.99,1.53,1.22,3.46,.65,5.23-2.87,8.63-9.63,34.9,9.03,48.39,7.81,4.88,13.52,6.25,16.73,6.56,1.9,.17,3.61,1.16,4.83,2.67,3.81,4.71,13.52,12.98,29.28,1.31,2.44-1.82,4.6-4.12,5.99-6.84,5.94-11.84-1.99-26.27-5.79-32.12-.94-1.42-.51-3.27,.91-4.15,4.23-2.67,11.79-9.26,11.39-22.26-.43-13.75-10.79-21.27-15.73-24.08-1.51-.85-2.39-2.47-2.3-4.17,.43-7.92-1.31-29.28-32.89-26.95-.2,.03-.43,.03-.62,.03h-.03c-3.95-10.25-8.66-20.13-14.11-28.31v-.03c22.69,10.68,46.77,23.86,71.76,40.16,0,0,.03,.03,.06,.06,.82,.82,13.23,13.18,17.61,30.47-3.72,2.64-6.13,7.01-6.13,11.93,0,8.09,6.59,14.68,14.71,14.68s14.68-6.59,14.68-14.68-6.59-14.71-14.68-14.71c-2.7,0-5.25,.74-7.41,2.02-.06-5-.51-12.27-2.44-18.66,10.11,7.01,20.33,14.6,30.64,22.72,.2,.88,2.67,11.59,4.66,27.92-10-.48-13.01,6.99-13.92,11.73-.43,2.22-1.62,4.23-3.35,5.71-2.22,1.87-4.86,5.25-4.69,10.51,.11,3.24-1.36,6.28-3.92,8.26-5.25,4.12-12.89,12.15-12.55,24.03,.31,12.3,7.13,20.99,11.44,25.28,2.07,2.07,3.1,4.91,2.9,7.81-.68,10.68,1.19,36.27,33.65,44.98,0,0,9.46,4.17,17.78-5.82,2.16-2.81,2.64-5.68,2.41-8.12-.31-3.49,1.28-6.84,4.32-8.6,3.69-2.16,7.58-6.59,7.72-15.79,.17-10.96-5.99-20.53-10.73-26.27-2.64-3.15-2.9-7.58-.82-11.16,1.76-3.01,3.35-7.33,3.49-13.12,.17-7.89-3.81-13.04-6.99-15.9-2.19-1.93-3.46-4.66-3.44-7.55,.09-7.27-2.04-20.67-18.06-25.05-.34-8.07-1.14-16.02-2.67-23.06,12.52,10.11,25.19,21.04,37.91,32.89-.62,.8-1.05,1.76-1.19,2.84-.62,4.88,.2,8.26,1.05,10.31,.85,1.99,1.25,4.12,1.22,6.28-.11,6.33,.91,19.11,10.14,25.39,1.56,1.08,2.36,2.95,1.85,4.77-2.61,9.23-7.38,35.64,21.19,41.15,1.56,.28,2.84,1.45,3.35,2.98,2.61,8.21,12.86,33.26,40.1,31.64,27.6-1.68,21.16-27.15,18.57-34.79-.45-1.36-.31-2.84,.4-4.06,3.44-5.88,11.76-24.11-7.3-37-6.22-4.23-9.8-7.21-13.23-8.38-1.42-.45-2.41-1.73-2.27-3.21,.65-7.24,.37-26.72-21.3-29.08-1.16-.14-1.99-1.16-1.79-2.3,.37-2.36,1.53-5.71,4.97-4.71,0,0,15.7,15.7,30.93,10.05,1.25-.45,2.67-.28,3.83,.4,5.79,3.24,23.29,11.36,37.29,.09,7.04-7.13,7.04-13.09,6.48-15.93-.23-1.14,.11-2.24,.94-3.04,2.19-2.16,5.85-7.1,4.46-15.11Zm-219.92-77.84c.88-3.86,5.65-3.89,9.03-3.41,1.11,.17,1.9-1.08,1.28-2.02-1.62-2.41-3.27-5.94-1.28-8.32,3.58-3.86,10.56-2.47,14.88-1.05,1.68,.54,3.35-.77,3.24-2.53-.37-5.88,.43-16.78,10.37-22.41,10.56-5.96,22.92,3.58,28.4,8.66,1.51,1.39,3.83,1.25,5.17-.31,3.04-3.55,9.4-9.2,20.48-12.38,16.95-4.86,36.8,12.64,36.15,25.42-.48,9.54-11.62,11.1-17.18,11.27-1.53,.06-2.73,1.42-2.5,2.95,.51,3.66,.51,10.28-3.72,17.44-5.03,8.55-18.29,4.71-23.66,2.73-1.14-.43-2.39,.11-3.01,1.16-.97,1.65-3.21,3.83-8.46,5.28-6.59,1.79-14.23-2.81-18.01-5.54-1.28-.94-3.01-.68-3.98,.54-2.41,3.04-7.58,7.84-16.07,7.36-11.33-.51-14.54-9.71-15.48-14.82,11.5-2.75,24.11-5.91,34.99-8.95,0,0-19.77,2.39-39.53,5.23-4.83-.6-12.04-2.22-11.1-6.3Zm-175.59-12.18c6.16,10.82,12.67,23.86,18.71,39.11,3.18-6.56-4.29-24.31-12.98-41.07,1.45-.28,2.39-.34,2.39-.34,0,0,15.56-2.87,21.95,7.61,5.4,8.6,3.81,16.84,2.3,21.16-.54,1.53,.48,3.15,2.13,3.32,7.21,.74,23.37,3.69,25.96,15.79,2.41,11.36-6.47,17.27-11.5,19.62-1.51,.71-1.9,2.64-.82,3.89,4.83,5.59,14.6,19.28,7.33,31.92-6.67,10.51-21.95,3.83-21.95,3.83,0,0-11.47-4.09-11.02-16.27,.09-1.9-1.19-3.61-3.1-3.83-7.36-.88-23.66-4.2-24.51-16.5-.71-10,4.63-14.45,8.69-16.41,1.62-.77,1.79-2.98,.31-4-4.43-3.07-10.91-8.35-10.85-12.98,.03-3.86,1.7-6.45,3.18-7.98,1.19-1.25,1.42-3.12,.54-4.6-2.22-3.72-5.34-10.48-2.98-15.93,1.33-3.07,3.75-5.05,6.22-6.33Zm102.32,32.43c6.05,14.51,12.3,33.65,17.24,58.16,1.11-9.37-3.04-33.65-11.36-57.28,7.53-.4,18.6,3.01,22.04,8.21,2.9,4.37,1.28,14.31,.11,19.62-.43,1.9,.54,3.89,2.33,4.69,5.65,2.58,16.87,9.2,16.16,20.96-.37,7.3-8.07,11.76-12.92,13.83-1.9,.82-2.58,3.21-1.42,4.94,5.48,8.24,17.44,28.74,6.05,37.09-9.6,7.5-19.48-.57-22.86-3.89-.8-.8-1.87-1.19-3.01-1.22-4.23-.11-15.08-1.68-21.53-14.77-6.08-12.3-.88-27.18,2.16-33.99,.88-1.96,.37-4.23-1.16-5.74-2.3-2.24-5.4-6.93-7.5-16.53-1.96-7.13,4.09-11.16,8.21-13.01,1.25-.57,1.39-2.3,.26-3.04-6.65-4.35-11.02-12.78-6.82-18.4,3.49-4.69,10.39-1.7,14,.34l.03,.03Zm118.42,74.92c2.73,1.42,6.3,4.91,8.69,7.44,1.65,1.76,2.56,4.09,2.56,6.53l-.03,8.29c0,2.64,1.05,5.17,2.84,7.13,3.07,3.32,6.22,8.49,6.22,8.49,0,0,1.87,2.95,1.31,10.73-.2,2.84-1.68,5.4-3.46,7.47-2.95,3.46-2.7,8.72,.68,11.79,5.03,4.6,10.76,11.64,11.5,20.19,.43,5.28-.14,9.23-1.08,12.15-1.33,4.17-5.42,6.7-9.8,6.76-1.11,0-2.19,.2-3.04,.74-.65,.4-.97,1.19-1.11,2.13-1.19,9.31-9.88,15.7-18.86,12.92-.26-.09-.51-.17-.77-.26-15.28-5.03-17.72-29.05-18.09-38.45-.11-2.5-1.11-4.86-2.78-6.73-9.17-10.11-9.51-13.18-11.53-25.73-1.36-8.24,5.62-14.8,11.44-18.71,3.12-2.13,4.86-5.99,4-9.66-.31-1.36-.37-2.93,.11-4.6,.71-2.53,2.36-4.03,4-4.91,2.53-1.31,4.12-3.81,4.71-6.56,.48-2.27,1.36-4,2.07-5.14,.68-1.05,1.68-1.85,2.84-2.27,.74-.28,1.7-.57,2.75-.65,1.53,14.26,2.56,31.95,1.56,50.75,.28-.97,3.69-25.1,3.24-49.84Zm22.01-13.35c4.83,.62,13.35,.26,22.8-.57,1.87,4,5.42,10.31,10.2,12.95,0,0-10.73-.37-16.9,2.93-5.34-5.25-10.71-10.37-16.1-15.31Zm70.43,36.12c10.65,1.93,9.37,18.71,8.43,25.36-.2,1.48,.77,2.84,2.24,3.12,6.45,1.31,22.72,6.02,26.92,20.84,2.58,8.97-4.54,15.99-7.81,18.66-.88,.74-1.14,1.96-.68,2.98,2.84,6.16,9.97,26.01-15.7,26.01-14.71,.6-24.54-21.9-27.75-30.47-.68-1.79-2.39-2.95-4.32-3.04-3.44-.2-9.51-1.56-17.18-7.61-9.6-7.55-4.15-23.34-1.33-29.79,.65-1.51,0-3.32-1.51-4.03-13.6-6.62-16.67-19.68-8.6-30.84,13.04,12.52,26.13,26.04,39.22,40.58-11.59-15.36-24.11-29.79-37.06-43.25,1.14-1.25,2.41-2.44,3.83-3.61,12.92-10.51,21.36,5.28,23.94,11.22,.54,1.19,1.7,1.99,3.01,2.04,2.27,.06,6.56,.43,14.34,1.82Zm70.17-28.26c-.57,.54-.91,1.25-.94,2.04-.2,4.4-1.93,18.86-16.5,18.86-12.5,0-17.41-4.09-19.14-6.33-.6-.77-1.59-1.05-2.44-.65-3.75,1.79-13.55,5.45-21.75-.37-6.93-4.88-10.22-9.66-11.67-12.27-.43-.82-1.59-.8-2.02,0-1.96,3.61-6.56,10.34-12.44,7.55-7.33-3.46-17.47-4.34-25.1-17.81,19.71-1.96,41.01-5.25,41.01-5.25-14.88-.97-30.24-.11-42.97,1.22-2.19-7.95,4.83-9.43,4.83-9.43,0,0,2.75-1.62,6.5,.51,.74,.43,1.65-.23,1.53-1.11-.51-3.81-.85-10.79,3.24-12.18,3.89-1.33,9.85,.77,13.23,2.24,1.05,.45,2.21-.4,2.07-1.56-.82-6.05-.97-19.99,15.25-19.99s20.87,11.56,22.27,16.78c.34,1.36,1.7,2.16,3.07,1.82,8.29-2.13,34.33-7.27,42.46,9.46,7.9,16.36,1.96,24.17-.48,26.47Z"/>
</svg>