<?xml version="1.0" encoding="UTF-8"?>
<svg id="Layer_1" data-name="Layer 1" xmlns="http://www.w3.org/2000/svg" viewBox="0 0 399.71 499.85">
  <defs>
    <style>
      .cls-1 {
        fill: #b0b8ab;
      }

      .cls-1, .cls-2, .cls-3, .cls-4, .cls-5, .cls-6, .cls-7, .cls-8, .cls-9, .cls-10, .cls-11, .cls-12, .cls-13, .cls-14, .cls-15, .cls-16, .cls-17, .cls-18, .cls-19 {
        fill-rule: evenodd;
      }

      .cls-2 {
        fill: #f3dbf6;
      }

      .cls-20 {
        fill: #f9e7f4;
      }

      .cls-3 {
        fill: #dcbded;
      }

      .cls-4 {
        fill: #e6caf2;
      }

      .cls-5 {
        fill: #e1c7f0;
      }

      .cls-21 {
        fill: #b99fe0;
      }

      .cls-22 {
        fill: #f4dced;
      }

      .cls-6 {
        fill: #afc2b0;
      }

      .cls-23 {
        fill: #b8c4b9;
      }

      .cls-7 {
        fill: #dec3f0;
      }

      .cls-24 {
        fill: #d4b7e9;
      }

      .cls-8 {
        fill: #debeef;
      }

      .cls-25 {
        fill: #dfc0ee;
      }

      .cls-26 {
        fill: #b99fdf;
      }

      .cls-27, .cls-10 {
        fill: #debdef;
      }

      .cls-28 {
        fill: #edeef7;
      }

      .cls-9 {
        fill: #e6b7f7;
      }

      .cls-11 {
        fill: #e2c3ef;
      }

      .cls-29 {
        fill: #f9d1ad;
      }

      .cls-30 {
        fill: #f5d2a5;
      }

      .cls-12 {
        fill: #edccf6;
      }

      .cls-31 {
        fill: #d5d0ee;
      }

      .cls-32 {
        fill: #cbccd6;
      }

      .cls-33 {
        fill: #cdb0e8;
      }

      .cls-13 {
        fill: #c7aadf;
      }

      .cls-34 {
        fill: #d8d2ec;
      }

      .cls-14 {
        fill: #b0b5ae;
      }

      .cls-35 {
        fill: #d9dae5;
      }

      .cls-36 {
        fill: #aebdab;
      }

      .cls-15 {
        fill: #abbdab;
      }

      .cls-37 {
        fill: #dfbfee;
      }

      .cls-16 {
        fill: #a7b6a1;
      }

      .cls-17 {
        fill: #c7ace6;
      }

      .cls-38 {
        fill: #fae0f3;
      }

      .cls-19 {
        fill: #d2b3e5;
      }
    </style>
  </defs>
  <path class="cls-25" d="M229.61,64.91l-3.41-20.37,.81-11.16,3.34-8.97,3.68-4.78,8.69-5.49,7.38-2.14h4.98l5.9,1.06,8.77,1.79,10.97-.1,6.19,1.12,3.34,1.48,2.05,9.51s-.1,17.19,0,17.7-6.14,14.95-6.14,14.95l-6.06,8.03,.63,11.19-7.57,8.14-8.74,3.67-5.57-1.13-6.89-.72-4.69-.08-3.9-1.03-2.55,.05-5.37-4.01-2.68-5.74-3.16-12.95Z"/>
  <polygon class="cls-33" points="267.93 92.47 277.92 86.14 283.06 81.81 291.65 83.09 308.78 87.97 331.61 90.26 332.67 76.88 335.89 73.93 342.49 81.2 346.56 94.03 345.8 104.94 341.22 115.59 336.37 119.7 333.29 127.36 328.79 136.33 317.26 143.65 306.27 143.5 294.89 136.63 284.32 131.29 277.04 126.26 270.87 124.17 266.73 119.94 267.93 117.26 271.2 114.28 272.42 111.49 271.43 104.94 271.81 102.14 269.88 95.9 267.93 92.47"/>
  <path class="cls-33" d="M280.74,83.85s-.38,4.42,3.89,3.66,4.73-1.79,4.73-1.79c0,0-.15,5.14,2.9,5.3s9.31,0,9.31,0l12.39,3.01s2.26,6.45,5.92,5.46,6.1-1.56,6.1-1.56c0,0,1.83-1.27,3.97-1.34,.46-1.39,2.73-3.34,2.73-3.34,0,0,2-.52,3.22,0,0,0-1.53-18.55,0-19.32s-1.07-1.63-1.07-1.63l-6.02-4.78-2.44-2.75-6.03-1.53-4.7-1.98h-6.02l-5.45,2.9-10.98,8.14-8.54,8.13-3.89,3.42Z"/>
  <path class="cls-25" d="M248.05,138.16v-10.79l1.57-2.34,2.33,1.7,1.92,1.47,3.35,.1,2.95-.93,2.44-2.34,2.81-3.34,1.61-1.37,9.66,12.56s12.1,8.19,12.25,8.19,11.49,.66,11.49,.66l6.82,2.08,4.97,11.28,1.15,7.41-4.81,8.62-4.81,8.59-4.42,3.76-7.86,1.3-7.47,4.27-8.62-.76-8.54-2.9-11.82-.84-7.4-2.9-5.4-6.03-1.54-6.41,1.91-5.57,4.67-9.99v-9.38l.78-6.1Z"/>
  <polygon class="cls-25" points="199.47 177.35 210.18 163.08 221.39 141.95 232.61 122.88 234.8 120.01 230.35 113.38 226.81 110.71 205.81 109.62 188.93 106.32 179.53 103.24 174.18 108.84 168.08 121.86 164.24 132.97 164.24 143.5 169.15 155.44 175.1 160.58 181.33 163.08 185.01 163.08 190.05 167.43 195.39 174.16 199.47 177.35"/>
  <polygon class="cls-25" points="212.96 33.38 219.69 41.07 221.39 52.4 225.18 77.8 231.69 90.15 230.35 95.19 230.35 101.05 228.78 107.82 228.78 111.49 208.91 110.4 182.17 104.94 170.09 97.15 164.24 88.59 162.32 78.57 164.24 72 167.22 64.15 168.64 52.4 173.18 45.05 182.17 39.32 191.66 37.32 203.62 33.38 212.96 33.38"/>
  <polygon class="cls-21" points="110.04 235.56 115.5 233.14 117.99 229.06 119.94 227.4 123.38 228.54 126.81 229.94 132 228.16 135.43 229.06 141.23 210.92 149.47 197.85 159.61 187.89 160.53 185.68 154.35 172.56 148.02 162.95 142.83 158.98 135.29 158.98 130.4 161.5 121.63 163.48 111.1 164.01 105.69 165.77 98.75 175 94.4 188.27 94.4 197.5 97.12 207.47 104.01 225.86 110.04 235.56"/>
  <polygon class="cls-24" points="144.82 242.27 145.38 242.65 146.98 243.73 169.49 233.48 170.29 218.78 182.95 208.02 189.74 202.84 188.41 199.13 180.89 190.79 173.5 188.27 159.16 188.5 152.9 193.74 146.26 201.69 141.84 209.17 138.11 219.85 135.43 229.06 135.43 231.98 141.69 235.56 143.9 239.05 144.82 242.27"/>
  <polygon class="cls-33" points="130.3 271.35 130.3 265.56 132.74 263.97 136.55 263.97 140.57 262.46 142.31 260.86 143.72 258.16 145.87 254.65 146.57 252.31 148.6 249.58 156.94 248.41 163.35 247.01 172.3 246.07 180.65 246.07 189.69 244.51 194.47 247.01 201.22 253.02 206.55 259.15 208.81 268.49 209.32 280.18 208.61 287.71 204.44 295.03 199.66 300.42 194.67 305.1 186.64 311.2 175.86 317.16 168.84 318.73 164.8 317.32 134.21 283.64 130.12 274.54 130.3 271.35"/>
  <path class="cls-27" d="M142.59,286.73s.89-12.8-1.53-17.83c0,0,2.31,.61,6.73,5.64s6.44,6.1,6.44,6.1c0,0,5.77,5.05,6.53,7.86s4.42,5.64,4.42,5.64c0,0,2.9,1.77,5.34,1.38s-2.59,5.48-2.59,5.48c0,0,6.82,9.54,5.93,11.52h-5.01l-3.97-.38-5.8-2.06-7.02-4.04-8.16-11.44-1.31-7.87Z"/>
  <polygon class="cls-25" points="91.55 326.38 100.36 313.09 96.84 295.52 95.95 272.65 95.95 259.52 92.95 260.42 81.97 268.79 71.67 271.52 64.7 273.88 59.01 282.72 57.48 288.5 57.48 295.52 58.69 302.37 63.48 305.81 69.69 310.49 75.07 313.09 79.52 317.16 86.46 324.32 88.16 326.38 91.55 326.38"/>
  <polygon class="cls-25" points="318.99 256.19 316.52 253.53 314.19 249.58 314.19 246.11 315.75 244.26 320.26 244.49 323.33 244.89 327.8 246.32 329.66 247.82 330.61 251.71 330.76 256.19 326.56 258.11 322 256.59 318.99 256.19"/>
  <polygon class="cls-26" points="316.18 243.18 317.53 244.89 323.33 244.03 328.11 240.71 335.63 235.33 343.14 227.44 345.03 221.76 342.34 218.65 333.04 220.27 328 225.06 325.07 230.92 320.48 238.48 316.18 243.18"/>
  <polygon class="cls-33" points="315.19 229.23 316.02 236.56 316.18 243.18 318.99 240.71 324.17 232.37 326.74 228.23 323.53 225.56 315.19 227.44 315.19 229.23"/>
  <polygon class="cls-17" points="322.99 352.8 328.79 338.53 332.61 328.62 335.66 324.73 341.61 320.84 347.32 317.71 354.88 314.35 365.79 311.15 369.9 311.15 368.23 319.92 363.73 331.29 359.07 340.36 350.91 347.46 336.42 353.18 326.2 357.35 320.78 359.36 322.99 352.8"/>
  <polygon class="cls-9" points="18.05 165.46 23.42 163.92 28.59 163.33 40.93 162.66 49.85 162.66 55.12 160.88 57.48 161.5 56.06 164.52 51.78 167.43 47.87 169.66 41.23 173.85 30.86 176.29 24.22 175.38 18.4 169.81 17.59 165.84 18.05 165.46"/>
  <polygon class="cls-5" points="20.94 152.88 22.6 151.8 28.95 150.82 41.61 153.95 50.78 158.95 51.78 161.99 35.82 163.36 25.37 163.36 18.05 165.46 15.99 164.69 15.07 160.88 16.98 156.54 20.94 152.88"/>
  <polygon class="cls-13" points="57.07 158.24 50.77 142.48 40.38 132.44 38.87 131.7 38.87 128.59 41.72 123.66 44.87 117.87 47.97 115.73 51.78 117.16 57.8 122.44 62.48 127.73 66.33 135.77 65.59 145.66 62.48 156.62 61.36 160.88 59.11 161.99 57.07 158.24"/>
  <path class="cls-2" d="M99.17,177.55s-1.27,16.74,1.78,23.91c3.05,7.17,4.27,15.7,4.27,15.7,0,0,1.22,6.78,2.7,10.29s1.45,6.03,1.45,6.03l-6.03-8.17-4.43-15-4.52-12.81v-11.14l4.78-8.81Z"/>
  <path class="cls-3" d="M60.12,149.35s-2.03-8.91-5.9-11.25-3.44-6.92-3.44-6.92c0,0,1.18-3.91,7.81-2.14,0,0,2.63,7.03,2.75,8.44s-1.23,11.86-1.23,11.86Z"/>
  <polygon class="cls-8" points="24.22 134.34 25.75 132.44 29.72 131.7 36.53 131.7 42.12 134.34 47.21 138.86 53.12 147.36 56.06 156 56.06 159.61 52.09 158.24 48.63 157.15 34.39 148.68 29 144.31 25.07 136.99 24.22 134.34"/>
  <path class="cls-19" d="M22.13,153.43s5.61,7.51,15.55,8.57h10.24l3.86-.91-1-2.13-8.19-5.39-7.09-2.24-8.45-1.92-4.46,2.4-.47,1.63Z"/>
  <polygon class="cls-10" points="60.05 133.11 61.36 127.25 65.03 132.44 66.14 138.31 66.14 145.66 63.34 152.34 61.84 159.04 61.36 161.99 59.11 161.99 57.8 158.83 59.01 156.23 60.99 148.22 61.14 139.61 60.05 133.11"/>
  <polygon class="cls-7" points="66.79 133.58 70.59 128.09 74.49 125.8 76.24 127.94 77.39 133.12 77.01 138.97 77.39 144.62 77.84 150.74 74.03 152.57 65.59 156.16 62.9 157.15 63.91 150.97 67.17 138.86 66.79 133.58"/>
  <polygon class="cls-14" points="65.59 163.02 70.08 161.08 76.24 158.24 79.52 155.63 76.24 152.19 70.08 153.43 64.75 156.47 62.48 161.99 58.62 163.02 54.96 165.16 52.6 167.83 53.9 170.12 57.1 170.8 60.68 169.24 63.34 166.36 65.59 163.02"/>
  <path class="cls-12" d="M28.19,163.36s-2.29,8.28,4.27,8.89,10.3-3.01,10.3-3.01l1.28-6.59h-6.87l-8.98,.7Z"/>
  <polygon class="cls-4" points="306.44 302.27 301.79 294.22 304.12 293.15 308.81 292.45 315.49 291.32 321.09 292.45 325.89 294.52 328.87 297.88 331.61 302.99 333.83 311.63 333.83 317.79 333.83 324.34 331.77 329.3 329.33 327.47 325.74 325.41 317.81 324.57 314.99 322.82 311.17 317.4 308.88 308.1 306.44 302.27"/>
  <path class="cls-11" d="M346.56,348.05s-7.24-1.36-9.22-5.48,7.02-6.64,7.02-6.64c0,0,4.42-1.07,4.88-3.97,.38-2.06,2.44-1.07,2.44-1.07,0,0,1.3,.39,.99,2.56s-.46,5.53-1.68,6.9,1.2,4.96,1.2,4.96l-.74,1.36-4.89,1.37Z"/>
  <polygon class="cls-15" points="254.47 394.19 258.14 384.18 263.42 378.83 269.53 374.76 280.81 372.63 296.37 373.44 301.79 375.27 306.34 377.2 314.17 382.09 319.46 385.34 313.05 389.2 286.1 398.56 266.88 400.49 251.52 399.4 250.51 397.14 254.47 394.19"/>
  <polygon class="cls-15" points="296.27 350.46 293.53 341.91 290.07 336.73 289.05 334.08 290.78 332.56 295.05 332.56 301.05 333.46 306.65 336.42 313.05 340.9 317.33 345.27 314.48 352.29 309.6 362.15 305.77 361.34 299.53 357.35 296.27 350.46"/>
  <polygon class="cls-1" points="260.98 216.15 260.98 226.48 262.71 235.74 264.85 242.15 266.78 247.01 270.24 251.71 271.05 246.01 270.34 236.45 267.89 228.62 263.93 221.3 260.98 216.15"/>
  <polygon class="cls-16" points="235.81 272.65 236.44 261.69 238.86 261.69 244.35 266.34 250.51 269.81 258.24 277.28 267.09 292.45 269.07 301 266.02 317.86 266.02 321.37 264.03 332.56 261.86 341.81 256.56 335.25 252.77 329.3 240.25 311.63 234.74 292.45 234.74 280.18 235.81 272.65"/>
  <polygon class="cls-6" points="186.08 386.56 188.2 375.07 193.43 352.8 200.57 327.47 203.19 316.24 212 332.7 216.9 342.98 219.79 356.91 216.19 368.24 206.83 380.68 198.59 397.49 194.78 408.78 190.66 402.53 186.08 386.56"/>
  <polygon class="cls-6" points="172.96 372.63 166.33 364.4 153.28 356.26 139.86 356.26 112.4 384.18 104.04 396.73 102.18 403.29 109.35 405.88 116.67 405.88 126.28 400.49 132.54 394.9 141.69 388.65 149.01 385.59 156.54 383.6 162.28 376.9 165.64 372.63 168.5 372.63 172.35 374.17 172.96 372.63"/>
  <polygon class="cls-6" points="307.05 222.72 309.39 220.27 312.24 224.25 315.19 230.65 316.18 237.67 316.18 243.18 314.19 248.15 315.3 252.21 320.68 258.01 320.68 259.98 316.71 260.45 310.21 261.16 308.27 259.33 308.07 255.64 311.38 250.48 314.19 245.38 315.19 243.18 310.1 239.2 308.07 234.79 306.54 229.64 307.05 222.72"/>
  <path class="cls-25" d="M309.39,217.79l4.22,7.77,1.58,3.67s3.76-1.22,6.66-.76,4.15,.76,4.15,.76l2.29-3.07s4.09,.43,7.29-1.91,3.58-3.46,6.56-3.26,1.68-3.2,1.68-3.2l-.68-8.09-1.68-4.38-5.12-.8-8.24,.8-3.94,1.43-2.54-1.77-7.44,1.77h-3.37l-1.43,11.04Z"/>
  <polygon class="cls-33" points="327.15 241.38 338.47 232.37 343.14 227.44 348.45 226.48 353.79 227.44 355.26 230.14 353.79 236.55 350.94 240.71 347.94 242.15 333.6 242.56 326 243.08 327.15 241.38"/>
  <polygon class="cls-25" points="323.33 244.03 328.22 242.93 338.47 242.42 347.94 242.15 350.94 245.38 352.01 251.29 350.94 253.09 344.1 254.35 337.16 255.64 334.51 254.96 330.14 248.04 323.33 244.89 323.33 244.03"/>
  <path class="cls-26" d="M318.99,256.19s4.34-.89,6.47-.55,1.93-1.29,1.93-1.29c0,0,.26-4.55,2.27-5.63l1.72,.86,2.74,4.77v3.36l-3.06,3.98-3.27,1.61-3.63-.94-5.18-6.18Z"/>
  <polygon class="cls-25" points="50.77 247.97 42.53 239.05 37.53 233.14 35.92 224.65 38.87 213.26 43.64 206.75 52.6 201.06 70.08 195.77 79.52 193.74 85.51 193.74 93.18 198.21 96.43 205.52 103.1 224.46 107.42 233.14 110.04 235.56 104.97 243.73 106.43 247.97 103.9 251.53 91.35 261.69 81.97 268.79 67.42 272.65 60.43 270.01 52.69 261.69 51.78 255.43 50.77 247.97"/>
  <path class="cls-26" d="M99.49,227.02s1.01-2.88-2.04-7.91-1.32-11.63-1.32-11.63l2.53,4.36,3.53,10.04,4.24,9.28-3.28-2.09-3.66-2.04Z"/>
  <path class="cls-33" d="M76.24,232.72s-8.45,2.09-6.17,7.11,12.93,8.58,12.93,8.58l8.13-.44,8.34-1.9,6.02-.78v-2.64h-2.57l-3.45-1.02-5.09-1.07-7.56-1.51-6.67-2.6-2.47-1.73-1.45-2Z"/>
  <path class="cls-26" d="M86.83,265.11s-5.89,.52-4.86-6.95c0,0,1.89-2.67,2.07-5.07s2.79-4.88,2.79-4.88l8.85-1.27,6.5-1.65h3.32v3.98l-6.02,6.16-12.65,9.68Z"/>
  <path class="cls-26" d="M92.95,260.42s-1.44,6.74,0,8.77c0,0-5.14-1.02-6.12,5.29s.29,10.76,.29,10.76c0,0-1.7,7.72,2.58,10.17,2.05,1.44,0,8.49,0,8.49,0,0-1.01,4.54,1.64,10.03s.2,12.43,.2,12.43l4.14,2.18,5.35-2.18,5.39-2.26,3.62-.41,8.92,1.02,13.78,.81,8.32-6.92,2.27-5.54-6.78-12.56-3.81-13.79-2.44-10.82-1.02-7.73-6.14-1.84h-5.16l-6.38-1.56-.78-4.36-3.41-2.27,.86-5.13-2.76-3.75-12.56,11.16Z"/>
  <path class="cls-22" d="M130.3,275.91s3.93-.81,7.81,3.86c3.88,4.68,5.22,8.73,5.22,8.73,0,0,6.51,15.07,14.59,20.16l6.96,3.48,2.97,.46,.99,5.26-5.19-.7-13.27-2.89-5.87-1.19-2.47-2.39-3.77-6.98-3.91-11.11-3.27-10.89-.8-5.8Z"/>
  <path class="cls-37" d="M146.98,243.73l7.32-6.24,8.48-7.1v-2.38s-6.96-13.32,1.38-18.81,12.61-3.68,12.61-3.68c0,0,10.85-1.71,11.63-6.39l5.03,3.86,3.79,4.48,3.25,4.36,1.83,5.33v5.66l-1.34,7.92-6.04,8.71-6.52,5.28-5.15,1.66-15.94,.62-11.59,1.57-8.75,1.63-1.11-2.67v-3.02l1.11-.78Z"/>
  <polygon class="cls-29" points="107.21 239.05 110.82 235.93 113.94 233.82 115.96 231.15 117.99 229.06 120.96 227.4 125.1 228.52 126.81 229.94 129.28 228.62 133.55 228.42 134.98 231.15 137.33 233.06 141.06 235.89 143.33 237.49 145.04 239.83 145.87 244.51 146.23 248.41 145.87 254.65 143.72 258.16 140.57 262.46 137.33 263.67 134.21 263.67 130.3 265.56 128.27 267.88 125.64 267.88 120.96 266.34 114.9 265.59 110.82 263.97 110.04 260.65 107.21 258.93 107.21 254.65 106.43 249.58 105.51 244.51 107.21 239.05"/>
  <path class="cls-33" d="M216.85,35.42s-3.05,2.31,0,11.26c3.05,8.95,4.54,10.98,4.54,10.98,0,0,2.31,6.51,0,12.2s6.8,21.88,6.8,21.88l2.17,4.84,3.66-1.67,4.61-4.77,3.44-1.56-4.14-3.27-5.84-8.44-2.64-12.73-3.05-21.58-9.56-7.15Z"/>
  <path class="cls-38" d="M205.04,113.85c.73-.41,1.59,.23,1.4,1.04-.84,3.48-2.44,9.49-4.54,14.36-3.15,7.32-5.8,8.14-5.8,8.14,0,0-2.36,.43-4.43,4.89s-9.5,4.87-9.5,4.87c0,0-6.61,0-7.02-6.1s2.03-6.71,2.03-6.71c0,0,3.05-3.18,2.64-6.98s3.05-7.48,5.09-8.38,8.95-5.34,14.44-4.34c2.58,.47,4.44-.07,5.69-.78Z"/>
  <path class="cls-33" d="M197.28,175.8s8.41-4.48,14.9-37.31l1.56-2.33,1.75-3.66,4.76-4.2,5.34-4.04,4.76-3.43,3.66-1.87,2.18,2.88,3.13,2.03,5.26,1.37,2.69,.76v20.72l-1.85,12.23-4.68,9.53-8.14,5.49-12.92,4.96-12,.74-6.47-1.12-3.94-2.78Z"/>
  <path class="cls-33" d="M267.47,145.83s-8.91,5.9-3.05,14.75c0,0,3.53-9.1,8.36-8.9l-5.32-5.85Z"/>
  <path class="cls-26" d="M263.64,125.09l3.08,5.49,4.15,5.59,3.27,3.39s4.03,2.81,10.74,3.62c2.99,.24,4.44,1.66,5.13,2.75,.73,1.17,2.1,1.82,3.48,1.72s2.85-.69,3.7-2.54c1.83-3.97-.81-4.83-.81-4.83l-7.02-2.6-9.46-5.59-9.02-7.93-3.29-4.47-2.17,.61-1.78,4.78Z"/>
  <path class="cls-25" d="M301.85,93.25s2.58-2.84,0-6.35c-1.51-2.71-1.2-3.66-1.2-3.66,0,0-3.97,1.22-5.34-1.53s1.07-6.01,1.07-6.01c0,0,1.47-.65,2.57-3.27s3.59-4,5.62-4,11.34,.76,14.69,0,4.88,2.59,4.88,2.59c0,0,.92,3.15-1.37,5.84s-3.2,8.5-3.2,8.5c0,0,1.37,8.31-2.9,8.65s-11.17-1.3-14.81-.78Z"/>
  <path class="cls-20" d="M269.88,122.83s8.39,2.87,17.13,7.55l8.75,4.68s12.2,8.34,16.47,7.93h-8.74s-6.6-2.4-6.6-2.4l-9.98-3.6-7.02-4.88-6.1-4.74-3.91-4.54Z"/>
  <path class="cls-33" d="M265.42,88.93l10.61-9.41,1.02-1.37s-3.13-2.7,.24-15.05c1.07-3.57,1.1-6.53,.97-8.22s.5-3.24,1.71-4.33c1.01-.9,2.52-1.85,4.8-2.55,5.95-1.83,5.49-6.93,5.49-6.93,0,0,0-5.09-4.27-9.45s3.51-14.5,3.51-14.5l6.44,1.95,6.31,6.22,4.39,8.1,1.91,8.52v11.13l-2.28,10.02-5.32,3.57-9.92,8.14-5.64,5.39-6.5,5.18-8.65,6.06-3,1.87-3.46-1.72,1.64-2.59Z"/>
  <polygon class="cls-30" points="230.35 113.38 229.25 107.82 229.8 104.94 229.25 99.59 230.35 96.58 234.8 92.47 238.63 89.59 244.15 87.77 247.27 88.17 248.83 89.59 254.1 88.17 258.85 89.39 263.78 91.53 267.93 94.03 270.87 96.58 272.37 102.36 271.71 106.8 271.97 111.49 270.87 115.93 267.47 116.95 265.42 120.31 263.28 124.22 260.92 126.64 257.22 128.29 252.87 126.21 249.62 126.21 245.12 125.42 239.55 124.58 236.19 121.86 232.74 116.95 230.35 113.38"/>
  <circle class="cls-34" cx="114.94" cy="93.24" r="8.34"/>
  <circle class="cls-34" cx="154.23" cy="463.04" r="10.75"/>
  <circle class="cls-34" cx="229.86" cy="482.97" r="5.7"/>
  <circle class="cls-34" cx="276.98" cy="434.97" r="3.39"/>
  <circle class="cls-34" cx="393.7" cy="205.32" r="6"/>
  <circle class="cls-34" cx="364.23" cy="138.28" r="14.92"/>
  <circle class="cls-34" cx="331.38" cy="186.52" r="6.31"/>
  <circle class="cls-34" cx="47.62" cy="355.85" r="6.05"/>
  <circle class="cls-34" cx="51.89" cy="324.42" r="6.03"/>
  <path class="cls-23" d="M323.44,370.65l11.89-10.04s14.52-4.82,14.94-5.1,9.54-6.47,9.54-6.47l16.04-26.72v-13.36l-1.94-2.55s-2.9,11.5-4.29,16.46c-1.38,4.96-6.98,21.28-18.88,27.48-11.89,6.2-17.43,7.23-17.43,7.23,0,0-8.3,.76-10.37,5.92-2.07,5.17,.48,7.15,.48,7.15Z"/>
  <path class="cls-32" d="M91.55,397.17s-.3,10.49,4.86,14.3c4.8,3.55,11.58,14.21,29.88,5.74,2.4-1.11,4.65-2.5,6.76-4.09,4.73-3.55,14.63-11.01,16-12.24,1.47-1.32,10.33-5.1,13.58-6.46,1.41-.59,2.89-.98,4.41-1.07,2.14-.13,4.86,.22,6.51,2.39,1.78,2.34,3.17,6.2,4.02,9.01,.74,2.45,1.68,4.83,2.78,7.14,3.04,6.4,8.68,20,7.69,30.96-1.34,14.88-15.16,35.19-15.16,35.19,0,0-1.02,.95-1.03,0s1.89-10.39,1.89-10.39l8.49-19.55-1.53-11.16-1.34-11.54-2.86-10.01-4.58-7.63-13.06-1.62-7.82,2.86-8.3,3.91-7.44,4.48-11.73,6.29-14.88,1.14-12.68-6.01-4.35-9.12c-.4-.85-.7-1.74-.89-2.67l-1.72-8.62,2.48-1.24Z"/>
  <path class="cls-32" d="M46.63,298.76s1.18,.21,2.19,4.77c1.01,4.56,6.29,8.3,6.29,8.3,0,0,9.05,8.13,15.1,12.28,1.88,1.29,3.6,2.78,5.09,4.5,1.23,1.41,2.77,3.14,4.22,4.68,1.8,1.91,4.16,3.6,5.85,4.69,1.38,.9,2.94,1.48,4.57,1.7,3.87,.52,11.58,1.15,16.95-1.05s13.74-1.02,17.93-.19c2.02,.4,4.06,.57,6.12,.5,3.33-.11,8.09-.4,10.1-1.17,2.16-.83,4.44-.76,5.73-.63,1.17,.12,1.75,1.55,.93,2.4-.21,.21-.48,.43-.85,.65-2.38,1.4-7.18,.64-12.66,7.13s-8.61,.95-8.61,.95l-8.11-5.44-15.26,1.53-13.92-1.24-14.02-10.11-14.49-12.02-12.49-12.59-2.57-6.87,1.91-2.77Z"/>
  <path class="cls-32" d="M29.02,236.41s.37-.75,2.02,2.68,4.36,6.87,4.36,6.87c0,0,5.65,4.22,6.22,7.65s.72,6.58,.72,6.58c0,0,.93,7.51,3.29,9.23s5.08,6.58,5.08,6.58c0,0,1,2.65-.86,6.79-1.86,4.15-2.88,5.01-2.88,5.01h-1.48l-.36-10.8-4.08-9.58,.14-6.08-5.08-7.72-8.3-11.87,1.2-5.33Z"/>
  <path class="cls-32" d="M16.75,180.72s6.04,4.37,13.67,4.28c7.63-.1,13.06-1.53,13.06-1.53,0,0,9.06-4.2,14.02-4.2s6.68,2.86,6.68,2.86c0,0,0,.76-.48,1.19s-3.05,.1-3.05,.1l-14.45,3.19-11.16,2.05h-9.15l-6.94-2.86-2.2-5.09Z"/>
  <path class="cls-28" d="M17.07,121.39s-3.24-2.67-5.53,3.43,.1,14.4-5.05,19.55c-5.15,5.15-7.82,17.07-5.82,23.74s4.39,14.4,11.92,17.93,17.26,7.44,30.04,3.81c0,0-18.79,13.83-19.45,25.37-.67,11.54-.76,18.5,.19,21.65,.24,.79,.71,1.87,1.28,3.06,2.03,4.2,4.64,8.1,7.66,11.66,2.87,3.37,6.58,8.34,6.7,11.61,.14,3.78,1.42,7.33,2.16,9.07,.22,.51,.47,1.01,.73,1.5,.65,1.25,2.49,5.69,.74,13.65-.38,1.74-.62,3.44-.74,5.07-.7,8.99,2.45,17.88,8.63,24.44,2.7,2.86,6.23,5.86,10.77,8.49,5.29,2.43,16.31,15.45,16.31,15.45,0,0,7.12,9.07,24.67,6.99,1.89-.22,3.75-.65,5.59-1.15,10.9-2.98,13.58,.6,13.58,.6,0,0,4.22,3.86-1.29,9.66s-33.57,31.35-32.99,44.22,9.92,21.07,9.92,21.07c0,0,14.02,13.64,37.38-1.05,13.18-8.28,20.56-11.2,24.49-12.16,2.25-.55,4.62-.09,6.48,1.29,3.93,2.92,11.23,9.89,11.65,21.56,.26,7.37,.28,13.13,.23,17.2-.06,4.48-1.25,8.86-3.44,12.77-3.83,6.8-9.69,17.92-9.57,21.91,.19,5.91,1.91,3.62,1.91,3.62,0,0,4.51-6.77,7.58-13.06,3.08-6.29,11.68-20.22,12.54-32.61,.6-8.73-.87-13.58-1.8-15.69-.62-1.42-1.18-2.86-1.67-4.32-1.59-4.68-4.83-13.43-7.78-16.51l-2.53-2.64c-1.4-1.46-3.38-2.2-5.4-2-2.14,.21-5.24,.98-9.43,3.12-6.23,3.18-9.37,5.04-10.77,5.93s-3.12,1.54-4.84,1.74c-.03,0-.07,0-.1,.01-2.17,.23-4.26,.97-6,2.29-4.35,3.29-13.18,8.78-22.63,7.77-10.59-1.13-14.88-5.27-16.2-6.93-.42-.53-.85-1.06-1.29-1.58-1.99-2.32-6.8-8.89-4.35-15.71,3.05-8.49,13.26-18.69,13.26-18.69,0,0,21.67-21.75,29.12-30.49,.45-.53,.34-1.33-.24-1.71-2.62-1.71-9.56-5.85-15.24-5.57-7.15,.36-7.25-.38-14.02,.95-6.77,1.34-19.36,1.43-27.27-9.25-5.19-7.01-10.55-10.73-13.62-12.46s-6.22-3.95-8.88-6.49c-4.2-4-8.81-9.67-8.01-14.7,.77-4.86,.71-7.53,.49-8.96s-.22-3.03,.12-4.5c.5-2.17,1.29-5,2.25-6.66,1.05-1.81-1.28-4.93-3.26-7.08s-3.27-4.64-3.9-7.41c-.46-2.01-.9-4.56-1.14-7.58-.23-2.95-3.49-6.77-5.52-8.88-2.18-2.27-4.02-4.84-5.34-7.7-.88-1.92-1.63-4.12-1.83-6.35-.57-6.39-2.96-18.12,3.53-29.66,6.48-11.54,20.12-16.69,20.12-16.69,0,0,7.3-3.05,9.82-3.39,0,0,.33-.19,1.72-.57s-9.61-2.7-21.65,1.99c-2.7,1.05-5.55,1.75-8.44,1.83-9.01,.27-14.83-4.46-16.86-6.44-.58-.57-1.22-1.08-1.88-1.56-1.99-1.45-6.26-5.19-8.51-11.95-3-9.01-.57-14.45,1.07-17.24s5.51-7.44,6.01-9.08,.79-11.59,.93-12.8,.1-1.95,2.69-6.7Z"/>
  <path class="cls-32" d="M81.13,114.19s4.15,3.31,3.73,10.19,.83,13.91,.83,13.91c0,0,2.07,8.4,3.18,11.57,1.11,3.17-.55,8.82-.55,8.82,0,0-3.46,4.13-2.35,6.2s4.43-3.03,4.43-3.03c0,0,3.73-6.61,5.53-7.58s1.11-3.72,1.11-3.72c0,0-3.6,3.86-4.43,2.34s.97-2.2,.97-2.2c0,0-.69-3.17-1.52-3.72s-.97-13.91-.97-13.91c0,0,1.94-21.07-9.96-18.87Z"/>
  <path class="cls-35" d="M316.94,273.32s4.79,.37,8.11,2.85c3.32,2.48,9.87,5.14,14.84,3.31,4.98-1.84,11.89-7.53,17.8-6.15,4.98,.92,2.12-.92,2.12-.92,0,0-7.19-3.76-12.82-.64-3.41,1.74-3.96-.73-3.96-.73,0,0,1.2-4.41,7.84-6.7,6.64-2.3,12.91-17.08,12.91-17.08,0,0,1.38-10.28,3.32-13.41,1.94-3.12,1.2-14.23-2.21-16.62,0,0-1.57,2.16-2.9,1.7s-6.66-8.45-6.94-10.1-3.67-20.39-16.94-20.73c0,0,8.16,4.13,9.82,14.19,1.38,7.09,7.68,11.09,7.68,11.09,0,0,5.32,6.2,6.78,6.75s2.28,5.58,2.28,5.58c0,0,.28,2-1.04,1.93s-1.94-3.58-1.94-3.58c0,0,.07-1.58-.9-1.38s-.9,2.96-.9,2.96c0,0-2.47,16.48-5.14,21.53-2.67,5.05-3.13,9.92-12.63,13.22-9.5,3.31-11.89,7.35-11.89,7.35,0,0-8.39,5.23-23.6,2.2-4.86-.44-7.21,1.66-8.24,3.12-.34,.48,.09,1.14,.67,1.04,3.13-.52,11.05-1.63,17.9-.76Z"/>
  <path class="cls-35" d="M183.48,24.79s15.91-7.63,29.42-2.4c.66,.26,1.41-.1,1.61-.78,.96-3.18,4.43-11.39,15.64-16.62,6.32-2.95,13.36-3.99,20.3-3.29,3.22,.33,7.25,.88,11.62,1.83,2.69,.61,4.93,.41,6.4,.1,1.82-.37,3.66-.59,5.52-.57,3.99,.06,10.29,.34,13.53,1.47,0,0-8.67-3.49-21.76-2.02-3.84,.28-5.7-.24-6.56-.7-1.04-.55-2.18-.86-3.34-1.04-3.67-.55-10.58-1.3-16.66-.28-8.57,1.44-17.48,5.95-25.72,17.99-.35,.51-.92,.81-1.54,.79-4.17-.14-20.59-.28-28.48,5.5Z"/>
  <path class="cls-28" d="M107.82,148.35s.18-.46,3.6-.55c.21,0,.43-.01,.65-.03,3.42-.17,6.78-.93,9.99-2.11,3.45-1.27,9.04-3.15,13.25-3.74,6.55-.92,8.85-4.87,8.85-4.87,0,0,6.82-8.82,7.56-16.53,.74-7.71-.74-8.17,0-11.11,.41-1.63,0-3.75-.46-5.31-.28-.98-.67-1.92-1.12-2.84-.68-1.41-2.07-4.87-2.2-10.03s-.9-9.92-1.23-11.7c-.12-.65-.08-1.32,.16-1.93,.1-.24,.21-.45,.33-.51,.37-.18,.55,.92,.74,2.02s.43,10.93,3.99,14.6,4.67,4.96,4.67,4.96c0,0,2.86,3.03,2.21,6.52s-4.06,8.82-4.98,12.95-3.87,18.46-4.98,24.61c-.54,1.72-2.45,1.43-3.37,1.17-.6-.16-1.2-.31-1.81-.41-2.94-.47-10.45-1.18-18.06,1.9-9.77,3.95-13.65,3.95-17.8,2.94Z"/>
  <path class="cls-28" d="M305.19,15.98h2.77l-2.07-3.58s6.09,2.07,8.99,7.44c2.9,5.37,5.95,12.4,6.85,17.22s1.73,14.05,4.22,15.84,11.2,9.09,11.2,9.09c0,0,5.53-1.79,9.68,4.82,4.15,6.61,9.82,17.22,9.82,23v11.71s-4.29-20.94-9.68-22.18c0,0-2.9-10.06-8.99-13.91s-9.96-9.23-9.96-9.23l-6.29-4.13-2.94-3.17-1.63-8.49-1.31-1.49s-3.18-16.18-10.65-22.93Z"/>
  <path class="cls-35" d="M315.84,38.91s1.94-1.03,2.28,2.13,.28,7.51,3.6,11.02c0,0-3.53,.07-4.56-2.75s.21-4.75-.07-6.96-1.24-3.44-1.24-3.44Z"/>
  <path class="cls-31" d="M290.63,198.51c-1.14,.34-2.27-.56-2.15-1.73s.81-2.57,3.1-3.53c3.06-1.27,7.06-4.26,9.22-5.98,.99-.78,1.87-1.69,2.62-2.7,1.08-1.45,2.7-3.61,3.46-4.54,1.2-1.47,6.45-8.08,8.67-9.64,1.22-.86,2.21-2.92,2.86-4.59,.55-1.41,.71-2.94,.5-4.43-.48-3.42-1.01-10.33,2.08-12.37,4.15-2.75,7.01-4.41,7.01-4.41,0,0,5.81-2.85,9.13-11.48,2.32-6.05,5.64-10.56,7.43-12.72,1.05-1.27,1.92-2.66,2.61-4.15,1.49-3.21,3.71-8.79,4.07-14.26,.55-8.36-4.29-22.64-4.29-22.64,0,0,5.95,1.88,7.33,8.49,.65,3.11,1.21,6.32,1.62,8.85,.52,3.21,.25,6.48-.78,9.56-1.78,5.31-4.81,13.67-7.48,17.4s-4.53,8.96-5.57,12.28c-.71,2.25-1.88,4.33-3.47,6.08s-3.76,3.95-5.62,5.23c-3.6,2.48-6.64,6.34-7.1,8.45-.27,1.24-.38,3.9-.43,5.89-.06,2.68-.83,5.29-2.24,7.57-1.08,1.75-2.69,3.96-5.08,6.65-3.74,4.24-5.45,6.77-6.14,7.91-.92,1.51-2.07,2.87-3.48,3.95-.77,.6-1.69,1.18-2.74,1.64-3.23,1.41-10.83,7.91-15.16,9.21Z"/>
  <path class="cls-36" d="M191.15,484.5s9.15-20,14.31-25.87c5.16-5.88,13.19-17.72,13.19-17.72,0,0,14.2-20.02,15.12-21.3s7.65-10.01,8.11-11.57c.46-1.56,1.94-6.61,7.28-6.8s16.6,0,16.6,0c0,0,19.27-.18,36.24-7.44l7.75-3.1,.46,1.81-3.41,3.4-8.3,3.76-28.31,6.15-15.31-.83-9.13,3.21-22.96,33.33-17.7,27.18-9.77,15.77h-4.17Z"/>
  <path class="cls-35" d="M160.52,484.85s3.73,10.74,9.13,13.5c5.39,2.75,11.34,1.1,13.97,0s11.34-9.92,11.34-9.92c0,0,24.62-38.02,29.04-44.21,4.43-6.2,12.86-18.04,12.86-18.04,0,0,11.2-17.49,18.39-18.46s27.94,1.65,51.45-8.54c23.51-10.19,22.41-25.48,22.41-25.48,0,0-.09-7.35,4.79-9s20.38-9.09,20.38-9.09c0,0,17.15-9.55,23.05-30.85,5.9-21.3,5.03-19.65,5.03-19.65,0,0,.48-6.47-4.08-9.92-4.56-3.44-5.67-6.82-5.67-6.82,0,0-5.39-4.13-7.26-9.71-1.04,7.64-4.56,10.95-4.56,10.95,0,0,3.73,1.17,8.64,1.45,4.91,.28,7.47,4.27,7.47,4.27,0,0-1.52,6.75-2.97,11.09,0,0,1.31,1.65,.35,5.17-.97,3.51-4.36,16.39-6.92,21.42s-10.3,20.18-26,23.9c-15.7,3.72-17.05,8.82-17.05,8.82,0,0-1.42,6.96-1.63,12.05-.21,5.1-12.93,12.95-12.93,12.95,0,0-.18,1.4-4.2,3.1s-26.51,12.47-51.27,9.37c0,0-4.7-.28-7.12,2.48-2.42,2.75-20.88,26.72-23.86,30.79-2.97,4.06-14.52,19.9-18.19,25.96-3.67,6.06-5.6,10.88-7.75,14.94-2.14,4.06-3.53,6.54-6.22,7.16,0,0-5.69,9.42-15.84,9.48-10.14,.06-14.8-9.14-14.8-9.14Z"/>
  <path class="cls-18" d="M246.1,11.69c-9.32,2.95-17.41,9.95-19.42,16.79-.68,2.33-1.24,5.73-1.24,7.56s-.28,3.49-.61,3.7c-.34,.21-3.03-1.18-5.99-3.08-8.87-5.7-13.19-6.14-22.05-2.22-2.47,1.09-7.64,2.86-11.5,3.94-7.88,2.2-11.82,4.54-14.71,8.74-2.77,4.03-3.51,6.34-4.33,13.62-.4,3.52-1.45,8.09-2.34,10.16-2.17,5.06-2.21,14.34-.08,19.02,2.15,4.74,5.34,8.5,9.5,11.19l3.63,2.34-2.77,4.06c-3.45,5.07-8.27,15.31-10,21.29-3.24,11.13-.89,22.34,6.2,29.6,3.5,3.59,4.57,4.2,8.67,4.98,6.77,1.29,7.74,1.85,11.15,6.43,6.64,8.91,11.15,11.19,21.98,11.08,7.62-.08,14.61-2,19.91-5.48l2.1-1.38-1.54,3.07c-3.48,6.92-8.3,24.39-11.23,40.72-2.35,13.1-2.33,31.77,.05,43.02,1.93,9.14,5.82,20.11,10.24,28.93,1.62,3.24,3.31,7.82,3.75,10.18,1.59,8.62,5.7,16.38,14.28,27.02,5.94,7.37,7.82,10.53,9.14,15.44,2.16,8.03-11.15,47.1-22.46,65.93-2.67,4.45-8.28,13-12.46,19-17.65,25.36-20.79,29.9-21.53,31.15-.54,.92-.8-2.4-.84-11.02-.06-11.65-.22-12.94-2.96-23.25-3.27-12.33-3.26-14.78,.1-24.17,2.93-8.18,6.72-15.31,13.89-26.14,3.85-5.82,6.84-11.24,7.39-13.42,1.52-6.05-.6-13.41-8.01-27.8-3.45-6.69-6.69-13.56-7.21-15.25-1.07-3.52-2.37-4.37-3.11-2.04-.28,.88-2.02,8.35-3.86,16.61-2.68,11.99-10.44,42.55-11.74,46.21-.15,.43-.3,.21-.34-.5-.13-2.72-13.75-48.64-17.02-57.4-.26-.68,.65-.98,3.03-.99,5.04-.03,9.34-2.36,19.42-10.51,15.01-12.14,18.25-16.79,19.13-27.44,1.11-13.28-3.17-25.36-11.33-32.04-2.47-2.02-5.11-4.03-5.86-4.47-1.24-.72-1.1-1.09,1.45-3.9,1.55-1.71,4.13-5.72,5.74-8.91,2.59-5.17,2.91-6.45,2.91-11.7,0-7.87-1.45-10.56-9.45-17.56-3.56-3.11-8.06-7.61-10.01-10-1.95-2.39-4.33-4.6-5.29-4.92-.97-.32-5.04-.78-9.06-1.03l-7.3-.45-3.31-7.53c-3.81-8.67-9.8-18.07-12.74-19.99-3.21-2.1-8.94-1.67-16.3,1.22-5.59,2.2-7.33,2.52-13.64,2.52-8.76,0-10.72,.96-14.94,7.31-5.58,8.4-8.93,18.34-8.09,24.02,.18,1.21,.12,2.19-.13,2.19-1.49,0-6.22-3.96-14.1-11.77-6.33-6.27-9.74-10.34-11.57-13.82-2.5-4.73-2.55-4.99-1.24-6.44,.75-.83,2.8-1.88,4.56-2.32,5.22-1.33,7.18-2.29,9.42-4.63l2.13-2.22-2.44-1.26c-2.14-1.11-2.33-1.46-1.56-2.9,.84-1.58,.39-21.65-.57-25.02-.75-2.65-4.22-1.62-8.08,2.38l-3.61,3.74-2.29-3.81c-2.76-4.58-9.29-10.93-13.14-12.77-2.79-1.33-2.81-1.32-5.05,.83-2,1.92-6.14,9.29-7.42,13.21-.39,1.18-.98,1.35-3.42,.93-3.56-.6-9.28,.57-10.94,2.23-1.09,1.09-1.08,1.62,.12,5.42,.99,3.13,2.32,5.14,5.18,7.82l3.86,3.61h-4.53c-3.96,0-4.97,.34-8.04,2.68-3.5,2.67-6.07,6.74-6.07,9.6s4.75,11.1,7.61,13.27c2.55,1.94,3.4,2.13,9.49,2.13,5.79,0,7.26-.3,10.97-2.2,2.36-1.21,5.07-2.93,6.03-3.83,1.49-1.39,2.04-1.5,3.74-.72,3.17,1.44,7.69,1.11,10.04-.74,1.15-.91,2.2-1.52,2.32-1.36,.12,.16,1.04,2.04,2.04,4.18,1.23,2.64,4.45,6.47,10.01,11.89l8.19,7.99h-2.67c-5.61,.02-24.84,5.45-32.07,9.07-4.94,2.47-8.95,6.11-10.85,9.84-1.77,3.46-3.76,12.01-3.78,16.21-.02,4.19,3.36,10.05,7.83,13.56,5.18,4.08,6.75,6.82,7.37,12.91,.28,2.79,.88,6.27,1.33,7.73,.87,2.84,6.43,9.42,7.97,9.42,.51,0,1.56,.47,2.34,1.04,1.34,.98,1.26,1.27-1.36,5.26-6.97,10.62-6.54,20.88,1.21,29.3,3.37,3.66,7.1,5.95,11.11,6.83,3.12,.69,4.99,2.3,8.92,7.72,1.81,2.49,4.4,5.21,5.76,6.04,3.47,2.11,8.89,1.95,14.56-.44,5.44-2.29,7-2.36,16.57-.7,13.63,2.36,19.19,.53,22.97-7.55,2.12-4.54,2.24-4.64,4.84-4.27,1.46,.21,2.92,.66,3.24,.99,1.13,1.21,19.46,37.46,23.96,47.4,6.95,15.34,6.93,16.07-.27,8.72-20.11-20.55-30.06-22.46-42.58-8.19-2.72,3.1-9.2,10.09-14.41,15.53-10.31,10.78-12.84,14.47-14.33,20.91-.89,3.85-.85,4.31,.46,5.27,3.93,2.87,12.93,3.4,18.1,1.05,1.83-.83,6.04-4.09,9.36-7.25,6.99-6.65,11.03-9.2,18.84-11.85,7.62-2.59,10.49-4.51,14.15-9.46,1.71-2.31,3.48-4.2,3.94-4.2,2,0,10.36,5.21,12.65,7.89,3.48,4.06,5.43,8.24,8.67,18.59,5.17,16.49,8.18,33.13,8.19,45.36,0,4.71-1.89,18.47-3.93,28.47-.97,4.76-4.85,11.46-10.21,17.63-4.15,4.77-4.1,5.59,.17,2.71,3.77-2.54,8.01-8.45,12-16.73,4.48-9.3,12.24-21.49,26.94-42.31,6.51-9.22,14.33-20.73,17.38-25.57l5.55-8.81,4.31,.56c6.78,.88,26.42,.61,31.93-.43,13.98-2.65,34.43-10.2,39.84-14.69,1.88-1.56,1.89-1.64,.39-2.14-3.17-1.07-11.31-5.16-11.31-5.7,0-.3,1.84-1.65,4.09-3,4.65-2.79,8.53-6.5,6.76-6.48-.61,0-3.73,1.59-6.92,3.51-3.2,1.92-6.71,3.49-7.8,3.48-1.81-.02-1.57-.4,2.69-4.31,10.79-9.9,15.03-12.34,32.58-18.68,16.58-5.99,19.76-9.63,27.55-31.4,4.11-11.51,4.76-13.86,3.61-13.15-.45,.28-3.46,1.01-6.69,1.63-9.83,1.88-19.86,6.34-26.88,11.96-1.85,1.48-3.51,2.53-3.7,2.34-.19-.19,1.73-3.26,4.28-6.83,3.79-5.31,5.45-6.92,9.18-8.92,6.29-3.36,9.59-5.82,9.59-7.14,0-.61-.7-1.12-1.56-1.12s-1.56-.13-1.56-.29,1.42-1.83,3.16-3.7c3.53-3.81,5.29-6.5,3.96-6.04-1.77,.61-16.84,16.14-20.17,20.79-1.93,2.7-3.63,4.8-3.76,4.66-.14-.14,.3-1.93,.98-3.98,.98-2.99,1.04-4.13,.3-5.75-1.24-2.72-2.47-1.41-2.99,3.2-.49,4.36-1.38,4.06-2.03-.68-.93-6.81-5.29-13.24-10.96-16.15-4.17-2.14-11.85-2.12-17.97,.05-5.59,1.99-6.76,2.96-5.08,4.24,3.17,2.44,5.51,6.92,7.4,14.21,3.26,12.56,5.74,15.48,13.25,15.68,5.83,.15,6.42,.44,7.83,3.8,.98,2.35,.86,3.15-1.55,10.24-3.39,9.95-3.62,10.47-4.33,10.03-.33-.2-.8-1.4-1.05-2.66-.25-1.26-1.48-3.46-2.72-4.89-1.24-1.43-2.8-3.65-3.46-4.94-1.33-2.6-4.48-5.76-4.48-4.5,0,.44,.56,2.14,1.24,3.77l1.24,2.97-1.82-1.31c-4.21-3.03-9.83-6.05-12.74-6.86-3.94-1.08-10.29-.37-12.21,1.38-1.43,1.3-1.36,1.44,2.26,4.9,3.32,3.17,3.89,4.22,5.12,9.45,1.82,7.73,3.47,10.25,8.48,12.96,4.84,2.62,5.07,3.94,1.57,9.11-1.82,2.69-2.57,3.2-4.48,3.04-14.07-1.15-22.15-1.1-26.5,.17-9.3,2.7-15.31,7.84-18.19,15.54-.91,2.43-1.65,4.72-1.65,5.1,0,.68-7.05,3.39-7.54,2.9-.14-.14,1.52-4.79,3.7-10.33,8.06-20.52,12.22-36.74,17.9-69.72,2.18-12.65,4.34-24.23,4.81-25.73,1.91-6.13,14.93-19.69,27.03-28.13,3.64-2.54,6.91-4.62,7.26-4.62s.65,.71,.65,1.58c0,2.59,3.17,3.51,8.19,2.39,3.95-.88,4.51-.83,6.92,.66,4.03,2.49,7.72,2.16,10.13-.92,1.09-1.39,2.47-3.09,3.05-3.77,.59-.68,4.16-1.85,8.02-2.61,3.83-.76,7.57-1.71,8.32-2.11,1.86-1,1.72-4.13-.37-7.84-1.62-2.89-1.65-3.14-.38-3.85,3.4-1.9,6.1-12.6,3.77-14.93-.55-.55-3.07-.95-5.98-.95-4.16,0-4.96-.2-4.58-1.17,1.9-4.91,.74-15.44-2.1-19.06-1.25-1.59-2.25-2-4.92-2-1.84,0-4.76,.5-6.48,1.1-2.16,.76-5.01,.97-9.26,.68-4.56-.31-6.88-.11-9.03,.8-3.11,1.3-3.37,1.9-4.01,9.11-.21,2.36-.98,5.47-1.71,6.91-2.62,5.16-.6,14.69,4.19,19.81l2.02,2.16-2.46,4.98c-1.42,2.89-3.54,5.77-5.03,6.86-1.42,1.04-5.54,3.96-9.17,6.51-3.62,2.54-10.01,8.04-14.19,12.22s-7.71,7.6-7.85,7.6-.12-2.72,.05-6.04c.33-6.6,1.53-9.79,4.22-11.19,2.63-1.36,8.37-6.16,8.37-6.99,0-1.27-1.89-.79-4.89,1.25-3.42,2.33-3.55,1.85-1-3.9,2.14-4.84,3.14-5.57,2.41-1.78l-.48,2.53,3.62-3.9c5.45-5.87,8.13-9.77,8.13-11.83,0-1.61-.61-1.2-4.61,3.04-2.53,2.69-4.85,4.65-5.15,4.36-.94-.93,1.82-7.82,5.8-14.42,4.4-7.32,7.3-13.5,6.32-13.5-.82,0-7.04,6.98-7.04,7.91,0,.37-.28,.67-.63,.67s-1.09-1.78-1.65-3.96c-.56-2.18-1.88-4.89-2.94-6.04-1.53-1.65-1.81-1.76-1.35-.53,3.07,8.28,3.51,10.25,3.3,14.7l-.23,4.8-.96-3.14c-1.15-3.76-2.97-6.44-3.81-5.6-.33,.33-.15,2.97,.41,5.85,1.78,9.13,1.86,11.5,.5,14.13-1.57,3.04-2.27,2.67-3.54-1.86-1-3.56-2.27-4.69-2.43-2.16-.18,2.84,.29,5.34,1.41,7.5,1.05,2.04,1,2.71-.57,7.62-1.97,6.13-2.84,7.13-3.49,4.01-.25-1.2-.93-4.11-1.5-6.46-.63-2.57-.88-6.41-.64-9.59,.71-9.4-2.7-20.9-9.19-30.93-3.41-5.28-5.06-6.1-4.35-2.17,.25,1.39,1.17,7.27,2.04,13.06,1.91,12.72,3.13,16.72,7.17,23.52,3.85,6.47,5.67,15.28,4.97,24.04-.6,7.59-2.85,19.49-3.67,19.49-.36,0-.65-.49-.65-1.08,0-2.66-6.63-14.07-10.39-17.88-5.31-5.38-19.59-15.55-21.36-15.21-1.19,.23-1.46,1.53-1.94,9.22-.31,4.93-.66,9.66-.79,10.52-.35,2.32-5.03-12.93-6.58-21.44-1.86-10.21-1.86-35.28,0-47.1,2.2-14.02,4.88-23.2,10.24-35.16l2.1-4.68,1.02,2.4c1.51,3.54,5.7,8,9.22,9.8,2,1.02,6.3,1.94,12.16,2.6,5.13,.58,10.85,1.73,13.19,2.66,5.31,2.12,7.64,2.06,11.47-.3,5.11-3.15,7.99-4.29,10.79-4.29,3.3,0,6.57-2.48,8.1-6.14,.63-1.52,2.87-5.37,4.97-8.55,4.98-7.55,5.09-10.32,.75-18.84l-3.08-6.04,4.65-.53c5.93-.67,9.99-2.11,14.3-5.08,4.18-2.88,6.37-6.26,7.52-11.64,.63-2.96,1.95-5.4,4.79-8.91,5.11-6.32,6.96-10.63,7.43-17.34,.29-4.15-.03-6.99-1.31-11.67-3.55-12.94-9.32-19.99-21.36-26.1-5.73-2.9-7.39-3.4-11.44-3.4s-4.66-.19-4.22-1.24c1.07-2.52,1.28-13.47,.35-18.2-2.27-11.62-8.59-20.35-17.76-24.55-3.75-1.72-5.95-2.08-15.73-2.59-6.54-.34-13.03-1.11-15.27-1.82-4.62-1.46-9.73-1.52-14.03-.16Zm13.64,2.47c2.36,.66,9.41,1.5,15.67,1.86,9.85,.57,11.96,.93,15.71,2.7,9.84,4.65,16.2,16.46,16.18,30.05,0,7.35-1.21,10.83-4.99,14.45-9.56,9.17-23.83,21.5-28.64,24.76-4.95,3.36-8.48,4.66-8.46,3.12,0-.32,2.45-2.79,5.44-5.49,5.03-4.55,12.49-13.3,12.49-14.67,0-.32-1.32,.96-2.92,2.86-5.67,6.69-16.13,15.54-18.36,15.54-1.88,0-1.52-.99,2.59-7.03,4.24-6.24,3.39-5.94-1.31,.46-3.43,4.68-3.96,5.09-6.01,4.68-1.23-.25-2.94-.45-3.8-.45-1.48,0-1.47-.12,.35-2.53,3.11-4.15,3.28-5.1,.3-1.75-1.53,1.72-2.78,3.56-2.79,4.09,0,.54-.29,.97-.63,.97-.91,0-.27-9.54,1.11-16.76,.78-4.08,2.76-9.6,5.73-15.98,2.49-5.36,4.73-10.97,4.98-12.48l.44-2.73-.94,2.34c-.52,1.29-2.65,5.85-4.74,10.14-5.52,11.33-6.67,15.23-7.66,25.94-.61,6.67-1.13,9.35-1.7,8.79-.45-.45-1.77-.81-2.93-.81-1.82,0-2.31-.52-3.45-3.7-1.68-4.65-5.63-13.45-6.04-13.45-.17,0,1.19,3.77,3.01,8.38,1.83,4.61,3.17,8.53,2.98,8.72-.81,.81-4.75-3.05-6.35-6.24-3.26-6.49-7.22-29-7.22-41.08,0-10.87,2.53-15.94,10.53-21.08,7.44-4.79,13.6-5.82,21.44-3.62Zm-9.45,3.7c-3.63,1.36-6.55,3.49-10.44,7.6-2.8,2.97-2.57,2.85,2.34-1.14,3.61-2.94,6.85-4.84,9.6-5.64,3.86-1.12,4.85-1.09,14.69,.48,12.01,1.92,14.94,1.68,4-.33-10.42-1.91-16.86-2.22-20.19-.97Zm21.14,13.01c1.53,.99,3.9,.99,3.9,0,0-.43-1.14-.77-2.53-.77-1.92,0-2.25,.19-1.36,.77Zm-53.36,7.89l6.87,4.27,1.68,10.88c3.33,21.57,5.46,28.28,10.24,32.23l2.67,2.2-1.97,1.29c-1.94,1.27-1.99,1.25-3.51-1.64-1.81-3.42-2.1-2.88-.51,.93,1.14,2.72,.75,3.61-2.36,5.35-.49,.28-3.02-2.29-5.83-5.91-2.73-3.52-8.7-10.26-13.26-14.99-4.57-4.72-9.75-10.66-11.52-13.2-1.77-2.54-3.22-4.27-3.22-3.86,0,1.84,5.25,8.72,12.57,16.45,8.53,9.01,16.44,18.56,18.15,21.91,.71,1.39,.83,2.67,.37,3.9l-.69,1.83-3.7-2.14c-2.04-1.18-5.81-3.79-8.38-5.81-4.2-3.29-9.76-6.78-7.8-4.89,2.61,2.51,14.57,11.2,17.35,12.61,3.76,1.9,4.43,3.49,1.17,2.75-6.04-1.36-8.58-2.04-10.55-2.81-1.19-.47-2.37-.65-2.61-.41-.58,.58,11.74,4.45,14.17,4.45,2.13,0,2.37,.65,.93,2.55-.61,.8-2.43,1.39-4.87,1.57l-3.9,.28,4.09,.14c6.35,.22,4.9,1.7-1.65,1.7-10.5,0-37.68-5.65-44.91-9.34-4.15-2.12-8.87-6.86-11.03-11.09-2.41-4.72-2.48-12.85-.15-18.2,.94-2.17,2.08-6.9,2.54-10.52,1.04-8.33,3.75-14.11,7.89-16.85,1.66-1.1,6.07-2.86,9.8-3.91,3.73-1.05,8.21-2.64,9.96-3.54,4.82-2.46,6.72-2.92,11.08-2.68,3.27,.18,5.24,1,10.87,4.5Zm-25.78,3.8c-2.57,.79-3.98,1.46-3.12,1.49,2.2,.08,7.26-1.41,7.81-2.3,.25-.41,.36-.72,.22-.69-.13,.04-2.35,.71-4.92,1.5Zm19.88,7.32c0,.64,.35,1.39,.78,1.65s.78-.04,.78-.69-.35-1.39-.78-1.65-.78,.04-.78,.69Zm-29.73,8.09c3.87,4.98,12.66,11.57,18.23,13.66,2.63,.99,1.32-.04-3.87-3.04-2.88-1.66-7.87-5.48-11.08-8.48-4.71-4.4-5.35-4.82-3.27-2.14Zm140.97,7.65c10.76,5.14,17.28,13.36,20.1,25.33,2.21,9.37,1.03,17.18-3.46,23.03-1.29,1.68-3.35,4.35-4.58,5.94-1.36,1.77-2.58,4.68-3.14,7.49-.71,3.59-1.54,5.24-3.81,7.55-6.67,6.77-17.87,9.14-27.91,5.9-13.27-4.29-23.4-10.54-30.66-18.93-1.95-2.25-2.41-3.28-1.76-3.92,.65-.65,1.35-.43,2.69,.83,2.49,2.34,3.58,2.16,1.35-.22-1.58-1.68-1.67-2.11-.75-3.31,.58-.76,1.11-1.48,1.17-1.59,.06-.11,1.75,.72,3.77,1.84,4.97,2.78,5.37,1.9,.55-1.2-2.79-1.79-4.02-3.15-4.39-4.83-.28-1.29-.36-2.5-.18-2.68,.19-.18,6.1-1.78,13.13-3.54,10.07-2.52,14.91-3.32,22.7-3.73,5.45-.29,10.18-.82,10.53-1.19,.34-.37-4.28-.45-10.29-.18-9.12,.41-12.9,1-22.98,3.57-6.64,1.7-12.12,3.01-12.18,2.93-.06-.08-.29-1.82-.51-3.85-.36-3.38-.25-3.7,1.26-3.69,2.52,.02,14.93-3.39,13.76-3.77-.56-.19-4.3,.48-8.32,1.49l-7.3,1.83-1.56-1.56-1.56-1.56,5.27-3.45c2.9-1.9,8.96-6.97,13.48-11.28,8.99-8.56,17.83-15.04,21.92-16.04,3.8-.93,7.35-.2,13.66,2.81Zm-55.2,10.28c-.97,1.24-.94,1.26,.29,.29,1.3-1.02,1.71-1.66,1.07-1.66-.16,0-.78,.61-1.36,1.36Zm-83.33,13.93c1.5,.68,3.95,1.39,5.46,1.56l2.73,.32-2.76-1.08c-1.52-.6-3.97-1.3-5.46-1.56l-2.7-.48,2.72,1.24Zm61.43-.6c.57,.36,.79,1.27,.51,2.13-.33,1.02-.26,1.18,.22,.51,.39-.54,2.62-1.38,4.95-1.86,4.03-.83,4.51-.75,9.89,1.68,7.5,3.38,8.63,5.2,8.83,14.27l.15,6.82-3.03,2.9c-1.67,1.6-3.63,4.04-4.36,5.44-.96,1.82-1.87,2.53-3.27,2.53-1.07,0-2.19,.4-2.49,.89-.38,.62,.08,.77,1.49,.5,2.62-.5,2.04,.45-1.06,1.74-2.11,.87-2.76,.8-5.28-.58-1.58-.87-5.09-1.79-7.81-2.06-5.88-.58-7.03-1.14-8.65-4.22-.68-1.29-2.41-4-3.86-6.02-2.51-3.51-2.59-3.81-1.65-6.64,.7-2.11,.75-3.61,.19-5.22-.57-1.65-.52-2.78,.22-4.18,1.12-2.14,6.73-6.42,10.66-8.12,3.05-1.33,3.07-1.33,4.35-.52Zm-4.12,4.02c-.27,.43-.11,.78,.34,.78s.83-.35,.83-.78-.15-.78-.34-.78-.56,.35-.83,.78Zm10.27,.52c-.81,.81-.61,3.38,.26,3.38,.43,0,.78-.32,.78-.72s.21-1.27,.47-1.95c.47-1.23-.53-1.7-1.51-.71Zm-13.99,3.07c-.31,.31-.56,1.3-.55,2.19,.02,1.5,.09,1.52,.84,.23,.87-1.5,.65-3.36-.29-2.42Zm8.79,1.87c0,.43,.35,.78,.78,.78s.78-.35,.78-.78-.35-.78-.78-.78-.78,.35-.78,.78Zm18.53-.26c.55,.22,1.57,1.51,2.27,2.86,.73,1.42,1.42,2.04,1.62,1.46,.5-1.49-1.98-4.86-3.53-4.79-.84,.04-.97,.21-.36,.46Zm70.65,7.41c.08,6.8-1.15,9.57-6.44,14.57-1.98,1.87-2.9,3.04-2.04,2.61,2.68-1.35,7.54-6.54,8.67-9.23,1.18-2.82,1.44-10.99,.4-12.62-.38-.61-.63,1.33-.59,4.68Zm-81.38-3.58c0,.68,.42,1.1,.93,.93,1.45-.48,1.68-2.16,.31-2.16-.68,0-1.23,.56-1.23,1.23Zm57.31-.45c-.56,.91,1.43,1.86,2.9,1.37,.65-.22,.4-.65-.71-1.25-1.12-.6-1.87-.64-2.19-.13Zm-125.28,5.01c12.36,3.1,25.76,5.31,34.06,5.61,8.72,.31,10.64,1.46,3.75,2.24-6.79,.77-6.81,1.14-.04,.95,4.41-.12,6.04,.1,6.04,.81,0,.54-.49,.97-1.09,.97-2,0-14.9,6.89-16.86,9.01-1.59,1.71-1.04,1.51,3.02-1.1,4.75-3.05,10.86-5.74,15.48-6.81,1.41-.33-.28,1.19-4.84,4.32-9.72,6.69-12.27,9.36-17.8,18.63-2.65,4.44-5.99,9.46-7.44,11.15-1.44,1.69-2.45,3.25-2.24,3.46,.74,.74,6.17-6.35,11.1-14.5,2.72-4.5,6.12-9.28,7.54-10.62,2.53-2.37,13.69-10.1,15.69-10.87,.62-.24,1.56,.86,2.42,2.82,1.24,2.81,1.3,3.79,.51,7.82-.5,2.53-1.44,5.87-2.08,7.42-.65,1.55-1.03,2.96-.85,3.15,.59,.59,3.48-7.02,4.43-11.68,.9-4.39,1-4.53,3-4.03,1.14,.29,2.23,.68,2.43,.88,.2,.2-3.03,7.02-7.18,15.17-4.14,8.14-7.23,14.62-6.85,14.39,.93-.58,5.36-8.59,11-19.87,2.58-5.16,4.96-9.39,5.31-9.39,.61,0,1.22,12.1,1,19.88-.16,5.72-2.76,13.47-6.15,18.34-3.77,5.42-9.74,9.46-17.91,12.13-5.37,1.76-7.35,2.03-12.25,1.72-7.99-.51-12.07-2.72-17.59-9.49-4.85-5.96-6.53-7.05-12.1-7.86-5.02-.73-7.58-2.28-10.53-6.38-4.73-6.58-6.17-14.11-4.36-22.77,1.67-7.99,11.18-27.4,13.42-27.4,.22,0,3.8,.85,7.95,1.9Zm46.92,.79c0,.67,.35,1.22,.78,1.22s.78-.33,.78-.73-.35-.95-.78-1.22-.78,.07-.78,.73Zm8.58,1.61c0,.64,.35,1.17,.78,1.17s.78-.53,.78-1.17-.35-1.17-.78-1.17-.78,.53-.78,1.17Zm20.27-.39c0,.43,.35,.78,.78,.78s.78-.35,.78-.78-.35-.78-.78-.78-.78,.35-.78,.78Zm3.69,2.03c-.31,.31-.57,1.11-.57,1.76,0,.88,.23,.96,.87,.33,.48-.48,.73-1.27,.57-1.76-.16-.49-.56-.64-.87-.33Zm39.2,.23c0,.79,2.37,1.87,2.92,1.32,.2-.2,.13-.73-.16-1.19-.62-1.01-2.76-1.11-2.76-.14Zm-54.21,4.02c-.74,1.2,.27,1.97,1.27,.97,.56-.56,.57-1,.04-1.32-.44-.27-1.03-.11-1.32,.35Zm-199.5,3.74c7.51,5.48,13.54,14.63,13.56,20.58,0,1.6-1.04,6.2-2.33,10.22-1.29,4.02-2.34,8.23-2.34,9.37s-.35,2.06-.78,2.06c-1.15,0-.95-3.46,.48-8.37,1.47-5.05,1.23-17.57-.38-20.08-.91-1.42-.95-1.42-.53-.08,1.36,4.28,1.37,13.03,.03,18.72-.77,3.26-1.64,5.92-1.93,5.92s-1.13-2.12-1.85-4.71c-1.74-6.27-4.32-10.2-10.8-16.52l-5.39-5.25,1.64-3.72c2.58-5.84,5.43-10.35,6.55-10.35,.56,0,2.39,1,4.06,2.22Zm208.21-1.67c-.88,.88-.53,1.8,.67,1.8,.64,0,1.17-.33,1.17-.73,0-.98-1.22-1.69-1.84-1.06Zm-10.14,3.9c-.88,.88-.53,1.8,.67,1.8,.64,0,1.17-.33,1.17-.73,0-.98-1.22-1.69-1.84-1.06Zm29.91,12.5c5.55,3.7,11.55,6.54,18.71,8.84l6.63,2.13,3.42,6.43c4.52,8.51,4.58,10.94,.38,16.89-1.75,2.49-4.09,6.3-5.19,8.47-2.5,4.94-3.19,5.47-7.84,6.08-2.27,.3-5.53,1.58-8.2,3.23-5.14,3.17-7.77,3.4-12.95,1.11-2.3-1.02-6.63-1.89-11.6-2.34-9.95-.9-13.62-2.26-17.52-6.49-4.46-4.83-4.65-6.77-1.45-14.59,3.94-9.64,4.68-13.71,4.29-23.6-.19-4.76-.1-9.72,.19-11,.38-1.67,.56-.76,.63,3.16,.06,3.5,.51,6.05,1.24,7.02,1.04,1.38,1.08,1.27,.39-1.21-.94-3.4-.99-10.14-.07-10.14,1.05,0,2.14,1.66,3.15,4.81,.51,1.57,1.43,3.28,2.05,3.8,1.52,1.26,1.42,.48-.4-3.09-1.43-2.81-1.41-3.96,.08-3.96,.35,0,1.49,1.67,2.53,3.7s4.34,6.9,7.31,10.81c8.23,10.8,9.51,14.05,10.38,26.26,.4,5.6,.89,10.36,1.1,10.57,.67,.67,.38-11-.42-16.51-1.09-7.56-3.36-12.25-10.35-21.43-3.37-4.42-6.59-9.15-7.16-10.5-.99-2.37-.94-2.51,1.36-3.91,2.17-1.32,2.45-1.34,3.09-.2,1.81,3.23,16.74,19.74,15.49,17.12-.43-.9-2.81-3.89-5.3-6.64-9.57-10.6-10.52-12.3-8.73-15.65,.81-1.51,1.15-1.32,6.04,3.45,2.85,2.78,6.76,6.11,8.69,7.4Zm-107.19-3.62c-2.29,4.77-2.75,6.6-2.74,10.83,0,5.33,2.28,11.76,4.94,13.96,1.89,1.57,1.58,.37-.68-2.59-2.48-3.25-3.9-9.8-3.17-14.64,.3-2.03,1.57-5.7,2.81-8.16,1.24-2.46,2.11-4.63,1.93-4.81-.18-.18-1.57,2.25-3.08,5.41Zm-96.79,6.95c.36,6.73,.25,10.66-.3,11.7-.66,1.23-6.14,4.62-11.11,6.88-1.84,.84,.02-2.11,4.09-6.49,2.57-2.77,4.68-5.43,4.68-5.91s-1.62,.92-3.61,3.13c-1.98,2.21-3.77,3.85-3.98,3.65-.2-.2,.02-1.54,.49-2.97,.73-2.22,1.5-8.58,1.61-13.27,.04-1.58,5.09-6.85,6.57-6.85,.77,0,1.16,2.54,1.56,10.13Zm-35.08-1.96c6.76,3.96,12.79,12.55,14.18,20.22l.55,3.06-2.38-1.7c-1.31-.93-3.86-3.46-5.67-5.62-4.54-5.43-4.85-4.24-.4,1.55,2,2.6,3.44,4.73,3.2,4.73-1.1,0-17.49-10.52-19.83-12.72-2.52-2.38-5.5-7.61-5.54-9.72-.05-3.17,10.34-3.04,15.88,.21Zm260.9,14.83c0,.22,1.05,1.85,2.34,3.63,2.62,3.62,2.86,5.12,1.19,7.33-1.67,2.21-1.44,3.15,.36,1.51,2.31-2.09,1.99-5.74-.85-9.59-2.26-3.07-3.05-3.82-3.05-2.88Zm-258.28,6.32c3.97,2.03,7.21,3.97,7.21,4.3,0,.93-4.09,1.38-15.59,1.71-7.71,.22-11.33,.65-13.54,1.63-3.79,1.68-5.17,1.17-5.17-1.91,0-3.33,1.09-5.08,4.91-7.88,3.14-2.3,3.52-2.38,9.12-1.97,4.99,.36,6.91,.97,13.06,4.12Zm33.69-1.68c.52,.62,.72,1.5,.45,1.94-.63,1.02-13.58,5.08-14.2,4.46-.85-.85,1.51-2.91,5.93-5.17,5.01-2.56,6.52-2.8,7.83-1.22Zm67.07,6.39c1.2,.71,3.64,3.52,5.44,6.25,3.52,5.35,9.39,17.33,9.39,19.15,0,.62-1.78,2.27-3.96,3.69-7.8,5.05-14.45,15.86-18.39,29.9l-2.13,7.56h-3.2c-1.76,0-3.67,.44-4.24,.97-.86,.8-.94,.63-.48-.97,2.73-9.55,2.42-18.69-1.05-30.57-1.29-4.42-2.49-8.91-2.66-9.98-.27-1.63-.34-1.54-.43,.53-.06,1.37,.98,6.63,2.3,11.7,2.16,8.28,2.37,10.04,2.03,17.4-.45,9.58-.89,11.09-3.17,10.76-1.47-.21-1.72-.94-2.26-6.47-.33-3.43-.93-9.57-1.32-13.64-.61-6.29-.66-5.35-.35,6.24l.36,13.64-1.62-2.62c-.89-1.44-1.8-2.44-2.03-2.21-.23,.23,.18,1.31,.9,2.41,1.26,1.93,1.24,2.09-.61,4.29l-1.92,2.29-1.74-3.1c-2.26-4.02-2.97-3.35-.86,.8l1.62,3.17-2.09,1.09c-1.94,1.02-2.2,.95-3.79-.95-.93-1.12-4.1-9.06-7.04-17.64-5.04-14.73-5.34-15.98-5.35-22.61,0-5.97,.31-7.69,2.08-11.53,2.85-6.18,8.05-13.41,10.4-14.48,1.07-.49,4.92-.89,8.56-.89,6.46,0,7.87-.34,18.27-4.34,3.7-1.43,6.74-1.37,9.34,.17Zm-89.15,2.07c-.79,.51-3.95,2.96-7.02,5.44-10.94,8.86-22.94,9.45-28.36,1.39-.96-1.42-1.57-2.86-1.37-3.2,1.21-1.95,8.21-3.1,19.42-3.19,6.46-.05,12.8-.36,14.09-.69,3.7-.94,4.93-.85,3.23,.24Zm7.29,.97c0,1.42-2.52,4.89-3.79,5.23-1.83,.48-5.57-.16-5.57-.95,0-.89,2.57-2.99,4.69-3.84,2.16-.86,4.66-1.1,4.66-.44Zm57.79,4.72c-8.3,1.51-10.12,2.87-14.15,10.62-3.08,5.92-2.92,6.79,.24,1.36,4.97-8.53,6.18-9.46,14.22-10.82,3.01-.51,5.99-1.26,6.63-1.66,1.5-.95,.71-.89-6.94,.5Zm57.05,21.65c1.38,.59,4.26,3.22,6.41,5.86s5.91,6.35,8.36,8.27c8.31,6.49,10.77,13.27,8.12,22.39-1.64,5.65-6.65,13.08-10.74,15.91-3.16,2.19-3.61,2.27-16.19,2.8-11.24,.48-17.86,1.39-24.83,3.42-1.55,.45-1.75,.23-1.75-1.89s1.04-3.26,8.1-9.14c8.47-7.05,13.89-13.51,18.77-22.36,3.88-7.05,2.91-6.74-1.23,.39-1.81,3.11-4.78,7.61-6.6,10-3.47,4.54-18.48,17.39-19.32,16.54-1.96-1.96,1.79-9.39,6.21-12.29,1.11-.73,1.82-1.51,1.59-1.74-.62-.62-5.24,3.44-7.46,6.53-1.87,2.61-1.93,2.63-3.38,1.17-1.45-1.45-1.44-1.57,.97-6.33,1.35-2.67,2.79-5.75,3.21-6.85,1.55-4.07-1.23-.4-3.94,5.2-1.47,3.03-3.08,5.51-3.6,5.51s-1.66-.61-2.56-1.36l-1.62-1.36,2.55-8.59c5-16.85,11.56-27.08,20.41-31.81,3.02-1.61,14.96-1.77,18.54-.25Zm-89.27,5.87c4.4,2.24,5.45,3.84,8.81,13.45,1.71,4.87,3.97,11.02,5.03,13.67,1.06,2.65,1.92,5.19,1.92,5.66s-1.32,.02-2.92-.99c-3.66-2.3-8.58-4.82-7.79-3.99,.33,.34,3.29,2.41,6.58,4.58,6.6,4.36,9.65,7.71,8.27,9.09-.6,.6-2.99-.18-8.43-2.77-4.17-1.99-7.75-3.45-7.95-3.25-.2,.2,2.21,1.6,5.35,3.1,7.24,3.46,8.65,4.53,8.06,6.08-.42,1.09-1.68,.99-11.33-.97-5.97-1.21-11.89-2.73-13.15-3.38-1.26-.65-3.6-2.78-5.2-4.73-1.6-1.95-3.06-3.38-3.26-3.18-.64,.64,4.73,6.73,7.4,8.38,2.36,1.46,6.42,2.54,19.89,5.31,2.47,.51,4.48,1.18,4.48,1.5,0,1.13-14.46,4.35-19.49,4.35-3.89,0-6.14-.5-9.67-2.14-2.53-1.18-4.77-1.97-4.98-1.76-.21,.21,1.86,1.44,4.6,2.74,6.16,2.91,11.82,3.1,21.37,.71,3.62-.91,7.11-1.44,7.77-1.19,2.16,.83,1.24,2.58-1.9,3.62-1.7,.56-3.89,1.9-4.87,2.97l-1.78,1.95,3.9-2.15,3.9-2.15-3.48,3.01c-1.91,1.66-5.77,5.02-8.58,7.47-7.9,6.92-18.71,11.53-24.03,10.25-5.42-1.3-10.99-5.6-12.49-9.64-.4-1.07-.98-4.41-1.29-7.41-.71-6.83-2.46-10.01-8.4-15.24-5.95-5.24-7.17-8.04-6.53-14.95,1.31-14.14,6.87-19.8,24.74-25.22,14.65-4.44,20.87-5.11,25.47-2.76Zm253.33,12.06c.69,1.34,1.43,4.8,1.64,7.7,.34,4.74,.13,5.77-2.06,10.22-3.88,7.88-12.09,14.44-20.69,16.55l-2.25,.55,3.14-4.21c3.65-4.88,6.04-9.43,8.09-15.4,2.07-6.03,1.75-6.89-.45-1.19-1.97,5.12-4.66,9.75-8.53,14.7l-2.42,3.1-.45-4.26c-.25-2.35-.71-5.18-1.03-6.3-.48-1.69-.04-2.65,2.62-5.72,3.46-4,5.51-7.64,7.04-12.52q1.27-4.05,6.17-5.3c5.5-1.41,7.65-.92,9.2,2.07Zm-16.63-.32c1.62,1.62-3.07,11.21-7.62,15.58-2.71,2.6-2.83,2.64-3.92,1.17-1.93-2.59-2.89-8.17-2.11-12.27,.39-2.06,.91-3.94,1.15-4.18,1.67-1.67,10.9-1.89,12.5-.3Zm-279.02,4.7c-.3,.48-.99,3.47-1.54,6.65-1.01,5.84-.59,11.17,1.15,14.42,1.38,2.58,1.55,1.74,.35-1.67-1.42-4.03-1.43-9.08-.01-15.1,1.09-4.62,1.1-6,.05-4.3Zm36.25,2.99c0,.94,1.48,2.04,2.02,1.5,.2-.2-.18-.8-.83-1.34-.74-.62-1.19-.67-1.19-.16Zm142.44,1.07c-.25,.62-.43,.44-.47-.47-.03-.82,.15-1.28,.41-1.02s.29,.93,.06,1.49Zm106.35-.47c.04,.91,.22,1.09,.47,.47,.23-.56,.2-1.24-.06-1.49s-.44,.2-.41,1.02Zm-107.23,19.23c0,11.87,.36,17.73,1.43,23.59,1.43,7.83,4.48,18.59,6.31,22.22,.54,1.07,1.21,2.83,1.5,3.9,1.33,5.02-2.85-4.22-5.36-11.86-3.64-11.07-5.27-20.81-5.39-32.19-.08-7.7,.79-21.44,1.35-21.44,.08,0,.15,7.11,.16,15.79Zm41.26-10.54c2.86,5.71,5.22,15.64,4.92,20.62l-.25,4.14-2.49-5.07c-1.51-3.07-2.83-7.37-3.35-10.92-.47-3.22-1.14-7.71-1.48-9.99-.71-4.75-.21-4.52,2.65,1.2Zm47.68,2.54c1.67,3.24,2.27,5.61,2.46,9.75l.25,5.46-2.74-2.87c-3.24-3.41-5.55-10.27-4.73-14.1,1.04-4.87,1.38-4.75,4.74,1.76Zm41.12,1.19c.57,1.48-.19,5.6-1.53,8.26-1.34,2.67-3.81,3.54-12.92,4.54-11.41,1.26-11.69,1.21-7.62-1.37,3.36-2.13,10.87-9.79,10.87-11.08,0-.89,2.07-1.34,6.74-1.44,2.92-.07,4.13,.23,4.46,1.09Zm-228.5,1.5c1.19,.9,1.75,.89,3.7-.08,3.04-1.51,4.86-1.07,5.41,1.31,.26,1.15,1.47,2.46,2.95,3.21,3.82,1.93,4.98,3.12,6.61,6.79,1.42,3.21,1.43,3.45,.14,4.87-1.16,1.29-1.19,1.5-.15,1.5,2.43,0,2.91,4.54,.68,6.55-.81,.73-1.68,2.36-1.93,3.63-.62,3.08-4.47,5.44-7.96,4.87-2.2-.36-2.94-.04-4.92,2.13-2.27,2.49-2.39,2.52-4.3,1.27-1.08-.71-2.59-1.23-3.36-1.17-3,.26-7.69-.18-8.69-.82-.81-.52-.86-1.04-.19-2.29,.72-1.35,.61-1.77-.65-2.44-.83-.45-2.22-.81-3.07-.81-1.42,0-1.52-.38-1.11-4.3,.35-3.44,.17-4.6-.93-5.82-2.84-3.14,1.43-11.39,7.14-13.77,1.43-.6,2.59-1.49,2.59-1.99,0-3.1,5.18-4.8,8.03-2.64Zm68.39,3.94c-.92,1.49-2.58,3.42-3.68,4.29-1.1,.86-1.67,1.57-1.27,1.57,.96,0,5.28-4.58,6.43-6.82,1.4-2.72,.39-2.07-1.49,.96Zm-74.81,.74c-.53,.63-.81,1.78-.62,2.55,.26,1.12,.52,.95,1.26-.85,1.06-2.58,.76-3.38-.63-1.7Zm6.97,.45c0,.43,.53,.78,1.17,.78s1.17-.35,1.17-.78-.53-.78-1.17-.78-1.17,.35-1.17,.78Zm10.92,3.12c0,.43,.35,.78,.78,.78s.78-.35,.78-.78-.35-.78-.78-.78-.78,.35-.78,.78Zm-26.51,3.55c0,.67,.35,1,.78,.73s.78-.81,.78-1.22-.35-.73-.78-.73-.78,.55-.78,1.22Zm239.31,3.75c1.73,2.79,2.07,4.81,.93,5.51-.38,.24-3.1,.95-6.04,1.59-2.94,.64-6.05,1.35-6.91,1.58-1.2,.32-1.83-.17-2.73-2.13-.64-1.4-2.84-3.78-4.88-5.28l-3.71-2.73,6.83-.44c15.23-.97,14.71-1.03,16.51,1.89Zm-229.95-1.07c0,.43,.35,.78,.78,.78s.78-.35,.78-.78-.35-.78-.78-.78-.78,.35-.78,.78Zm75.79,4.62c9.57,7.24,12.7,14.29,12.7,28.52,0,8.92-.11,9.55-2.32,13.54-2.47,4.46-8.62,10.49-18.74,18.39-11.27,8.8-13.23,9.13-29.68,5.09-13.84-3.4-14.88-3.9-16.65-8.04-4.75-11.08-9.42-29.28-9.42-36.73,0-3.54,.28-4.44,1.61-5.16,1.25-.67,2.02-.59,3.42,.32,1.66,1.09,1.93,1.06,3.19-.33,.76-.84,1.8-1.52,2.32-1.52,1.09,0,11.57,8.17,14.35,11.2,1.04,1.13,2.25,2.05,2.7,2.05,1.07,0-4.8-5.94-10.53-10.66-2.51-2.07-4.58-4.19-4.58-4.7,0-1.49,1.39-1.94,3.14-1.01,.89,.48,2.01,.74,2.49,.58s-.46-.92-2.07-1.68c-4.22-2-2.51-3.2,4.56-3.2,5.3,0,6.27,.28,13.8,4.03,4.46,2.22,11.44,6.38,15.51,9.26,4.07,2.88,6.7,4.45,5.85,3.48-2.25-2.51-17.93-12.82-23.14-15.2-4.93-2.26-11.62-3.59-14.87-2.97-1.63,.31-2.14,.1-2.14-.87,0-.8,.88-1.46,2.34-1.75,1.29-.26,2.34-.71,2.34-1.02s.61-.55,1.36-.54c5.21,.02,8.03-.37,7.6-1.05-.6-.98-2.08-.81,12.89-1.48,7.14-.32,13.57-.98,14.42-1.48,2.17-1.26,1.95-1.34,7.55,2.9Zm129.98-2.32c5.52,2.82,7.87,5.33,7.87,8.44,0,4.96-5.12,8.18-8.6,5.41-2.08-1.65-8.43-9.87-8.99-11.62-1.15-3.63,4.45-4.92,9.72-2.23Zm-196.77-.02c-.53,.86,.7,1.79,1.42,1.07,.74-.74,.6-1.8-.24-1.8-.4,0-.94,.33-1.18,.73Zm-14.46,2.78c0,.64,.35,1.17,.78,1.17s.78-.53,.78-1.17-.35-1.17-.78-1.17-.78,.53-.78,1.17Zm-8.14,5.33c-.41,3.25-.26,4.38,.68,5.15,1.05,.87,.92,1.32-1.11,3.79-1.27,1.54-2.14,2.96-1.95,3.15,.32,.32,1.3-.76,4.84-5.29,.79-1.01,.95-.68,.97,2,.03,3.51-3.14,8.9-12.25,20.83-5.05,6.62-8.48,12.22-7.46,12.21,.35,0,1.4-1.32,2.33-2.92,.93-1.6,4.49-6.49,7.91-10.86,3.42-4.37,7.33-9.89,8.7-12.28,1.66-2.91,2.98-4.34,3.99-4.34,.83,0,1.5,.16,1.5,.35s-2.28,4.97-5.07,10.63c-2.79,5.65-5.06,10.84-5.04,11.54,.01,.7,2.5-3.65,5.53-9.65,3.03-6,5.81-11.24,6.2-11.64,.42-.44,1.31-.16,2.27,.71,1.53,1.38,1.63,1.38,3.27-.06,1.33-1.16,1.6-1.22,1.25-.25-.25,.68-1.94,5.76-3.76,11.31-1.82,5.54-3.95,11.57-4.73,13.39-.78,1.82-1.12,3.31-.77,3.31,.64,0,4.2-7.49,5.01-10.53,.96-3.61,5.37-17.54,5.55-17.54,.11,0,1.3,.39,2.65,.86,2,.7,2.46,1.28,2.46,3.15,0,6.4,6.82,30.23,10.73,37.51,1.84,3.43,1.91,3.94,.98,6.78-.56,1.69-2.17,4.19-3.59,5.57-3.29,3.19-7.33,3.63-17.66,1.95-10.13-1.65-11.97-1.57-17.6,.71-2.73,1.11-6.35,1.95-8.41,1.95-3.92,0-4.69-.61-12.65-10.03-2.72-3.22-4.18-4.23-7.57-5.21-5.54-1.61-11.26-6.73-13.6-12.17-2.34-5.44-1.91-10.54,1.48-17.42,2.81-5.71,5.82-8.18,9.97-8.18,3.9,0,10.48-2.81,16.05-6.85,6.53-4.73,18.02-14.16,18.35-15.07,.74-1.98,1.03-.22,.57,3.46Zm36.6-3.38c.27,.43,.81,.78,1.22,.78s.73-.35,.73-.78-.55-.78-1.22-.78-1,.35-.73,.78Zm176.59,7.16c0,.29-1.95,.78-4.36,1.08-3.18,.4-4.54,.28-4.98-.44-.69-1.12,.08-4.34,1.66-6.92,1.06-1.73,1.09-1.72,4.37,2,1.81,2.06,3.31,3.99,3.31,4.28Zm-194.91-4.04c0,.43,.55,.78,1.22,.78s1-.35,.73-.78-.81-.78-1.22-.78-.73,.35-.73,.78Zm9.75,3.12c-.78,.86-1.24,1.74-1.03,1.96s1.03-.32,1.81-1.18,1.24-1.74,1.03-1.96-1.03,.32-1.81,1.18Zm-12.87,5.46c0,.99,2.37,.99,3.9,0,.89-.57,.56-.76-1.36-.77-1.39,0-2.53,.34-2.53,.77Zm128.03,7.54c9.75,7.37,15.35,15.52,18.15,26.46,1.13,4.4,1.09,5.27-.76,16.31-1.07,6.42-1.95,12.52-1.95,13.55,0,1.04-.22,1.66-.49,1.39-.66-.66-.42-10.1,.39-15.17,.36-2.25,.4-4.09,.09-4.09s-.8,1.76-1.08,3.91c-.28,2.15-.81,4.69-1.17,5.65-.6,1.59-.73,1.47-1.53-1.37-1.18-4.23-1.06-13.5,.28-21.02,.61-3.42,.97-6.35,.8-6.51-.49-.49-1.85,5.24-2.74,11.5-.45,3.19-.94,5.92-1.08,6.06-.27,.27-2.02-4.27-3.66-9.52-1.18-3.77-1.92-2.42-.83,1.51,.42,1.53,.61,2.78,.42,2.78-.52,0-5.95-3.64-7.79-5.22-3.03-2.61-5.18-6.56-5.77-10.62l-.59-4.04-.1,3.94c-.12,5.01,2.96,10.17,8.22,13.8,6.78,4.67,7.84,6.05,9.96,12.9,1.1,3.56,2,7.22,2,8.13q0,1.65-1.75,.12c-.97-.85-3.28-2.56-5.14-3.8-1.86-1.24-4.58-3.66-6.04-5.36-1.46-1.71-2.65-2.69-2.65-2.18,0,1.5,5.18,6.78,9.75,9.93,5.95,4.1,6.86,5.77,7.26,13.41,.19,3.54,.16,6.43-.06,6.43s-1.3-1.84-2.41-4.09c-1.11-2.25-3.95-6.3-6.31-9-7.87-8.98-12.79-17.56-14.41-25.11-1.28-5.99-1.94-22.38-1.26-31.45l.57-7.62,2.07,1.34c1.14,.74,5.47,3.91,9.63,7.06Zm-58.64-5.2c0,.43,.35,.78,.78,.78s.78-.35,.78-.78-.35-.78-.78-.78-.78,.35-.78,.78Zm11.54,11.55c.49,10.28-.42,11.88-13.2,23.11-5.73,5.04-11.72,9.83-13.32,10.64-3.72,1.9-8.13,1.88-13.24-.06-5.23-1.99-5.75-1.51-.71,.65,4.88,2.1,10.84,2.17,14.72,.19,1.59-.81,5.17-3.56,7.96-6.1,2.79-2.54,6.12-5.47,7.41-6.51,9.62-7.77,12.7-13.69,11.66-22.36-.88-7.29-1.64-7.03-1.28,.44Zm38.36-4.08c0,.35,.88,1.55,1.95,2.67,1.07,1.12,3.87,5.88,6.21,10.57,2.34,4.69,4.27,8.22,4.29,7.84,.06-1.37-4.7-17.03-5.85-19.26-1.86-3.61-2.05-2.64-.35,1.82,2.2,5.79,1.94,6.21-1.07,1.73-2.65-3.94-5.17-6.55-5.17-5.37Zm-154.24,11.64c-1.03,2.25-.4,2.58,1.11,.58,1.2-1.58,1.36-2.53,.43-2.53-.36,0-1.05,.88-1.54,1.95Zm-23.42,4.76c-.19,6.84,2.21,11.49,7.19,13.98,3.33,1.66,3.32,.94-.03-1.26-4.46-2.94-5.91-5.48-6.51-11.41-.52-5.08-.54-5.13-.65-1.32Zm260.18,4.54c6.87,3.59,10.24,12.01,10.26,25.59,0,5.71-1.07,7.06-1.83,2.3-1.23-7.67-8.72-17.59-14.77-19.55-2.03-.66-2.22-.63-1.05,.13,7.28,4.72,9.94,7.7,12.6,14.11,1.2,2.88,1.19,3-.16,2.48-.78-.3-3.87-.84-6.88-1.19-3-.35-6.16-.88-7.02-1.16s-.59,.04,.6,.73c1.19,.69,4.45,1.53,7.25,1.86,5.6,.67,7.67,2.09,8.6,5.91l.56,2.3-2.18-1.71c-1.59-1.25-3.25-1.72-6.17-1.72-2.19,0-4.86-.45-5.92-.99-2.75-1.39-5.12-6.07-7.07-13.95-.93-3.76-2.69-8.41-3.92-10.35-2.14-3.37-2.17-3.55-.75-4.32,4.53-2.42,13.62-2.65,17.83-.46Zm30.54,8.64c0,.53-4.88,3.49-5.76,3.49-1.29,0,3.19-3.08,5.56-3.83,.11-.03,.19,.12,.19,.34Zm-252.15,2.02c-.89,2.87-1.05,4.63-.44,5.01,.76,.47,1.96-4.92,1.25-5.63-.26-.26-.62,.02-.8,.62Zm267.74,7.63c0,1.31-6.32,19.03-7.93,22.23-2.24,4.44-6.39,9.4-9.47,11.3-1.42,.88-6.07,2.81-10.33,4.3-4.26,1.48-10.16,3.78-13.12,5.11-2.96,1.33-5.49,2.29-5.64,2.15-.15-.15,.95-2.7,2.43-5.67,1.48-2.97,3.91-8.91,5.4-13.2,3.59-10.37,4.13-10.76,15.6-11.3,5.93-.28,9.31-.79,10.3-1.54,2.05-1.57,4.17-4.16,4.15-5.09,0-.43-.79,.14-1.74,1.26-2.68,3.18-4.62,3.8-11.76,3.8-3.65,0-7.53,.34-8.63,.76-1.1,.42-2,.47-2,.11,0-.91,8.13-6.48,13.25-9.09,8.08-4.11,19.49-7.11,19.49-5.12Zm-208.91,5.22c3.3,.75,5.7,1.74,6.12,2.53,2.49,4.66,18.22,57.73,16.54,55.81-.34-.39-2.32-4.74-4.4-9.67-2.08-4.93-8.41-18.18-14.07-29.43-5.66-11.26-10.14-20.47-9.95-20.47s2.78,.56,5.76,1.23Zm51.67,19.43c3.3,6.4,5.68,13.02,6.37,17.71,.68,4.66-.85,8.42-7.48,18.34-6.16,9.21-13.36,23.39-14.86,29.23-1,3.9-2.22,4.99-2.22,1.98,0-4.39,1.83-16,2.81-17.9,.6-1.16,3.37-4.67,6.15-7.8,2.78-3.13,5.06-6.03,5.06-6.45,0-.42-1.52,.98-3.38,3.12-1.86,2.14-4.31,4.94-5.43,6.22l-2.04,2.34,1.46-5.19c.8-2.85,2.44-6.89,3.65-8.97,1.41-2.44,1.72-3.4,.86-2.71-3.46,2.78,0-3.37,5.56-9.85,6.5-7.59,6.61-8.56,.2-1.75l-5.51,5.85,.4-7.02c.53-9.38,1.03-14.42,1.65-16.69,.36-1.32,.24-1.71-.39-1.32-.5,.31-.94,1.33-.98,2.27-.07,1.57-.12,1.55-.64-.24-.33-1.13-.77,3.11-1.06,10.14-.47,11.47-.7,12.77-4.43,25.68-2.16,7.48-3.93,14.06-3.93,14.62s-.35,1.02-.78,1.02c-.45,0-.8-2.7-.83-6.43-.03-3.54-.39-7.13-.79-7.99-.48-1.03-.63,2.58-.41,10.53l.33,12.09-1.42-5.46c-1.99-7.67-1.85-11.25,.83-21.05,3.12-11.41,6.24-23.85,9.74-38.83l2.87-12.32,2.92,5.69c1.61,3.13,4.19,8.15,5.74,11.15Zm89.95-1.99c3.53,1.6,11.73,7.31,13.28,9.24,.54,.67,.75,2.07,.49,3.21-.82,3.51-3.52,9.34-4.8,10.38-1.02,.83-1.12,.81-.58-.09,1-1.66,2.56-11.78,1.82-11.78-.36,0-.87,1.07-1.13,2.37-.26,1.3-.69,2.27-.96,2.14-.26-.13-2.66-1.37-5.33-2.76-2.67-1.39-5.12-2.52-5.46-2.51-.83,.02,3.11,3.06,4,3.08,.39,0,1.88,.91,3.31,2.01,2.35,1.79,2.61,2.38,2.61,5.93,0,3.91-.02,3.94-2.14,3.42-1.18-.29-3.43-1.36-4.99-2.39-2.89-1.89-3.67-3.55-6.13-13.02-.52-2.02-2.14-5.06-3.59-6.76-1.78-2.08-2.32-3.21-1.66-3.48,2.26-.91,8.22-.38,11.26,1Zm18.56,15.58c.67,3.99-.79,7.26-5.63,12.53-3.74,4.08-8.81,7.82-8.76,6.48,.01-.35,2.14-3.79,4.72-7.65,2.58-3.86,5.28-9.01,6.01-11.44,1.48-5,2.81-4.97,3.67,.08Zm-165.01,8.29c1.99,1.1,5.2,3.43,7.13,5.19,2.97,2.7,3.21,3.11,1.56,2.72-5.2-1.25-16.15-2.87-19.01-2.82-4.16,.08-2.81,.59,4.73,1.78l6.09,.97-4.55,1.37c-2.5,.75-7.07,2-10.14,2.77-3.07,.78-6.98,2-8.69,2.72l-3.1,1.31,2.27-2.37c1.25-1.3,2.08-2.56,1.84-2.79-.5-.5-5.31,4.81-5.31,5.88,0,.76-4.16,4.77-10.02,9.64-4.6,3.83-3.21,3.58,2.01-.37,2.32-1.75,4.37-3.04,4.55-2.86,.18,.18-1.95,3.88-4.74,8.22-2.79,4.34-5.07,8.12-5.07,8.41,0,1.38,2.71-2.05,6.73-8.52,5.84-9.39,6.76-10.4,5.42-5.9-1.19,3.99-2.37,11.45-1.72,10.8,.24-.24,1.35-3.57,2.46-7.4,2.57-8.86,4.26-11.57,8.19-13.14,5.09-2.04,5.84-1.64,3.09,1.68-2.85,3.43-7.32,11.12-6.45,11.09,.33-.01,2.35-2.67,4.5-5.91s4.95-6.65,6.23-7.58c2.47-1.79,8.2-4.58,8.2-3.99,0,.19-1.19,2.02-2.64,4.06-2.78,3.9-6.25,10.33-5.58,10.33,.22,0,2.19-2.72,4.38-6.04,6.17-9.37,6.41-9.55,12.19-9.55,4.97,0,9.67,1.36,10.75,3.12,.44,.72,.2,.73-1.02,.08-2.84-1.52-4.81-1.01-6.22,1.6-2.4,4.44-5.55,7.47-9.93,9.54-2.37,1.12-4.78,2.04-5.35,2.04-3.07,0-12.81,6.1-18.9,11.84-3.62,3.41-7.78,6.7-9.25,7.31-3.18,1.33-10.09,1.46-13.54,.25-2.32-.81-2.44-1.04-1.99-3.7,.97-5.62,3.8-9.89,12.77-19.26,4.95-5.17,11.81-12.48,15.24-16.23,6.94-7.6,10.13-9.34,15.87-8.68,1.87,.22,5.03,1.29,7.02,2.39Zm142.82,16.43c.58,.58-2.52,2.36-10.32,5.97-12.69,5.86-23.12,10.09-24.08,9.75-.36-.12-.22-1.1,.32-2.17,.64-1.28,2.37-2.45,5.07-3.42,2.25-.81,3.93-1.64,3.72-1.84s-1.97,.17-3.92,.84c-3.14,1.07-4.89,.66-2.77-.64,.43-.27,.78-.89,.78-1.38,0-1.93-2.39,1.6-3.81,5.62-1.39,3.95-3.58,6.18-6.13,6.26-1.32,.04-1.24-.77,.62-5.73,.88-2.34,2.71-5.35,4.08-6.69,2.64-2.58,9.11-6.06,13.26-7.11,3.52-.9,22.19-.45,23.19,.56Zm8.79,3.75c.62,.62,3.27,2.25,5.9,3.63,4.55,2.38,4.71,2.56,3.2,3.61-7.66,5.37-31.35,12.14-45.66,13.06-7.84,.5-19.63-.51-17.09-1.46,.86-.32,4.89-1.93,8.97-3.57,9.9-3.98,8.84-3.72,20.08-5.06,14.68-1.75,26.21-3.64,27.07-4.43,.45-.42-.18-.53-1.56-.28-10.65,1.94-16.84,2.44-18.12,1.46-1.81-1.37-2.93-1.34-1.77,.05,.98,1.19,.47,1.35-7.37,2.28l-3.12,.37,3.51-1.65c1.93-.91,5.96-2.86,8.97-4.34,5.08-2.5,11.5-4.59,14.56-4.75,.72-.04,1.81,.44,2.43,1.05Zm-107.09,69.5c.03,5.59-.37,10.04-1.14,12.64-1.71,5.75-2.72,5.72-1.27-.04,.82-3.27,1.23-8.53,1.24-16.16,.01-6.94,.23-10.1,.57-8.19,.3,1.72,.58,7,.6,11.75Z"/>
</svg>