<?xml version="1.0" encoding="UTF-8"?>
<svg id="Layer_1" data-name="Layer 1" xmlns="http://www.w3.org/2000/svg" xmlns:xlink="http://www.w3.org/1999/xlink" viewBox="0 0 498.19 460.06">
  <defs>
    <style>
      .cls-1 {
        fill: #888bb2;
      }

      .cls-2 {
        fill: #f6a389;
      }

      .cls-3 {
        fill: #f2a384;
      }

      .cls-4 {
        fill: #eacc35;
      }

      .cls-5 {
        stroke: #2f6a1b;
        stroke-width: .25px;
      }

      .cls-5, .cls-6 {
        fill: none;
        stroke-miterlimit: 10;
      }

      .cls-7 {
        fill: #f4a387;
      }

      .cls-8 {
        fill: #32304d;
      }

      .cls-6 {
        stroke: #342563;
        stroke-width: .5px;
      }

      .cls-9 {
        fill: #f4a287;
      }

      .cls-10 {
        fill: #c52c54;
      }

      .cls-11 {
        fill: #0b9534;
      }

      .cls-12 {
        fill: #2c284d;
      }

      .cls-13 {
        fill: #b98aff;
      }

      .cls-14 {
        fill: #cfbaff;
      }

      .cls-15 {
        fill: #ef8f78;
      }

      .cls-16 {
        fill: #dc9675;
      }

      .cls-17 {
        fill: #bdbeee;
      }

      .cls-18 {
        fill: #47307e;
      }

      .cls-19 {
        fill: #36225e;
      }

      .cls-20 {
        fill: url(#linear-gradient);
      }

      .cls-21 {
        fill: #baa3f4;
      }

      .cls-22 {
        fill: #acaada;
      }

      .cls-23 {
        fill: #2f6a1b;
      }
    </style>
    <linearGradient id="linear-gradient" x1="274.56" y1="396.69" x2="273.86" y2="488.02" gradientUnits="userSpaceOnUse">
      <stop offset="0" stop-color="#cfadfd"/>
      <stop offset=".6" stop-color="#b28cfe"/>
      <stop offset="1" stop-color="#a47cff"/>
    </linearGradient>
  </defs>
  <path class="cls-14" d="M486.39,315.14s-6.72,21.56-16.08,37.44c-7.33,14.25-5.7,36.03-5.7,36.03,0,0,1.24,45.98-58.2,64.02-8.44-.9-22.62-1.88-46.45-2.64H189.14s-3.66,.09-9.16,.28h-.02c-.95,0-37.97-.43-93.74-11.89-56.5-11.61-57.42-37.87-57.42-37.87,0,0-9.77-26.87,6.72-49.78,16.49-22.91,29.93-44.92,29.93-44.92,0,0,10.08-21.04,7.02-35.09-3.05-14.05-26-24.44-26-24.44,0,0-49.63-18.01-37.31-52.22,12.32-34.21,44.99-23.91,44.99-23.91,0,0,35.12,.28,37.56-25.47,0,0-12.82-26.97,8.86-57.82,13.13-18.6,55.58-8.51,55.58-8.51,0,0,18.93,5.87,38.88-5.74,0,0,58.23-52.02,125.42-38.58,67.19,13.43,83.68,48.86,83.68,48.86,0,0,8.55,5.27,14.05,48.75,5.49,43.48,16.49,58.77,16.49,58.77,0,0,23.41,39.99,44.99,55.86,21.58,15.88,6.72,68.84,6.72,68.84Z"/>
  <path class="cls-20" d="M398.11,341.51s-.69,51.38-9.25,76.12c-8.55,24.73-28.91,32.36-28.91,32.36H189.14c-42.45-15.57-37.32-85.75-37.32-85.75l.98-11.97,14.05-3.06,231.27-7.7Z"/>
  <g>
    <path class="cls-13" d="M186.85,360.77c-12.67-2.27-20-6.59-20-6.59,2.83-1.95,5.59-4.01,8.24-6.18,0,0,1.66,4.82,11.76,12.77Z"/>
    <path class="cls-13" d="M363.37,361.12c-48.4,12.07-95,9.19-95,9.19,0,0-.59-.06-1.68-.18-.03-.19-.06-.38-.1-.58-.05-.26-.11-.52-.19-.77h0c-.47-1.58-1.4-2.99-2.69-4.03-7.28-5.87-17.91-14.31-20.44-16.32-.22-.17-.45-.34-.69-.49,15.12,6.49,32.98,12.47,47.54,12.57,40.31-.41,59.04-19.34,59.04-19.34,0,0,12.77-12.76,18.73-26.04,11.04,1.64,20.67,7.87,25.74,11.71,5.81,4.41,6.97,12.81,2.35,18.45-4.34,5.31-13.68,11.1-32.61,15.81Z"/>
  </g>
  <path class="cls-18" d="M393.34,159.77c-3.82,2.95-6.18,7.48-7.55,11.04-.96,2.52-1.41,5.21-1.28,7.91,.12,2.52-.26,6.63-3.18,10.58-6.23,8.23-20.79,11.07-21.19,11.14h0c-1.69-4.21-2.83-6.66-2.83-6.66l-7.28-13.96c-1.12-2.15-2.17-4.33-3.25-6.5-.93-1.88-3.15-5.17-7.59-5.95-2.07-.36-4.61-.17-7.73,.96-3.04,1.11-5.78,2.32-8.19,3.52-3.51,1.76-6.3,3.5-8.28,4.85-.78,.54-1.49,1.15-2.13,1.83-1.32,1.42-2.3,3.14-2.86,5.03-.3,1.05-.62,2.27-.92,3.65-.12,.58-.27,1.26-.44,2.04-1.29,5.8-3.9,16.29-7.87,20.94-10.54,2.52-19.09,.84-19.09,.84,0,0-3.96-.76-5.65-3.51-1.68-2.75-6.26-5.76-6.26-5.76,0,0-3.36,1.48-6.64-2.94-2.21-2.98-1.45-6.88-.71-9.11,.27-.82,.64-1.6,1.06-2.35,.62-1.12,1.79-3.8,1.1-7.43-.55-2.9-4.23-6.88-7.08-9.59-3.73-3.54-5.84-8.48-5.78-13.62,.02-2.21,.3-4.76,.96-7.67,1.58-6.95,1.62-14.17,.27-21.15-.7-3.62-1.54-6.72-2.11-8.64-1.32-4.4-.1-19.64,9.01-22.74,.66-.22,1.34-.3,2.02-.37,8.43-.84,13.35-9.03,15.18-12.76,1.69-3.47,4.08-6.58,7.15-8.91,3.12-2.38,7.55-4.7,13.6-5.75,8.92-1.55,15.5,1.44,19.35,4.09,1.99,1.37,3.68,3.11,5.03,5.11,1.6,2.36,4.55,6.33,6.38,6.22,7.83,.53,11.18,5.31,12.51,8.19,1.96,4.28,5.03,7.95,8.99,10.5,2.73,1.76,6.34,3.64,11.1,5.42,23.23,9.16,30.94,26.51,32.87,32.05,.4,1.12,.8,2.25,1.22,3.36,1.32,3.51,3.64,11.84-1.9,16.1Z"/>
  <path class="cls-16" d="M260.85,272.65l-.54,1.7c-5.76-.03-15.15-.14-22.01-.47-6.76-.32-13.38-3.18-17.3-5.2-3.55-1.83-7.52-2.76-11.52-2.49-2.81,.2-5.36,.94-5.69,2.93,0,0-6.52-2.47-5.19-6.34,2.24-5.9,14.35-3.05,19.75,0,5.4,3.06,10.79,5.1,17.15,7.34,6.37,2.23,25.35,2.53,25.35,2.53Z"/>
  <path class="cls-2" d="M134.48,370.69s-.12,.08-.35,.22c-2.78,1.76-21.2,13.51-25.61,19.43-3.36,4.52-4.16,12.92-4.34,17.5-.09,2.38-1.19,4.6-3.05,6.1-2.85,2.29-7.77,5.23-14.9,6.13-9.58,1.19-21.35,11.28-25.98,15.58-1.88,1.75-4.13,3.07-6.6,3.75-2.47,.69-5.28,.93-6.61-.91-1.58-2.19,.52-4.1,2.47-5.28,3.26-1.97,6.4-4.14,9.21-6.71,2.15-1.96,3.98-3.84,5.47-5.47,2.43-2.67,4.53-5.62,6.31-8.76,2.5-4.39,7.41-12.62,14.4-22.53,10.49-14.87,32.17-35.43,32.17-35.43,.1,.3,.2,.6,.31,.9,5.17,14.32,17.1,15.49,17.1,15.49Z"/>
  <path class="cls-8" d="M370.74,305.75c-.39,3.05-1.43,6.24-2.85,9.39-5.96,13.28-18.73,26.04-18.73,26.04,0,0-18.73,18.93-59.04,19.34-14.56-.09-32.41-6.08-47.54-12.57-13.07-5.62-24.12-11.6-29.23-14.49-.96-.54-1.89-1.12-2.81-1.73-.55-.36-1.09-.73-1.64-1.12-1.64-1.16-4.51-2.81-7.55-2.88-1.59-.04-5.21,2.41-9.3,5.65-3.97,3.15-8.38,7.06-11.82,10.18-1.68,1.53-3.39,3-5.15,4.44-2.65,2.17-5.41,4.23-8.24,6.18-.23,.16-.47,.33-.71,.49-6.46,4.39-15.72,10.58-23.89,15.75-1.36,.86-2.97,1.23-4.58,1.05-1.25-.13-2.43-.32-3.54-.57,.23-.14,.35-.22,.35-.22,0,0-11.93-1.17-17.1-15.49-.7-2.48-.97-4.71-1.05-6.26-.08-1.37,.4-2.7,1.3-3.72,11.52-13.21,42.94-40.16,60.93-52.09,5.04-3.34,10.29-5.22,15.27-6.19h0c5.66-1.1,10.97-1.01,15.23-.54,.73,.08,1.47,.18,2.19,.3,3.26,.52,6.45,1.38,9.57,2.5,4.61,1.65,17.9,5.83,44.88,10.25,13.17,2.35,28.35,3.85,43.01,4.8,32.29,2.09,62.04,1.51,62.04,1.51Z"/>
  <path class="cls-7" d="M357.64,428.31c-2.06-3.29-8.93-7.48-8.93-7.48,0,0-6.84-5-15.06-6.42-1.56-.27-3.15-.33-4.73-.3-17.75,.37-27.5-4.12-27.5-4.12,0,0-10.59-4.99-17.72-6.82-7.13-1.83-24.16-9.09-24.16-9.09,4.47-4.02,9.51-11.61,7.05-24.51-.05-.26-.11-.52-.19-.77h0s11.29,8.82,11.29,8.82c.62,.48,1.21,.99,1.8,1.51,6.71,5.8,12.7,7.54,17.06,7.8,3.11,.2,6.19-.62,8.95-2.06,3.09-1.62,10.11-3.82,16.93,4.6,6.53,8.06,14.6,14.2,18.62,17.01,1.36,.94,2.79,1.79,4.27,2.54,4.31,2.19,15.15,8.27,15.82,14.26,.84,7.48-3.51,5.04-3.51,5.04Z"/>
  <path class="cls-12" d="M259.54,394.07c-1.18,1.06-2.32,1.88-3.27,2.47-1.42,.89-3.2,1-4.71,.27-7.29-3.5-31.16-15.11-50.41-26.43-6.04-3.55-10.7-6.78-14.3-9.62h0c-10.1-7.95-11.76-12.77-11.76-12.77,1.76-1.44,3.47-2.91,5.15-4.44,2-1.82,4.32-3.89,6.7-5.93,.44-.37,.87-.75,1.31-1.12,1.28-1.08,2.57-2.15,3.81-3.13,4.09-3.24,7.71-5.69,9.3-5.65,3.04,.07,5.92,1.72,7.55,2.88,.55,.38,1.09,.76,1.64,1.12,.23,.16,.46,.31,.69,.45,.32,.21,.65,.41,.98,.61,.37,.23,.76,.45,1.14,.67,5.11,2.89,16.16,8.87,29.23,14.49,.23,.16,.47,.32,.69,.49,2.53,2.01,13.16,10.45,20.44,16.32,1.29,1.04,2.22,2.44,2.69,4.02h0c.08,.27,.14,.52,.19,.78,.04,.2,.07,.39,.1,.58,2.22,12.55-2.75,19.98-7.15,23.94Z"/>
  <path class="cls-1" d="M320.46,297.99c-2.23,1.3-5.12,2.29-8.77,2.84-25.57,3.89-40.84-5.61-47.08-10.84-3.19-2.67-5.23-6.53-5.39-10.69-.06-1.7,.17-3.54,.98-5.32,2.75-6.1,9.67-13.34,23.72-14.25,14.05-.91,20.88-11.39,20.88-11.39l2.8,1.65c-.09,.12-.19,.25-.28,.37h0c-2.68,3.42-5.77,5.79-8.63,7.44-4.02,2.3-8.62,3.33-13.25,3.28-5.54-.06-16.16,1.53-20.15,13.93-5.49,17.1,22.8,23.21,22.8,23.21,0,0,11.16,3.06,24.78,1.27,2.47-.32,5.02-.8,7.59-1.5Z"/>
  <path class="cls-17" d="M350.18,275.62c-7.97,13.18-19.09,19.53-29.73,22.38-2.58,.69-5.13,1.18-7.59,1.5-13.62,1.79-24.78-1.27-24.78-1.27,0,0-14.63-3.16-20.81-11.29-2.42-3.18-3.54-7.12-2-11.93,.07-.21,.14-.42,.22-.63,0,0,0,0,0,0,4.14-11.82,14.49-13.35,19.93-13.29,4.63,.05,9.23-.98,13.25-3.28,2.86-1.65,5.95-4.02,8.63-7.43h0c.09-.12,.19-.25,.28-.37,2.15-2.8,4-6.28,5.27-10.62,2.3-4.89-1.57-13.85-1.57-13.85,0,0-3.05-7.33,0-23.2,0,0,4.28-18.73,19.75-18.12,6.88,.27,12.59,4.24,16.81,8.57,5.37,5.5,8.98,12.45,10.74,19.92,3.05,13.01,6.16,38.83-8.41,62.92Z"/>
  <path class="cls-10" d="M234.03,173.51l3.16,.92v-7.23l4.07,4.79,1.02-3.66s6.01,4.48,3.56,11.3c-1.22,3.41-3.49,3.69-5.45,3.12-2.28-.67-4.08-2.43-5.01-4.62-.5-1.18-1.02-2.73-1.36-4.61Z"/>
  <path class="cls-10" d="M256.02,187.66l-1.02-2.34,6.01-.61-4.28-3.87,2.65-1.02s-8.45-6.52-11.5,0,4.28,8.96,8.14,7.84Z"/>
  <path class="cls-10" d="M225.1,161.86l2.44,3.05,1.53-3.05,.69,4.05,2.06-2.02v3.32l2.98-1.6s-1.68,8.78-7.71,6.87c-6.03-1.91-1.99-10.61-1.99-10.61Z"/>
  <path class="cls-10" d="M258.54,190.49s-8.02,1.91-7.02,6.64c1.83,7.18,9.93,3.05,9.93,3.05l-2.44-1.3,2.01-1.83-2.54-1.13,2.14-2-3.13-.23,1.07-3.21Z"/>
  <path class="cls-10" d="M267.57,207.62s-3.77-6.91-8.88-4.21c-1.71,.9-2.57,2.96-1.86,4.76,1.26,3.22,5.55,6.22,5.55,6.22l.05-3.46,5.14,1.37-2.44-4.68h2.44Z"/>
  <path class="cls-10" d="M245.25,184.76s-6.31,3.66-5.03,8.32c2.97,6.79,10.6,0,10.6,0l-2.52-1.07,1.15-1.58-2.3-.33,1.08-2.9-3.28,.72,.31-3.16Z"/>
  <path class="cls-22" d="M370.74,305.75s-29.75,.58-62.04-1.51l4.16-4.75c12.65-1.65,27.42-7.5,37.32-23.87,14.56-24.08,11.46-49.91,8.41-62.92-1.76-7.48-5.37-14.42-10.74-19.92-4.22-4.33-9.93-8.3-16.81-8.57-15.47-.61-19.75,18.12-19.75,18.12-3.05,15.87,0,23.2,0,23.2,0,0,3.87,8.96,1.57,13.85-1.32,4.53-3.29,8.12-5.55,10.99-13.35-9.98-13.53-20.46-13.53-24.22s2.47-10.69,6.97-15.96c3.97-4.65,6.59-15.14,7.87-20.94,.17-.77,.32-1.46,.44-2.04,.3-1.38,.62-2.61,.92-3.65,.55-1.9,1.54-3.61,2.86-5.03,.64-.68,1.35-1.29,2.13-1.83,1.98-1.36,4.77-3.1,8.28-4.85,2.4-1.2,5.14-2.41,8.19-3.52,3.12-1.13,5.67-1.32,7.73-.96,4.44,.77,6.66,4.07,7.59,5.95,1.08,2.17,2.13,4.35,3.25,6.5l7.28,13.96s1.14,2.46,2.83,6.66h0c4.24,10.58,11.96,32.25,13.86,53.8,2.65,30.13-3.26,51.51-3.26,51.51Z"/>
  <path class="cls-19" d="M312.86,178.52c-1.32,1.42-2.3,3.14-2.86,5.03-.3,1.05-.62,2.27-.92,3.65-.12,.58-.27,1.26-.44,2.04,0,0-10.32-2.04-17.19,9.26-3.57,4.31-11.04,.47-15.36-2.35-2.56-1.67-4.12-4.5-4.09-7.55,.01-1.22,.22-2.43,.81-3.33,1.4-2.15-1.86-5.43-3.46-6.84-1.2-1.06-2.23-2.3-2.96-3.71-1.09-2.11-1.77-4.97,.47-7.42,4.12-4.53-1.48-15.52-1.48-15.52,0,0-10.25-22.07-2.13-34.87,0,0,0,0,0,0-.34,3.89-.3,10.61,3.46,14.26,5.49,5.35,10.38,13.74,10.38,13.74v6.87l3.82,.76s7.17,20.62,25.04,17.26c1.24-.23,2.42-.52,3.52-.86h0s3.39,9.58,3.39,9.58Z"/>
  <path class="cls-9" d="M332.34,135.85c-.22,1.32-.71,2.95-1.8,3.71-1.45,1.01-2.75,7.27-3.33,10.54-.57,3.19-1.76,6.26-3.61,8.92-1.13,1.62-2.61,3.34-4.57,4.94-2.42,1.97-5.53,3.78-9.55,4.98-1.1,.34-2.28,.62-3.52,.86-17.86,3.36-25.04-17.26-25.04-17.26l-3.82-.76v-6.87s-4.89-8.4-10.38-13.74c-3.75-3.65-3.8-10.37-3.46-14.26,.16-1.8,.41-3,.41-3,6,.09,16.53,4.15,23.91,7.35,4.09,1.76,7.91,4.07,11.51,6.68,2.02,1.47,4.89,3,8.24,3.22,4.46,.3,8.37-1.74,10.51-3.15,1.93-1.28,4.21-2,6.52-1.93,4.97,.14,6.93,3.34,7.69,5.61,.45,1.34,.53,2.77,.3,4.16Z"/>
  <path class="cls-15" d="M339.19,167.36c-2.07-.36-4.61-.17-7.73,.96-3.04,1.11-5.78,2.32-8.19,3.52-3.51,1.76-6.3,3.5-8.28,4.85-.78,.54-1.49,1.15-2.13,1.83l-3.39-9.58h0c.91-.28,1.77-.59,2.59-.91,.2-.08,.41-.16,.6-.25,.18-.07,.36-.15,.53-.23,2.29-1.03,4.21-2.27,5.83-3.59,1.95-1.6,3.43-3.32,4.57-4.94,1.86-2.66,3.04-5.73,3.61-8.92l11.99,17.26Z"/>
  <circle class="cls-21" cx="30.54" cy="284.98" r="21.38"/>
  <circle class="cls-21" cx="7.53" cy="350.74" r="7.53"/>
  <circle class="cls-21" cx="45.3" cy="131.17" r="6.62"/>
  <circle class="cls-21" cx="80.42" cy="79.25" r="3.51"/>
  <circle class="cls-21" cx="383.67" cy="4.43" r="4.43"/>
  <circle class="cls-21" cx="423.07" cy="68.29" r="10.08"/>
  <circle class="cls-21" cx="459.1" cy="156.1" r="24.43"/>
  <circle class="cls-21" cx="486.39" cy="359.5" r="11.81"/>
  <path class="cls-21" d="M417.86,455.17c-4.48,.62-26.37,3.11-95.72,4.45-79.55,1.53-161.86-1.37-161.86-1.37,0,0-35.12-.76-30.69-3.82,3.29-2.27,34.5-3.61,50.38-4.15h.02c5.5-.19,9.16-.28,9.16-.28h170.82c23.83,.76,38.02,1.74,46.45,2.64,7.26,.78,10.26,1.49,11.51,1.94,.31,.11,.26,.55-.06,.6Z"/>
  <path class="cls-6" d="M278.16,99.71s8.55,.15,13.44-.76c1.48-.28,3.11-.13,4.67,.2,3.59,.77,6.79,2.76,9.26,5.48,2.8,3.1,8.04,8.37,16.16,14.48,7.2,5.02,11.9,5.44,14.01,5.27,1.69-.14,3.4-.07,5.05,.37,2.9,.76,6.77,2.49,9.05,6.43"/>
  <path class="cls-6" d="M306.1,91.62s16.95-.61,25.65,10.84c5.91,7.77,10.97,9.21,13.61,9.34s5.05,.89,7.04,2.49c1.77,1.42,3.48,3.5,4.16,6.48,.97,4.28,3.42,8.1,7.17,10.37,2.01,1.22,4.51,2.42,7.56,3.39"/>
  <path class="cls-6" d="M346.57,133.3s10.38,8.7,11.45,12.83c.71,2.75,5.51,5.71,8.62,7.37,2.55,1.36,5.34,2.27,8.22,2.52,.87,.08,1.79,.1,2.7,.03"/>
  <path class="cls-23" d="M228.05,191.96c-.17-.14-.36-.31-.55-.51-1.53-1.9-2.99-4.1-4.27-6.23,.26-2.08,1.26-9.69,2.27-11.53,3.3,4.78,2.54,18.27,2.54,18.27Z"/>
  <path class="cls-11" d="M225.5,173.69c-1.01,1.84-2.01,9.46-2.27,11.53-1.81-3-3.28-5.87-4.08-7.52,.44-1.02,1.28-2.6,2.58-3.51,2.04-1.42,3.77-.51,3.77-.51Z"/>
  <path class="cls-23" d="M237.81,201.01c-1.03-1.14-2.13-2.26-3.26-3.26,1.66-2.45,3.94-11.21,3.94-11.21,.65,4.96-.24,11.7-.68,14.48Z"/>
  <path class="cls-11" d="M238.49,186.53s-2.28,8.76-3.94,11.21c-.91-.8-1.83-1.54-2.75-2.14-.8-.52-1.61-1.22-2.41-2.03,.56-1.23,3.79-7.63,9.11-7.05Z"/>
  <path class="cls-4" d="M246.57,214.4c.04,.82-.13,1.7-.63,2.58-1.2,2.1-6.64,10.09-10.91,16.31-2.64,3.84-5.34,7.62-8.14,11.35-3.46,4.6-9.06,12.63-9.98,17.41-1.35,7-5.55,20.75-5.67,24.64-.73-.12-1.46-.22-2.19-.3-4.26-.48-9.57-.56-15.23,.54h0s11.61-20.88,12.63-50.81c1.02-29.93,12.01-59.86,12.01-59.86,0,0,.25,.54,.69,1.45,.8,1.65,2.27,4.51,4.08,7.52,1.28,2.13,2.74,4.33,4.27,6.23,.62,.76,1.25,1.48,1.88,2.12,.8,.81,1.61,1.51,2.41,2.03,.93,.6,1.85,1.33,2.75,2.14,1.13,1,2.23,2.12,3.26,3.26,1.19,1.32,2.28,2.67,3.23,3.9,.94,1.23,1.72,2.33,2.31,3.19,.45,.65,.89,1.29,1.35,1.92,.11,.15,.22,.3,.33,.44,.59,.79,1.48,2.24,1.55,3.93Z"/>
  <path class="cls-23" d="M253.47,204.83l-.02,.02c-.27,.25-4.5,4.15-8.76,5.17-.46-.63-.9-1.27-1.35-1.92-.59-.86-1.37-1.97-2.31-3.19,2.09-.44,8.42-1.58,12.43-.08Z"/>
  <path class="cls-11" d="M255.71,206.72l-9.14,7.68c-.06-1.69-.96-3.15-1.55-3.93-.11-.15-.22-.3-.33-.44,4.26-1.02,8.49-4.92,8.76-5.17l.02-.02,2.24,1.89Z"/>
  <path class="cls-10" d="M247.98,197.23s-6.31,2.65-4.12,7.07c2.19,4.43,8.35,0,8.35,0l-2.44-1.53,1.07-1.42-2.65,.39,2.14-2.69-2.85,.25,.51-2.09Z"/>
  <path class="cls-10" d="M227.69,185.22c1.64,.19,5.97,.16,7.41-5.04h-2.24l.41-2.6-2.9,1.12,1.07-3.62-2.95,1.84-1.12-2.35s-4.83,6.75-.86,10.13c.34,.29,.75,.46,1.19,.51Z"/>
  <line class="cls-5" x1="238.22" y1="181.68" x2="228.41" y2="192.53"/>
  <line class="cls-5" x1="247.36" y1="181.21" x2="233.31" y2="196.71"/>
  <line class="cls-5" x1="226.51" y1="172.26" x2="224.79" y2="176.66"/>
  <line class="cls-5" x1="243.85" y1="204.31" x2="241.51" y2="205.54"/>
  <line class="cls-5" x1="251.83" y1="198.1" x2="252.61" y2="204.92"/>
  <line class="cls-5" x1="257.56" y1="204.31" x2="245.44" y2="211.07"/>
  <path class="cls-3" d="M267.28,286.93c-5.31-.36-13.71-1.39-26.07-4.6-8.02-2.08-18.61-1.94-25.09-1.59-4.24,.23-8.26-1.87-10.46-5.5-1.23-2.06-2.16-4.29-1.87-6.12,.33-1.99,2.88-2.73,5.69-2.93,4-.27,7.97,.66,11.52,2.49,3.92,2.02,10.54,4.88,17.3,5.2,6.86,.33,16.25,.44,22.01,.47,3.13,.02,5.18,.02,5.18,.02h0c-.08,.22-.15,.43-.22,.64-1.55,4.81-.42,8.75,2,11.93Z"/>
  <line class="cls-5" x1="241.67" y1="195.15" x2="238.92" y2="202.28"/>
</svg>